<?xml version="1.0" encoding="UTF-8" standalone="no"?><svg xmlns="http://www.w3.org/2000/svg" xmlns:xlink="http://www.w3.org/1999/xlink" clip-rule="evenodd" stroke-miterlimit="10" viewBox="0 0 353 293"><desc>SVG generated by Keynote</desc><defs></defs><g transform="matrix(1.00, 0.00, -0.00, -1.00, 0.0, 293.0)"><path d="M 5.4 0.0 C 2.4 0.0 0.0 2.4 0.0 5.4 L 0.0 130.4 L -21.7 141.3 L 0.0 152.1 L 0.0 187.9 C 0.0 190.9 2.4 193.3 5.4 193.3 L 269.8 193.3 C 272.8 193.3 275.2 190.9 275.2 187.9 L 275.2 5.4 C 275.2 2.4 272.8 0.0 269.8 0.0 L 5.4 0.0 Z M 5.4 0.0 " fill="none" stroke="#7F8685" stroke-width="2.00" transform="matrix(0.93, 0.36, 0.36, -0.93, 24.3, 191.8)"></path><g><clipPath id="clip0x600001cb0320"><path d="M 19.6 190.0 L 286.1 292.3 L 355.3 111.8 L 88.8 9.5 Z M 19.6 190.0 "></path></clipPath><g clip-path="url(#clip0x600001cb0320)"><text xml:space="preserve" font-family="GillSans-Light,Gill Sans" font-size="36.0" fill="#525252" transform="matrix(0.93, 0.36, 0.36, -0.93, 72.6, 160.0)">B</text><text xml:space="preserve" font-family="GillSans-Light,Gill Sans" font-size="36.0" fill="#525252" transform="matrix(0.93, 0.36, 0.36, -0.93, 90.4, 166.9)">u</text><text xml:space="preserve" font-family="GillSans-Light,Gill Sans" font-size="36.0" fill="#525252" transform="matrix(0.93, 0.36, 0.36, -0.93, 106.9, 173.2)">t</text><text xml:space="preserve" font-family="GillSans-Light,Gill Sans" font-size="36.0" fill="#525252" transform="matrix(0.93, 0.36, 0.36, -0.93, 117.1, 177.1)"> </text><text xml:space="preserve" font-family="GillSans-Light,Gill Sans" font-size="36.0" fill="#525252" transform="matrix(0.93, 0.36, 0.36, -0.93, 126.4, 180.6)">w</text><text xml:space="preserve" font-family="GillSans-Light,Gill Sans" font-size="36.0" fill="#525252" transform="matrix(0.93, 0.36, 0.36, -0.93, 150.2, 189.8)">h</text><text xml:space="preserve" font-family="GillSans-Light,Gill Sans" font-size="36.0" fill="#525252" transform="matrix(0.93, 0.36, 0.36, -0.93, 166.7, 196.1)">a</text><text xml:space="preserve" font-family="GillSans-Light,Gill Sans" font-size="36.0" fill="#525252" transform="matrix(0.93, 0.36, 0.36, -0.93, 181.0, 201.6)">t</text><text xml:space="preserve" font-family="GillSans-Light,Gill Sans" font-size="36.0" fill="#525252" transform="matrix(0.93, 0.36, 0.36, -0.93, 191.1, 205.5)"> </text><text xml:space="preserve" font-family="GillSans-Light,Gill Sans" font-size="36.0" fill="#525252" transform="matrix(0.93, 0.36, 0.36, -0.93, 200.5, 209.1)">i</text><text xml:space="preserve" font-family="GillSans-Light,Gill Sans" font-size="36.0" fill="#525252" transform="matrix(0.93, 0.36, 0.36, -0.93, 206.8, 211.5)">f</text><text xml:space="preserve" font-family="GillSans-Light,Gill Sans" font-size="36.0" fill="#525252" transform="matrix(0.93, 0.36, 0.36, -0.93, 214.9, 214.6)"> </text><text xml:space="preserve" font-family="GillSans-Light,Gill Sans" font-size="36.0" fill="#525252" transform="matrix(0.93, 0.36, 0.36, -0.93, 224.2, 218.2)">t</text><text xml:space="preserve" font-family="GillSans-Light,Gill Sans" font-size="36.0" fill="#525252" transform="matrix(0.93, 0.36, 0.36, -0.93, 234.3, 222.1)">h</text><text xml:space="preserve" font-family="GillSans-Light,Gill Sans" font-size="36.0" fill="#525252" transform="matrix(0.93, 0.36, 0.36, -0.93, 250.8, 228.4)">e</text><text xml:space="preserve" font-family="GillSans-Light,Gill Sans" font-size="36.0" fill="#525252" transform="matrix(0.93, 0.36, 0.36, -0.93, 266.9, 234.6)"> </text><text xml:space="preserve" font-family="GillSans-Light,Gill Sans" font-size="36.0" fill="#525252" transform="matrix(0.93, 0.36, 0.36, -0.93, 99.0, 126.2)">s</text><text xml:space="preserve" font-family="GillSans-Light,Gill Sans" font-size="36.0" fill="#525252" transform="matrix(0.93, 0.36, 0.36, -0.93, 110.9, 130.8)">t</text><text xml:space="preserve" font-family="GillSans-Light,Gill Sans" font-size="36.0" fill="#525252" transform="matrix(0.93, 0.36, 0.36, -0.93, 121.0, 134.7)">r</text><text xml:space="preserve" font-family="GillSans-Light,Gill Sans" font-size="36.0" fill="#525252" transform="matrix(0.93, 0.36, 0.36, -0.93, 132.2, 139.0)">e</text><text xml:space="preserve" font-family="GillSans-Light,Gill Sans" font-size="36.0" fill="#525252" transform="matrix(0.93, 0.36, 0.36, -0.93, 148.3, 145.2)">a</text><text xml:space="preserve" font-family="GillSans-Light,Gill Sans" font-size="36.0" fill="#525252" transform="matrix(0.93, 0.36, 0.36, -0.93, 162.7, 150.7)">m</text><text xml:space="preserve" font-family="GillSans-Light,Gill Sans" font-size="36.0" fill="#525252" transform="matrix(0.93, 0.36, 0.36, -0.93, 188.6, 160.6)">s</text><text xml:space="preserve" font-family="GillSans-Light,Gill Sans" font-size="36.0" fill="#525252" transform="matrix(0.93, 0.36, 0.36, -0.93, 200.5, 165.2)"> </text><text xml:space="preserve" font-family="GillSans-Light,Gill Sans" font-size="36.0" fill="#525252" transform="matrix(0.93, 0.36, 0.36, -0.93, 209.8, 168.8)">h</text><text xml:space="preserve" font-family="GillSans-Light,Gill Sans" font-size="36.0" fill="#525252" transform="matrix(0.93, 0.36, 0.36, -0.93, 226.3, 175.1)">a</text><text xml:space="preserve" font-family="GillSans-Light,Gill Sans" font-size="36.0" fill="#525252" transform="matrix(0.93, 0.36, 0.36, -0.93, 239.8, 180.3)">v</text><text xml:space="preserve" font-family="GillSans-Light,Gill Sans" font-size="36.0" fill="#525252" transform="matrix(0.93, 0.36, 0.36, -0.93, 253.6, 185.6)">e</text><text xml:space="preserve" font-family="GillSans-Light,Gill Sans" font-size="36.0" fill="#525252" transform="matrix(0.93, 0.36, 0.36, -0.93, 269.7, 191.8)"> </text><text xml:space="preserve" font-family="GillSans-Light,Gill Sans" font-size="36.0" fill="#525252" transform="matrix(0.93, 0.36, 0.36, -0.93, 92.3, 79.7)">d</text><text xml:space="preserve" font-family="GillSans-Light,Gill Sans" font-size="36.0" fill="#525252" transform="matrix(0.93, 0.36, 0.36, -0.93, 109.4, 86.3)">i</text><text xml:space="preserve" font-family="GillSans-Light,Gill Sans" font-size="36.0" fill="#525252" transform="matrix(0.93, 0.36, 0.36, -0.93, 115.7, 88.7)">f</text><text xml:space="preserve" font-family="GillSans-Light,Gill Sans" font-size="36.0" fill="#525252" transform="matrix(0.93, 0.36, 0.36, -0.93, 123.8, 91.8)">f</text><text xml:space="preserve" font-family="GillSans-Light,Gill Sans" font-size="36.0" fill="#525252" transform="matrix(0.93, 0.36, 0.36, -0.93, 131.4, 94.7)">e</text><text xml:space="preserve" font-family="GillSans-Light,Gill Sans" font-size="36.0" fill="#525252" transform="matrix(0.93, 0.36, 0.36, -0.93, 147.5, 100.9)">r</text><text xml:space="preserve" font-family="GillSans-Light,Gill Sans" font-size="36.0" fill="#525252" transform="matrix(0.93, 0.36, 0.36, -0.93, 158.7, 105.2)">e</text><text xml:space="preserve" font-family="GillSans-Light,Gill Sans" font-size="36.0" fill="#525252" transform="matrix(0.93, 0.36, 0.36, -0.93, 174.8, 111.4)">n</text><text xml:space="preserve" font-family="GillSans-Light,Gill Sans" font-size="36.0" fill="#525252" transform="matrix(0.93, 0.36, 0.36, -0.93, 191.2, 117.7)">t</text><text xml:space="preserve" font-family="GillSans-Light,Gill Sans" font-size="36.0" fill="#525252" transform="matrix(0.93, 0.36, 0.36, -0.93, 201.4, 121.6)"> </text><text xml:space="preserve" font-family="GillSans-Light,Gill Sans" font-size="36.0" fill="#525252" transform="matrix(0.93, 0.36, 0.36, -0.93, 210.7, 125.2)">l</text><text xml:space="preserve" font-family="GillSans-Light,Gill Sans" font-size="36.0" fill="#525252" transform="matrix(0.93, 0.36, 0.36, -0.93, 217.0, 127.6)">e</text><text xml:space="preserve" font-family="GillSans-Light,Gill Sans" font-size="36.0" fill="#525252" transform="matrix(0.93, 0.36, 0.36, -0.93, 233.1, 133.8)">n</text><text xml:space="preserve" font-family="GillSans-Light,Gill Sans" font-size="36.0" fill="#525252" transform="matrix(0.93, 0.36, 0.36, -0.93, 249.6, 140.1)">g</text><text xml:space="preserve" font-family="GillSans-Light,Gill Sans" font-size="36.0" fill="#525252" transform="matrix(0.93, 0.36, 0.36, -0.93, 263.9, 145.6)">t</text><text xml:space="preserve" font-family="GillSans-Light,Gill Sans" font-size="36.0" fill="#525252" transform="matrix(0.93, 0.36, 0.36, -0.93, 274.1, 149.5)">h</text><text xml:space="preserve" font-family="GillSans-Light,Gill Sans" font-size="36.0" fill="#525252" transform="matrix(0.93, 0.36, 0.36, -0.93, 290.6, 155.8)">s</text><text xml:space="preserve" font-family="GillSans-Light,Gill Sans" font-size="36.0" fill="#525252" transform="matrix(0.93, 0.36, 0.36, -0.93, 302.5, 160.4)">,</text><text xml:space="preserve" font-family="GillSans-Light,Gill Sans" font-size="36.0" fill="#525252" transform="matrix(0.93, 0.36, 0.36, -0.93, 305.7, 161.6)"> </text><text xml:space="preserve" font-family="GillSans-Light,Gill Sans" font-size="36.0" fill="#525252" transform="matrix(0.93, 0.36, 0.36, -0.93, 139.2, 53.8)">s</text><text xml:space="preserve" font-family="GillSans-Light,Gill Sans" font-size="36.0" fill="#525252" transform="matrix(0.93, 0.36, 0.36, -0.93, 151.1, 58.4)">i</text><text xml:space="preserve" font-family="GillSans-Light,Gill Sans" font-size="36.0" fill="#525252" transform="matrix(0.93, 0.36, 0.36, -0.93, 157.4, 60.8)">z</text><text xml:space="preserve" font-family="GillSans-Light,Gill Sans" font-size="36.0" fill="#525252" transform="matrix(0.93, 0.36, 0.36, -0.93, 170.2, 65.7)">e</text><text xml:space="preserve" font-family="GillSans-Light,Gill Sans" font-size="36.0" fill="#525252" transform="matrix(0.93, 0.36, 0.36, -0.93, 186.3, 71.9)"> </text><text xml:space="preserve" font-family="GillSans-Light,Gill Sans" font-size="36.0" fill="#525252" transform="matrix(0.93, 0.36, 0.36, -0.93, 195.7, 75.5)">o</text><text xml:space="preserve" font-family="GillSans-Light,Gill Sans" font-size="36.0" fill="#525252" transform="matrix(0.93, 0.36, 0.36, -0.93, 213.9, 82.5)">r</text><text xml:space="preserve" font-family="GillSans-Light,Gill Sans" font-size="36.0" fill="#525252" transform="matrix(0.93, 0.36, 0.36, -0.93, 225.9, 87.1)">r</text><text xml:space="preserve" font-family="GillSans-Light,Gill Sans" font-size="36.0" fill="#525252" transform="matrix(0.93, 0.36, 0.36, -0.93, 237.9, 91.7)">a</text><text xml:space="preserve" font-family="GillSans-Light,Gill Sans" font-size="36.0" fill="#525252" transform="matrix(0.93, 0.36, 0.36, -0.93, 252.3, 97.2)">t</text><text xml:space="preserve" font-family="GillSans-Light,Gill Sans" font-size="36.0" fill="#525252" transform="matrix(0.93, 0.36, 0.36, -0.93, 262.4, 101.1)">e</text><text xml:space="preserve" font-family="GillSans-Light,Gill Sans" font-size="36.0" fill="#525252" transform="matrix(0.93, 0.36, 0.36, -0.93, 278.5, 107.3)">?</text></g></g></g></svg>