<?xml version="1.0" encoding="UTF-8" standalone="no"?><svg xmlns="http://www.w3.org/2000/svg" xmlns:xlink="http://www.w3.org/1999/xlink" clip-rule="evenodd" stroke-miterlimit="10" viewBox="0 0 103 185"><desc>SVG generated by Keynote</desc><defs></defs><g transform="matrix(1.00, 0.00, -0.00, -1.00, 0.0, 185.0)"><path d="M 1.4 57.5 L 1.0 127.5 C 1.0 135.8 8.1 142.0 16.4 142.0 L 86.4 142.0 C 94.7 142.0 101.0 135.8 101.0 127.5 L 101.0 57.5 C 101.0 49.2 94.7 42.0 86.4 42.0 L 16.4 42.0 C 8.1 42.0 1.4 49.2 1.4 57.5 Z M 1.4 57.5 " fill="#AA1802"></path><g><clipPath id="clip0x600001eaf420"><path d="M -4.9 42.5 L 107.6 42.5 L 107.6 142.5 L -4.9 142.5 Z M -4.9 42.5 "></path></clipPath><g clip-path="url(#clip0x600001eaf420)"><text xml:space="preserve" font-family="GillSans-Light,Gill Sans" font-size="36.0" fill="#FEFFFF" transform="matrix(1.00, 0.00, -0.00, -1.00, 42.4, 91.7)">3</text><text xml:space="preserve" font-family="GillSans-Light,Gill Sans" font-size="20.0" fill="#FEFFFF" transform="matrix(1.00, 0.00, -0.00, -1.00, 18.5, 64.9)">(</text><text xml:space="preserve" font-family="GillSans-Light,Gill Sans" font-size="20.0" fill="#FEFFFF" transform="matrix(1.00, 0.00, -0.00, -1.00, 25.1, 64.9)">6</text><text xml:space="preserve" font-family="GillSans-Light,Gill Sans" font-size="20.0" fill="#FEFFFF" transform="matrix(1.00, 0.00, -0.00, -1.00, 35.1, 64.9)">0</text><text xml:space="preserve" font-family="GillSans-Light,Gill Sans" font-size="20.0" fill="#FEFFFF" transform="matrix(1.00, 0.00, -0.00, -1.00, 45.1, 64.9)">0</text><text xml:space="preserve" font-family="GillSans-Light,Gill Sans" font-size="20.0" fill="#FEFFFF" transform="matrix(1.00, 0.00, -0.00, -1.00, 55.1, 64.9)">m</text><text xml:space="preserve" font-family="GillSans-Light,Gill Sans" font-size="20.0" fill="#FEFFFF" transform="matrix(1.00, 0.00, -0.00, -1.00, 70.5, 64.9)">s</text><text xml:space="preserve" font-family="GillSans-Light,Gill Sans" font-size="20.0" fill="#FEFFFF" transform="matrix(1.00, 0.00, -0.00, -1.00, 77.6, 64.9)">)</text></g></g><image xlink:href="../../A6145DF7-A85D-40E2-9540-0C27EBE590D6/assets/E226055292B59D9F3C02D5C0897418A4.png" width="417.00" height="171.00" transform="matrix(0.24, 0.00, -0.00, -0.24, 1.4, 42.5)"></image></g></svg>