<?xml version="1.0" encoding="UTF-8" standalone="no"?><svg xmlns="http://www.w3.org/2000/svg" xmlns:xlink="http://www.w3.org/1999/xlink" clip-rule="evenodd" stroke-miterlimit="10" viewBox="0 0 1024 768"><desc>SVG generated by Keynote</desc><defs></defs><g transform="matrix(1.00, 0.00, -0.00, -1.00, 0.0, 768.0)"><g><clipPath id="clip0x6000020a6a80"><path d="M 0.0 768.0 L 1024.0 768.0 L 1024.0 0.0 L 0.0 0.0 Z M 0.0 768.0 "></path></clipPath><g clip-path="url(#clip0x6000020a6a80)"><image xlink:href="../../14475E20-3AC1-427A-883A-B77C5AE27FDA/assets/574DCE55A4CF432400CBDDDE1DFDFC9B.jpeg" width="2048.00" height="1536.00" transform="matrix(0.50, 0.00, -0.00, -0.50, 0.0, 768.0)"></image></g></g><text xml:space="preserve" font-family="CourierNewPSMT,Courier New" font-size="30.0" fill="#000000" transform="matrix(1.00, 0.00, -0.00, -1.00, 69.0, 577.6)">O</text><text xml:space="preserve" font-family="CourierNewPSMT,Courier New" font-size="30.0" fill="#000000" transform="matrix(1.00, 0.00, -0.00, -1.00, 87.0, 577.6)">b</text><text xml:space="preserve" font-family="CourierNewPSMT,Courier New" font-size="30.0" fill="#000000" transform="matrix(1.00, 0.00, -0.00, -1.00, 105.0, 577.6)">s</text><text xml:space="preserve" font-family="CourierNewPSMT,Courier New" font-size="30.0" fill="#000000" transform="matrix(1.00, 0.00, -0.00, -1.00, 123.0, 577.6)">e</text><text xml:space="preserve" font-family="CourierNewPSMT,Courier New" font-size="30.0" fill="#000000" transform="matrix(1.00, 0.00, -0.00, -1.00, 141.0, 577.6)">r</text><text xml:space="preserve" font-family="CourierNewPSMT,Courier New" font-size="30.0" fill="#000000" transform="matrix(1.00, 0.00, -0.00, -1.00, 159.0, 577.6)">v</text><text xml:space="preserve" font-family="CourierNewPSMT,Courier New" font-size="30.0" fill="#000000" transform="matrix(1.00, 0.00, -0.00, -1.00, 177.0, 577.6)">a</text><text xml:space="preserve" font-family="CourierNewPSMT,Courier New" font-size="30.0" fill="#000000" transform="matrix(1.00, 0.00, -0.00, -1.00, 195.0, 577.6)">b</text><text xml:space="preserve" font-family="CourierNewPSMT,Courier New" font-size="30.0" fill="#000000" transform="matrix(1.00, 0.00, -0.00, -1.00, 213.0, 577.6)">l</text><text xml:space="preserve" font-family="CourierNewPSMT,Courier New" font-size="30.0" fill="#000000" transform="matrix(1.00, 0.00, -0.00, -1.00, 231.1, 577.6)">e</text><text xml:space="preserve" font-family="CourierNewPSMT,Courier New" font-size="30.0" fill="#000000" transform="matrix(1.00, 0.00, -0.00, -1.00, 249.0, 577.6)"> </text><text xml:space="preserve" font-family="CourierNewPSMT,Courier New" font-size="30.0" fill="#000000" transform="matrix(1.00, 0.00, -0.00, -1.00, 69.0, 543.6)"> </text><text xml:space="preserve" font-family="CourierNewPSMT,Courier New" font-size="30.0" fill="#000000" transform="matrix(1.00, 0.00, -0.00, -1.00, 87.0, 543.6)"> </text><text xml:space="preserve" font-family="CourierNewPSMT,Courier New" font-size="30.0" fill="#000000" transform="matrix(1.00, 0.00, -0.00, -1.00, 105.0, 543.6)"> </text><text xml:space="preserve" font-family="CourierNewPSMT,Courier New" font-size="30.0" fill="#000000" transform="matrix(1.00, 0.00, -0.00, -1.00, 123.0, 543.6)"> </text><text xml:space="preserve" font-family="CourierNewPSMT,Courier New" font-size="30.0" fill="#000000" transform="matrix(1.00, 0.00, -0.00, -1.00, 141.0, 543.6)">.</text><text xml:space="preserve" font-family="CourierNewPSMT,Courier New" font-size="30.0" fill="#021993" transform="matrix(1.00, 0.00, -0.00, -1.00, 159.0, 543.6)">i</text><text xml:space="preserve" font-family="CourierNewPSMT,Courier New" font-size="30.0" fill="#021993" transform="matrix(1.00, 0.00, -0.00, -1.00, 177.0, 543.6)">n</text><text xml:space="preserve" font-family="CourierNewPSMT,Courier New" font-size="30.0" fill="#021993" transform="matrix(1.00, 0.00, -0.00, -1.00, 195.0, 543.6)">t</text><text xml:space="preserve" font-family="CourierNewPSMT,Courier New" font-size="30.0" fill="#021993" transform="matrix(1.00, 0.00, -0.00, -1.00, 213.0, 543.6)">e</text><text xml:space="preserve" font-family="CourierNewPSMT,Courier New" font-size="30.0" fill="#021993" transform="matrix(1.00, 0.00, -0.00, -1.00, 231.0, 543.6)">r</text><text xml:space="preserve" font-family="CourierNewPSMT,Courier New" font-size="30.0" fill="#021993" transform="matrix(1.00, 0.00, -0.00, -1.00, 249.0, 543.6)">v</text><text xml:space="preserve" font-family="CourierNewPSMT,Courier New" font-size="30.0" fill="#021993" transform="matrix(1.00, 0.00, -0.00, -1.00, 267.1, 543.6)">a</text><text xml:space="preserve" font-family="CourierNewPSMT,Courier New" font-size="30.0" fill="#021993" transform="matrix(1.00, 0.00, -0.00, -1.00, 285.1, 543.6)">l</text><text xml:space="preserve" font-family="CourierNewPSMT,Courier New" font-size="30.0" fill="#000000" transform="matrix(1.00, 0.00, -0.00, -1.00, 303.0, 543.6)">(</text><text xml:space="preserve" font-family="CourierNewPSMT,Courier New" font-size="30.0" fill="#BE8F00" transform="matrix(1.00, 0.00, -0.00, -1.00, 321.0, 543.6)">1</text><text xml:space="preserve" font-family="CourierNewPSMT,Courier New" font-size="30.0" fill="#BE8F00" transform="matrix(1.00, 0.00, -0.00, -1.00, 339.0, 543.6)">5</text><text xml:space="preserve" font-family="CourierNewPSMT,Courier New" font-size="30.0" fill="#BE8F00" transform="matrix(1.00, 0.00, -0.00, -1.00, 357.1, 543.6)">0</text><text xml:space="preserve" font-family="CourierNewPSMT,Courier New" font-size="30.0" fill="#000000" transform="matrix(1.00, 0.00, -0.00, -1.00, 375.0, 543.6)">,</text><text xml:space="preserve" font-family="CourierNewPSMT,Courier New" font-size="30.0" fill="#000000" transform="matrix(1.00, 0.00, -0.00, -1.00, 393.1, 543.6)"> </text><text xml:space="preserve" font-family="CourierNewPSMT,Courier New" font-size="30.0" fill="#000000" transform="matrix(1.00, 0.00, -0.00, -1.00, 411.1, 543.6)">T</text><text xml:space="preserve" font-family="CourierNewPSMT,Courier New" font-size="30.0" fill="#000000" transform="matrix(1.00, 0.00, -0.00, -1.00, 429.1, 543.6)">i</text><text xml:space="preserve" font-family="CourierNewPSMT,Courier New" font-size="30.0" fill="#000000" transform="matrix(1.00, 0.00, -0.00, -1.00, 447.1, 543.6)">m</text><text xml:space="preserve" font-family="CourierNewPSMT,Courier New" font-size="30.0" fill="#000000" transform="matrix(1.00, 0.00, -0.00, -1.00, 465.1, 543.6)">e</text><text xml:space="preserve" font-family="CourierNewPSMT,Courier New" font-size="30.0" fill="#000000" transform="matrix(1.00, 0.00, -0.00, -1.00, 483.1, 543.6)">U</text><text xml:space="preserve" font-family="CourierNewPSMT,Courier New" font-size="30.0" fill="#000000" transform="matrix(1.00, 0.00, -0.00, -1.00, 501.1, 543.6)">n</text><text xml:space="preserve" font-family="CourierNewPSMT,Courier New" font-size="30.0" fill="#000000" transform="matrix(1.00, 0.00, -0.00, -1.00, 519.1, 543.6)">i</text><text xml:space="preserve" font-family="CourierNewPSMT,Courier New" font-size="30.0" fill="#000000" transform="matrix(1.00, 0.00, -0.00, -1.00, 537.1, 543.6)">t</text><text xml:space="preserve" font-family="CourierNewPSMT,Courier New" font-size="30.0" fill="#000000" transform="matrix(1.00, 0.00, -0.00, -1.00, 555.1, 543.6)">.</text><text xml:space="preserve" font-family="CourierNewPSMT,Courier New" font-size="30.0" fill="#000000" transform="matrix(1.00, 0.00, -0.00, -1.00, 573.1, 543.6)">M</text><text xml:space="preserve" font-family="CourierNewPSMT,Courier New" font-size="30.0" fill="#000000" transform="matrix(1.00, 0.00, -0.00, -1.00, 591.1, 543.6)">I</text><text xml:space="preserve" font-family="CourierNewPSMT,Courier New" font-size="30.0" fill="#000000" transform="matrix(1.00, 0.00, -0.00, -1.00, 609.1, 543.6)">L</text><text xml:space="preserve" font-family="CourierNewPSMT,Courier New" font-size="30.0" fill="#000000" transform="matrix(1.00, 0.00, -0.00, -1.00, 627.1, 543.6)">L</text><text xml:space="preserve" font-family="CourierNewPSMT,Courier New" font-size="30.0" fill="#000000" transform="matrix(1.00, 0.00, -0.00, -1.00, 645.1, 543.6)">I</text><text xml:space="preserve" font-family="CourierNewPSMT,Courier New" font-size="30.0" fill="#000000" transform="matrix(1.00, 0.00, -0.00, -1.00, 663.1, 543.6)">S</text><text xml:space="preserve" font-family="CourierNewPSMT,Courier New" font-size="30.0" fill="#000000" transform="matrix(1.00, 0.00, -0.00, -1.00, 681.2, 543.6)">E</text><text xml:space="preserve" font-family="CourierNewPSMT,Courier New" font-size="30.0" fill="#000000" transform="matrix(1.00, 0.00, -0.00, -1.00, 699.2, 543.6)">C</text><text xml:space="preserve" font-family="CourierNewPSMT,Courier New" font-size="30.0" fill="#000000" transform="matrix(1.00, 0.00, -0.00, -1.00, 717.2, 543.6)">O</text><text xml:space="preserve" font-family="CourierNewPSMT,Courier New" font-size="30.0" fill="#000000" transform="matrix(1.00, 0.00, -0.00, -1.00, 735.2, 543.6)">N</text><text xml:space="preserve" font-family="CourierNewPSMT,Courier New" font-size="30.0" fill="#000000" transform="matrix(1.00, 0.00, -0.00, -1.00, 753.2, 543.6)">D</text><text xml:space="preserve" font-family="CourierNewPSMT,Courier New" font-size="30.0" fill="#000000" transform="matrix(1.00, 0.00, -0.00, -1.00, 771.2, 543.6)">S</text><text xml:space="preserve" font-family="CourierNewPSMT,Courier New" font-size="30.0" fill="#000000" transform="matrix(1.00, 0.00, -0.00, -1.00, 789.2, 543.6)">)</text><text xml:space="preserve" font-family="CourierNewPSMT,Courier New" font-size="30.0" fill="#000000" transform="matrix(1.00, 0.00, -0.00, -1.00, 807.2, 543.6)"> </text><text xml:space="preserve" font-family="CourierNewPSMT,Courier New" font-size="30.0" fill="#000000" transform="matrix(1.00, 0.00, -0.00, -1.00, 69.0, 509.6)"> </text><text xml:space="preserve" font-family="CourierNewPSMT,Courier New" font-size="30.0" fill="#000000" transform="matrix(1.00, 0.00, -0.00, -1.00, 87.0, 509.6)"> </text><text xml:space="preserve" font-family="CourierNewPSMT,Courier New" font-size="30.0" fill="#000000" transform="matrix(1.00, 0.00, -0.00, -1.00, 105.0, 509.6)"> </text><text xml:space="preserve" font-family="CourierNewPSMT,Courier New" font-size="30.0" fill="#000000" transform="matrix(1.00, 0.00, -0.00, -1.00, 123.0, 509.6)"> </text><text xml:space="preserve" font-family="CourierNewPSMT,Courier New" font-size="30.0" fill="#000000" transform="matrix(1.00, 0.00, -0.00, -1.00, 141.0, 509.6)">.</text><text xml:space="preserve" font-family="CourierNewPSMT,Courier New" font-size="30.0" fill="#021993" transform="matrix(1.00, 0.00, -0.00, -1.00, 159.0, 509.6)">b</text><text xml:space="preserve" font-family="CourierNewPSMT,Courier New" font-size="30.0" fill="#021993" transform="matrix(1.00, 0.00, -0.00, -1.00, 177.0, 509.6)">u</text><text xml:space="preserve" font-family="CourierNewPSMT,Courier New" font-size="30.0" fill="#021993" transform="matrix(1.00, 0.00, -0.00, -1.00, 195.0, 509.6)">f</text><text xml:space="preserve" font-family="CourierNewPSMT,Courier New" font-size="30.0" fill="#021993" transform="matrix(1.00, 0.00, -0.00, -1.00, 213.0, 509.6)">f</text><text xml:space="preserve" font-family="CourierNewPSMT,Courier New" font-size="30.0" fill="#021993" transform="matrix(1.00, 0.00, -0.00, -1.00, 231.0, 509.6)">e</text><text xml:space="preserve" font-family="CourierNewPSMT,Courier New" font-size="30.0" fill="#021993" transform="matrix(1.00, 0.00, -0.00, -1.00, 249.0, 509.6)">r</text><text xml:space="preserve" font-family="CourierNewPSMT,Courier New" font-size="30.0" fill="#000000" transform="matrix(1.00, 0.00, -0.00, -1.00, 267.0, 509.6)">(</text><text xml:space="preserve" font-family="CourierNewPSMT,Courier New" font-size="30.0" fill="#BE8F00" transform="matrix(1.00, 0.00, -0.00, -1.00, 285.0, 509.6)">4</text><text xml:space="preserve" font-family="CourierNewPSMT,Courier New" font-size="30.0" fill="#BE8F00" transform="matrix(1.00, 0.00, -0.00, -1.00, 303.0, 509.6)">0</text><text xml:space="preserve" font-family="CourierNewPSMT,Courier New" font-size="30.0" fill="#BE8F00" transform="matrix(1.00, 0.00, -0.00, -1.00, 321.0, 509.6)">0</text><text xml:space="preserve" font-family="CourierNewPSMT,Courier New" font-size="30.0" fill="#000000" transform="matrix(1.00, 0.00, -0.00, -1.00, 339.0, 509.6)">,</text><text xml:space="preserve" font-family="CourierNewPSMT,Courier New" font-size="30.0" fill="#000000" transform="matrix(1.00, 0.00, -0.00, -1.00, 357.0, 509.6)"> </text><text xml:space="preserve" font-family="CourierNewPSMT,Courier New" font-size="30.0" fill="#000000" transform="matrix(1.00, 0.00, -0.00, -1.00, 375.1, 509.6)">T</text><text xml:space="preserve" font-family="CourierNewPSMT,Courier New" font-size="30.0" fill="#000000" transform="matrix(1.00, 0.00, -0.00, -1.00, 393.1, 509.6)">i</text><text xml:space="preserve" font-family="CourierNewPSMT,Courier New" font-size="30.0" fill="#000000" transform="matrix(1.00, 0.00, -0.00, -1.00, 411.1, 509.6)">m</text><text xml:space="preserve" font-family="CourierNewPSMT,Courier New" font-size="30.0" fill="#000000" transform="matrix(1.00, 0.00, -0.00, -1.00, 429.1, 509.6)">e</text><text xml:space="preserve" font-family="CourierNewPSMT,Courier New" font-size="30.0" fill="#000000" transform="matrix(1.00, 0.00, -0.00, -1.00, 447.1, 509.6)">U</text><text xml:space="preserve" font-family="CourierNewPSMT,Courier New" font-size="30.0" fill="#000000" transform="matrix(1.00, 0.00, -0.00, -1.00, 465.1, 509.6)">n</text><text xml:space="preserve" font-family="CourierNewPSMT,Courier New" font-size="30.0" fill="#000000" transform="matrix(1.00, 0.00, -0.00, -1.00, 483.1, 509.6)">i</text><text xml:space="preserve" font-family="CourierNewPSMT,Courier New" font-size="30.0" fill="#000000" transform="matrix(1.00, 0.00, -0.00, -1.00, 501.1, 509.6)">t</text><text xml:space="preserve" font-family="CourierNewPSMT,Courier New" font-size="30.0" fill="#000000" transform="matrix(1.00, 0.00, -0.00, -1.00, 519.1, 509.6)">.</text><text xml:space="preserve" font-family="CourierNewPSMT,Courier New" font-size="30.0" fill="#000000" transform="matrix(1.00, 0.00, -0.00, -1.00, 537.1, 509.6)">M</text><text xml:space="preserve" font-family="CourierNewPSMT,Courier New" font-size="30.0" fill="#000000" transform="matrix(1.00, 0.00, -0.00, -1.00, 555.1, 509.6)">I</text><text xml:space="preserve" font-family="CourierNewPSMT,Courier New" font-size="30.0" fill="#000000" transform="matrix(1.00, 0.00, -0.00, -1.00, 573.1, 509.6)">L</text><text xml:space="preserve" font-family="CourierNewPSMT,Courier New" font-size="30.0" fill="#000000" transform="matrix(1.00, 0.00, -0.00, -1.00, 591.1, 509.6)">L</text><text xml:space="preserve" font-family="CourierNewPSMT,Courier New" font-size="30.0" fill="#000000" transform="matrix(1.00, 0.00, -0.00, -1.00, 609.1, 509.6)">I</text><text xml:space="preserve" font-family="CourierNewPSMT,Courier New" font-size="30.0" fill="#000000" transform="matrix(1.00, 0.00, -0.00, -1.00, 627.1, 509.6)">S</text><text xml:space="preserve" font-family="CourierNewPSMT,Courier New" font-size="30.0" fill="#000000" transform="matrix(1.00, 0.00, -0.00, -1.00, 645.1, 509.6)">E</text><text xml:space="preserve" font-family="CourierNewPSMT,Courier New" font-size="30.0" fill="#000000" transform="matrix(1.00, 0.00, -0.00, -1.00, 663.2, 509.6)">C</text><text xml:space="preserve" font-family="CourierNewPSMT,Courier New" font-size="30.0" fill="#000000" transform="matrix(1.00, 0.00, -0.00, -1.00, 681.2, 509.6)">O</text><text xml:space="preserve" font-family="CourierNewPSMT,Courier New" font-size="30.0" fill="#000000" transform="matrix(1.00, 0.00, -0.00, -1.00, 699.2, 509.6)">N</text><text xml:space="preserve" font-family="CourierNewPSMT,Courier New" font-size="30.0" fill="#000000" transform="matrix(1.00, 0.00, -0.00, -1.00, 717.2, 509.6)">D</text><text xml:space="preserve" font-family="CourierNewPSMT,Courier New" font-size="30.0" fill="#000000" transform="matrix(1.00, 0.00, -0.00, -1.00, 735.2, 509.6)">S</text><text xml:space="preserve" font-family="CourierNewPSMT,Courier New" font-size="30.0" fill="#000000" transform="matrix(1.00, 0.00, -0.00, -1.00, 753.2, 509.6)">)</text><text xml:space="preserve" font-family="CourierNewPSMT,Courier New" font-size="30.0" fill="#000000" transform="matrix(1.00, 0.00, -0.00, -1.00, 771.2, 509.6)"> </text><text xml:space="preserve" font-family="CourierNewPSMT,Courier New" font-size="30.0" fill="#000000" transform="matrix(1.00, 0.00, -0.00, -1.00, 69.0, 475.6)"> </text><text xml:space="preserve" font-family="CourierNewPSMT,Courier New" font-size="30.0" fill="#000000" transform="matrix(1.00, 0.00, -0.00, -1.00, 87.0, 475.6)"> </text><text xml:space="preserve" font-family="CourierNewPSMT,Courier New" font-size="30.0" fill="#000000" transform="matrix(1.00, 0.00, -0.00, -1.00, 105.0, 475.6)"> </text><text xml:space="preserve" font-family="CourierNewPSMT,Courier New" font-size="30.0" fill="#000000" transform="matrix(1.00, 0.00, -0.00, -1.00, 123.0, 475.6)"> </text><text xml:space="preserve" font-family="CourierNewPSMT,Courier New" font-size="30.0" fill="#000000" transform="matrix(1.00, 0.00, -0.00, -1.00, 141.0, 475.6)">.</text><text xml:space="preserve" font-family="CourierNewPSMT,Courier New" font-size="30.0" fill="#021993" transform="matrix(1.00, 0.00, -0.00, -1.00, 159.0, 475.6)">s</text><text xml:space="preserve" font-family="CourierNewPSMT,Courier New" font-size="30.0" fill="#021993" transform="matrix(1.00, 0.00, -0.00, -1.00, 177.0, 475.6)">u</text><text xml:space="preserve" font-family="CourierNewPSMT,Courier New" font-size="30.0" fill="#021993" transform="matrix(1.00, 0.00, -0.00, -1.00, 195.0, 475.6)">b</text><text xml:space="preserve" font-family="CourierNewPSMT,Courier New" font-size="30.0" fill="#021993" transform="matrix(1.00, 0.00, -0.00, -1.00, 213.0, 475.6)">s</text><text xml:space="preserve" font-family="CourierNewPSMT,Courier New" font-size="30.0" fill="#021993" transform="matrix(1.00, 0.00, -0.00, -1.00, 231.0, 475.6)">c</text><text xml:space="preserve" font-family="CourierNewPSMT,Courier New" font-size="30.0" fill="#021993" transform="matrix(1.00, 0.00, -0.00, -1.00, 249.0, 475.6)">r</text><text xml:space="preserve" font-family="CourierNewPSMT,Courier New" font-size="30.0" fill="#021993" transform="matrix(1.00, 0.00, -0.00, -1.00, 267.1, 475.6)">i</text><text xml:space="preserve" font-family="CourierNewPSMT,Courier New" font-size="30.0" fill="#021993" transform="matrix(1.00, 0.00, -0.00, -1.00, 285.1, 475.6)">b</text><text xml:space="preserve" font-family="CourierNewPSMT,Courier New" font-size="30.0" fill="#021993" transform="matrix(1.00, 0.00, -0.00, -1.00, 303.1, 475.6)">e</text><text xml:space="preserve" font-family="CourierNewPSMT,Courier New" font-size="30.0" fill="#000000" transform="matrix(1.00, 0.00, -0.00, -1.00, 321.0, 475.6)">(</text><text xml:space="preserve" font-family="CourierNewPSMT,Courier New" font-size="30.0" fill="#000000" transform="matrix(1.00, 0.00, -0.00, -1.00, 339.0, 475.6)">S</text><text xml:space="preserve" font-family="CourierNewPSMT,Courier New" font-size="30.0" fill="#000000" transform="matrix(1.00, 0.00, -0.00, -1.00, 357.1, 475.6)">y</text><text xml:space="preserve" font-family="CourierNewPSMT,Courier New" font-size="30.0" fill="#000000" transform="matrix(1.00, 0.00, -0.00, -1.00, 375.1, 475.6)">s</text><text xml:space="preserve" font-family="CourierNewPSMT,Courier New" font-size="30.0" fill="#000000" transform="matrix(1.00, 0.00, -0.00, -1.00, 393.1, 475.6)">t</text><text xml:space="preserve" font-family="CourierNewPSMT,Courier New" font-size="30.0" fill="#000000" transform="matrix(1.00, 0.00, -0.00, -1.00, 411.1, 475.6)">e</text><text xml:space="preserve" font-family="CourierNewPSMT,Courier New" font-size="30.0" fill="#000000" transform="matrix(1.00, 0.00, -0.00, -1.00, 429.1, 475.6)">m</text><text xml:space="preserve" font-family="CourierNewPSMT,Courier New" font-size="30.0" fill="#000000" transform="matrix(1.00, 0.00, -0.00, -1.00, 447.1, 475.6)">.</text><text xml:space="preserve" font-family="CourierNewPSMT,Courier New" font-size="30.0" fill="#000000" transform="matrix(1.00, 0.00, -0.00, -1.00, 465.1, 475.6)">o</text><text xml:space="preserve" font-family="CourierNewPSMT,Courier New" font-size="30.0" fill="#000000" transform="matrix(1.00, 0.00, -0.00, -1.00, 483.1, 475.6)">u</text><text xml:space="preserve" font-family="CourierNewPSMT,Courier New" font-size="30.0" fill="#000000" transform="matrix(1.00, 0.00, -0.00, -1.00, 501.1, 475.6)">t</text><text xml:space="preserve" font-family="CourierNewPSMT,Courier New" font-size="30.0" fill="#000000" transform="matrix(1.00, 0.00, -0.00, -1.00, 519.1, 475.6)">:</text><text xml:space="preserve" font-family="CourierNewPSMT,Courier New" font-size="30.0" fill="#000000" transform="matrix(1.00, 0.00, -0.00, -1.00, 537.1, 475.6)">:</text><text xml:space="preserve" font-family="CourierNewPSMT,Courier New" font-size="30.0" fill="#000000" transform="matrix(1.00, 0.00, -0.00, -1.00, 555.1, 475.6)">p</text><text xml:space="preserve" font-family="CourierNewPSMT,Courier New" font-size="30.0" fill="#000000" transform="matrix(1.00, 0.00, -0.00, -1.00, 573.1, 475.6)">r</text><text xml:space="preserve" font-family="CourierNewPSMT,Courier New" font-size="30.0" fill="#000000" transform="matrix(1.00, 0.00, -0.00, -1.00, 591.1, 475.6)">i</text><text xml:space="preserve" font-family="CourierNewPSMT,Courier New" font-size="30.0" fill="#000000" transform="matrix(1.00, 0.00, -0.00, -1.00, 609.1, 475.6)">n</text><text xml:space="preserve" font-family="CourierNewPSMT,Courier New" font-size="30.0" fill="#000000" transform="matrix(1.00, 0.00, -0.00, -1.00, 627.1, 475.6)">t</text><text xml:space="preserve" font-family="CourierNewPSMT,Courier New" font-size="30.0" fill="#000000" transform="matrix(1.00, 0.00, -0.00, -1.00, 645.1, 475.6)">)</text><text xml:space="preserve" font-family="CourierNewPSMT,Courier New" font-size="30.0" fill="#000000" transform="matrix(1.00, 0.00, -0.00, -1.00, 663.2, 475.6)">;</text><g opacity="0.15"><g><clipPath id="clip0x608001ea6300"><path d="M 126.0 491.0 L 834.0 491.0 L 834.0 542.0 L 126.0 542.0 Z M 126.0 491.0 "></path></clipPath><g clip-path="url(#clip0x608001ea6300)"><path d="M 127.2 516.7 L 127.2 516.7 C 127.2 529.9 137.8 540.0 150.9 540.0 L 808.5 540.0 C 821.7 540.0 832.3 529.9 832.3 516.7 L 832.3 516.7 C 832.3 503.6 821.7 493.0 808.5 493.0 L 150.9 493.0 C 137.8 493.0 127.2 503.6 127.2 516.7 Z M 127.2 516.7 " fill="#7F8685"></path></g></g></g><text xml:space="preserve" font-family="GillSans-Light,Gill Sans" font-size="72.0" fill="#525252" transform="matrix(1.00, 0.00, -0.00, -1.00, 397.9, 628.0)">B</text><text xml:space="preserve" font-family="GillSans-Light,Gill Sans" font-size="72.0" fill="#525252" transform="matrix(1.00, 0.00, -0.00, -1.00, 436.1, 628.0)">U</text><text xml:space="preserve" font-family="GillSans-Light,Gill Sans" font-size="72.0" fill="#525252" transform="matrix(1.00, 0.00, -0.00, -1.00, 486.4, 628.0)">F</text><text xml:space="preserve" font-family="GillSans-Light,Gill Sans" font-size="72.0" fill="#525252" transform="matrix(1.00, 0.00, -0.00, -1.00, 518.0, 628.0)">F</text><text xml:space="preserve" font-family="GillSans-Light,Gill Sans" font-size="72.0" fill="#525252" transform="matrix(1.00, 0.00, -0.00, -1.00, 549.5, 628.0)">E</text><text xml:space="preserve" font-family="GillSans-Light,Gill Sans" font-size="72.0" fill="#525252" transform="matrix(1.00, 0.00, -0.00, -1.00, 584.8, 628.0)">R</text></g></svg>