<?xml version="1.0" encoding="UTF-8" standalone="no"?><svg xmlns="http://www.w3.org/2000/svg" xmlns:xlink="http://www.w3.org/1999/xlink" clip-rule="evenodd" stroke-miterlimit="10" viewBox="0 0 209 144"><desc>SVG generated by Keynote</desc><defs></defs><g transform="matrix(1.00, 0.00, -0.00, -1.00, 0.0, 144.0)"><g><clipPath id="clip0x600001cbeae0"><path d="M 106.1 0.5 L 208.1 0.5 L 208.1 143.5 L 106.1 143.5 Z M 106.1 0.5 "></path></clipPath><g clip-path="url(#clip0x600001cbeae0)"><path d="M 107.1 57.5 L 107.0 127.5 C 107.0 135.8 113.8 142.0 122.1 142.0 L 192.1 142.0 C 200.4 142.0 207.0 135.8 207.0 127.5 L 207.0 57.5 C 207.0 49.2 200.4 42.0 192.1 42.0 L 122.1 42.0 C 113.8 42.0 107.1 49.2 107.1 57.5 Z M 107.1 57.5 " fill="#AA1802"></path><image xlink:href="401D0E7FD57B85F6AD620DAE5E02DE74.png" width="417.00" height="171.00" transform="matrix(0.24, 0.00, -0.00, -0.24, 107.1, 42.5)"></image></g></g><g><clipPath id="clip0x600001cbf020"><path d="M 100.9 42.5 L 213.3 42.5 L 213.3 142.5 L 100.9 142.5 Z M 100.9 42.5 "></path></clipPath><g clip-path="url(#clip0x600001cbf020)"><text xml:space="preserve" font-family="GillSans-Light,Gill Sans" font-size="36.0" fill="#FEFFFF" transform="matrix(1.00, 0.00, -0.00, -1.00, 148.1, 91.7)">1</text><text xml:space="preserve" font-family="GillSans-Light,Gill Sans" font-size="20.0" fill="#FEFFFF" transform="matrix(1.00, 0.00, -0.00, -1.00, 124.2, 64.9)">(</text><text xml:space="preserve" font-family="GillSans-Light,Gill Sans" font-size="20.0" fill="#FEFFFF" transform="matrix(1.00, 0.00, -0.00, -1.00, 130.9, 64.9)">3</text><text xml:space="preserve" font-family="GillSans-Light,Gill Sans" font-size="20.0" fill="#FEFFFF" transform="matrix(1.00, 0.00, -0.00, -1.00, 140.9, 64.9)">0</text><text xml:space="preserve" font-family="GillSans-Light,Gill Sans" font-size="20.0" fill="#FEFFFF" transform="matrix(1.00, 0.00, -0.00, -1.00, 150.9, 64.9)">0</text><text xml:space="preserve" font-family="GillSans-Light,Gill Sans" font-size="20.0" fill="#FEFFFF" transform="matrix(1.00, 0.00, -0.00, -1.00, 160.9, 64.9)">m</text><text xml:space="preserve" font-family="GillSans-Light,Gill Sans" font-size="20.0" fill="#FEFFFF" transform="matrix(1.00, 0.00, -0.00, -1.00, 176.3, 64.9)">s</text><text xml:space="preserve" font-family="GillSans-Light,Gill Sans" font-size="20.0" fill="#FEFFFF" transform="matrix(1.00, 0.00, -0.00, -1.00, 183.4, 64.9)">)</text></g></g><g><clipPath id="clip0x600001cbf680"><path d="M 0.1 86.7 L 108.1 86.7 L 108.1 98.3 L 0.1 98.3 Z M 0.1 86.7 "></path></clipPath><g clip-path="url(#clip0x600001cbf680)"><path d="M 0.0 0.0 C 32.1 0.0 64.3 0.5 96.4 0.5 L 97.9 0.5 " fill="none" stroke="#595E5D" stroke-width="2.00" transform="matrix(1.00, 0.00, 0.00, -1.00, 1.1, 92.5)"></path><path d="M 98.0 87.2 L 107.6 92.0 L 98.0 96.8 Z M 98.0 87.2 " fill="#595E5D"></path></g></g></g></svg>