<?xml version="1.0" encoding="UTF-8" standalone="no"?><svg xmlns="http://www.w3.org/2000/svg" xmlns:xlink="http://www.w3.org/1999/xlink" clip-rule="evenodd" stroke-miterlimit="10" viewBox="0 0 1024 768"><desc>SVG generated by Keynote</desc><defs></defs><g transform="matrix(1.00, 0.00, -0.00, -1.00, 0.0, 768.0)"><g><clipPath id="clip0x600001ea5b80"><path d="M 0.0 768.0 L 1024.0 768.0 L 1024.0 0.0 L 0.0 0.0 Z M 0.0 768.0 "></path></clipPath><g clip-path="url(#clip0x600001ea5b80)"><image xlink:href="../../14475E20-3AC1-427A-883A-B77C5AE27FDA/assets/574DCE55A4CF432400CBDDDE1DFDFC9B.jpeg" width="2048.00" height="1536.00" transform="matrix(0.50, 0.00, -0.00, -0.50, 0.0, 768.0)"></image></g></g><g><clipPath id="clip0x600001ea5be0"><path d="M 722.6 167.5 L 824.6 167.5 L 824.6 310.5 L 722.6 310.5 Z M 722.6 167.5 "></path></clipPath><g clip-path="url(#clip0x600001ea5be0)"><path d="M 723.6 224.5 L 724.0 294.5 C 724.0 302.8 730.3 309.0 738.6 309.0 L 808.6 309.0 C 816.9 309.0 824.0 302.8 824.0 294.5 L 824.0 224.5 C 824.0 216.2 816.9 209.0 808.6 209.0 L 738.6 209.0 C 730.3 209.0 723.6 216.2 723.6 224.5 Z M 723.6 224.5 " fill="#AA1802"></path><image xlink:href="../../A6145DF7-A85D-40E2-9540-0C27EBE590D6/assets/85BEDF2530A60865677D61EE3857BB47.png" width="417.00" height="171.00" transform="matrix(0.24, 0.00, -0.00, -0.24, 723.6, 209.5)"></image></g></g><g><clipPath id="clip0x600001ea5940"><path d="M 717.4 209.5 L 829.8 209.5 L 829.8 309.5 L 717.4 309.5 Z M 717.4 209.5 "></path></clipPath><g clip-path="url(#clip0x600001ea5940)"><text xml:space="preserve" font-family="GillSans-Light,Gill Sans" font-size="36.0" fill="#FEFFFF" transform="matrix(1.00, 0.00, -0.00, -1.00, 764.6, 258.7)">5</text><text xml:space="preserve" font-family="GillSans-Light,Gill Sans" font-size="20.0" fill="#FEFFFF" transform="matrix(1.00, 0.00, -0.00, -1.00, 740.7, 231.9)">(</text><text xml:space="preserve" font-family="GillSans-Light,Gill Sans" font-size="20.0" fill="#FEFFFF" transform="matrix(1.00, 0.00, -0.00, -1.00, 747.4, 231.9)">9</text><text xml:space="preserve" font-family="GillSans-Light,Gill Sans" font-size="20.0" fill="#FEFFFF" transform="matrix(1.00, 0.00, -0.00, -1.00, 757.4, 231.9)">0</text><text xml:space="preserve" font-family="GillSans-Light,Gill Sans" font-size="20.0" fill="#FEFFFF" transform="matrix(1.00, 0.00, -0.00, -1.00, 767.4, 231.9)">0</text><text xml:space="preserve" font-family="GillSans-Light,Gill Sans" font-size="20.0" fill="#FEFFFF" transform="matrix(1.00, 0.00, -0.00, -1.00, 777.4, 231.9)">m</text><text xml:space="preserve" font-family="GillSans-Light,Gill Sans" font-size="20.0" fill="#FEFFFF" transform="matrix(1.00, 0.00, -0.00, -1.00, 792.8, 231.9)">s</text><text xml:space="preserve" font-family="GillSans-Light,Gill Sans" font-size="20.0" fill="#FEFFFF" transform="matrix(1.00, 0.00, -0.00, -1.00, 799.9, 231.9)">)</text></g></g><g><clipPath id="clip0x600001ea6120"><path d="M 616.6 253.7 L 724.6 253.7 L 724.6 265.3 L 616.6 265.3 Z M 616.6 253.7 "></path></clipPath><g clip-path="url(#clip0x600001ea6120)"><path d="M 0.0 0.0 C 32.1 0.0 64.3 0.5 96.4 0.5 L 97.4 0.5 " fill="none" stroke="#595E5D" stroke-width="2.00" transform="matrix(1.00, 0.00, 0.00, -1.00, 617.6, 259.5)"></path><path d="M 714.0 254.2 L 723.6 259.0 L 714.0 263.8 Z M 714.0 254.2 " fill="#595E5D"></path></g></g><g><clipPath id="clip0x600001ea6420"><path d="M 837.0 210.0 L 855.4 210.0 L 855.4 229.5 L 837.0 229.5 Z M 837.0 210.0 "></path></clipPath><g clip-path="url(#clip0x600001ea6420)"><path d="M 852.0 225.9 C 855.2 222.5 855.2 217.0 852.0 213.6 C 848.8 210.1 843.6 210.1 840.4 213.6 C 837.2 217.0 837.2 222.5 840.4 225.9 C 843.6 229.4 848.8 229.4 852.0 225.9 Z M 852.0 225.9 " fill="#AA1802"></path></g></g><g><clipPath id="clip0x600001ea6660"><path d="M 860.0 209.5 L 878.4 209.5 L 878.4 229.0 L 860.0 229.0 Z M 860.0 209.5 "></path></clipPath><g clip-path="url(#clip0x600001ea6660)"><path d="M 875.0 225.4 C 878.2 222.0 878.2 216.5 875.0 213.1 C 871.8 209.6 866.6 209.6 863.4 213.1 C 860.2 216.5 860.2 222.0 863.4 225.4 C 866.6 228.9 871.8 228.9 875.0 225.4 Z M 875.0 225.4 " fill="#AA1802"></path></g></g><g><clipPath id="clip0x600001ea68a0"><path d="M 883.0 209.0 L 901.4 209.0 L 901.4 228.5 L 883.0 228.5 Z M 883.0 209.0 "></path></clipPath><g clip-path="url(#clip0x600001ea68a0)"><path d="M 898.0 224.9 C 901.2 221.5 901.2 216.0 898.0 212.6 C 894.8 209.1 889.6 209.1 886.4 212.6 C 883.2 216.0 883.2 221.5 886.4 224.9 C 889.6 228.4 894.8 228.4 898.0 224.9 Z M 898.0 224.9 " fill="#AA1802"></path></g></g><g><clipPath id="clip0x600001ea6ae0"><path d="M 591.5 167.5 L 693.5 167.5 L 693.5 310.5 L 591.5 310.5 Z M 591.5 167.5 "></path></clipPath><g clip-path="url(#clip0x600001ea6ae0)"><path d="M 592.5 224.5 L 592.0 294.5 C 592.0 302.8 599.2 309.0 607.5 309.0 L 677.5 309.0 C 685.8 309.0 692.0 302.8 692.0 294.5 L 692.0 224.5 C 692.0 216.2 685.8 209.0 677.5 209.0 L 607.5 209.0 C 599.2 209.0 592.5 216.2 592.5 224.5 Z M 592.5 224.5 " fill="#AA1802"></path><image xlink:href="../../A6145DF7-A85D-40E2-9540-0C27EBE590D6/assets/02513E26E6D15DCE8474C4F25859D517.png" width="417.00" height="171.00" transform="matrix(0.24, 0.00, -0.00, -0.24, 592.5, 209.5)"></image></g></g><g><clipPath id="clip0x608001cbabe0"><path d="M 586.3 209.5 L 698.7 209.5 L 698.7 309.5 L 586.3 309.5 Z M 586.3 209.5 "></path></clipPath><g clip-path="url(#clip0x608001cbabe0)"><text xml:space="preserve" font-family="GillSans-Light,Gill Sans" font-size="36.0" fill="#FEFFFF" transform="matrix(1.00, 0.00, -0.00, -1.00, 633.5, 258.7)">4</text><text xml:space="preserve" font-family="GillSans-Light,Gill Sans" font-size="20.0" fill="#FEFFFF" transform="matrix(1.00, 0.00, -0.00, -1.00, 609.6, 231.9)">(</text><text xml:space="preserve" font-family="GillSans-Light,Gill Sans" font-size="20.0" fill="#FEFFFF" transform="matrix(1.00, 0.00, -0.00, -1.00, 616.2, 231.9)">7</text><text xml:space="preserve" font-family="GillSans-Light,Gill Sans" font-size="20.0" fill="#FEFFFF" transform="matrix(1.00, 0.00, -0.00, -1.00, 626.2, 231.9)">5</text><text xml:space="preserve" font-family="GillSans-Light,Gill Sans" font-size="20.0" fill="#FEFFFF" transform="matrix(1.00, 0.00, -0.00, -1.00, 636.2, 231.9)">0</text><text xml:space="preserve" font-family="GillSans-Light,Gill Sans" font-size="20.0" fill="#FEFFFF" transform="matrix(1.00, 0.00, -0.00, -1.00, 646.2, 231.9)">m</text><text xml:space="preserve" font-family="GillSans-Light,Gill Sans" font-size="20.0" fill="#FEFFFF" transform="matrix(1.00, 0.00, -0.00, -1.00, 661.7, 231.9)">s</text><text xml:space="preserve" font-family="GillSans-Light,Gill Sans" font-size="20.0" fill="#FEFFFF" transform="matrix(1.00, 0.00, -0.00, -1.00, 668.7, 231.9)">)</text></g></g><g><clipPath id="clip0x608001cbb0c0"><path d="M 485.5 253.7 L 593.5 253.7 L 593.5 265.3 L 485.5 265.3 Z M 485.5 253.7 "></path></clipPath><g clip-path="url(#clip0x608001cbb0c0)"><path d="M 0.0 0.0 C 32.1 0.0 64.3 0.5 96.4 0.5 L 97.5 0.5 " fill="none" stroke="#595E5D" stroke-width="2.00" transform="matrix(1.00, 0.00, 0.00, -1.00, 486.5, 259.5)"></path><path d="M 583.0 254.2 L 592.6 259.0 L 583.0 263.8 Z M 583.0 254.2 " fill="#595E5D"></path></g></g><g><clipPath id="clip0x608001cbb480"><path d="M 460.4 167.5 L 562.4 167.5 L 562.4 310.5 L 460.4 310.5 Z M 460.4 167.5 "></path></clipPath><g clip-path="url(#clip0x608001cbb480)"><path d="M 461.4 224.5 L 461.0 294.5 C 461.0 302.8 468.1 309.0 476.4 309.0 L 546.4 309.0 C 554.7 309.0 561.0 302.8 561.0 294.5 L 561.0 224.5 C 561.0 216.2 554.7 209.0 546.4 209.0 L 476.4 209.0 C 468.1 209.0 461.4 216.2 461.4 224.5 Z M 461.4 224.5 " fill="#AA1802"></path><image xlink:href="../../A6145DF7-A85D-40E2-9540-0C27EBE590D6/assets/E226055292B59D9F3C02D5C0897418A4.png" width="417.00" height="171.00" transform="matrix(0.24, 0.00, -0.00, -0.24, 461.4, 209.5)"></image></g></g><g><clipPath id="clip0x600001ea6c00"><path d="M 455.1 209.5 L 567.6 209.5 L 567.6 309.5 L 455.1 309.5 Z M 455.1 209.5 "></path></clipPath><g clip-path="url(#clip0x600001ea6c00)"><text xml:space="preserve" font-family="GillSans-Light,Gill Sans" font-size="36.0" fill="#FEFFFF" transform="matrix(1.00, 0.00, -0.00, -1.00, 502.4, 258.7)">3</text><text xml:space="preserve" font-family="GillSans-Light,Gill Sans" font-size="20.0" fill="#FEFFFF" transform="matrix(1.00, 0.00, -0.00, -1.00, 478.5, 231.9)">(</text><text xml:space="preserve" font-family="GillSans-Light,Gill Sans" font-size="20.0" fill="#FEFFFF" transform="matrix(1.00, 0.00, -0.00, -1.00, 485.1, 231.9)">6</text><text xml:space="preserve" font-family="GillSans-Light,Gill Sans" font-size="20.0" fill="#FEFFFF" transform="matrix(1.00, 0.00, -0.00, -1.00, 495.1, 231.9)">0</text><text xml:space="preserve" font-family="GillSans-Light,Gill Sans" font-size="20.0" fill="#FEFFFF" transform="matrix(1.00, 0.00, -0.00, -1.00, 505.1, 231.9)">0</text><text xml:space="preserve" font-family="GillSans-Light,Gill Sans" font-size="20.0" fill="#FEFFFF" transform="matrix(1.00, 0.00, -0.00, -1.00, 515.1, 231.9)">m</text><text xml:space="preserve" font-family="GillSans-Light,Gill Sans" font-size="20.0" fill="#FEFFFF" transform="matrix(1.00, 0.00, -0.00, -1.00, 530.5, 231.9)">s</text><text xml:space="preserve" font-family="GillSans-Light,Gill Sans" font-size="20.0" fill="#FEFFFF" transform="matrix(1.00, 0.00, -0.00, -1.00, 537.6, 231.9)">)</text></g></g><g><clipPath id="clip0x600001ea72c0"><path d="M 354.4 253.7 L 462.4 253.7 L 462.4 265.3 L 354.4 265.3 Z M 354.4 253.7 "></path></clipPath><g clip-path="url(#clip0x600001ea72c0)"><path d="M 0.0 0.0 C 32.1 0.0 64.3 0.5 96.4 0.5 L 97.6 0.5 " fill="none" stroke="#595E5D" stroke-width="2.00" transform="matrix(1.00, 0.00, 0.00, -1.00, 355.4, 259.5)"></path><path d="M 452.0 254.2 L 461.6 259.0 L 452.0 263.8 Z M 452.0 254.2 " fill="#595E5D"></path></g></g><text xml:space="preserve" font-family="CourierNewPSMT,Courier New" font-size="30.0" fill="#000000" transform="matrix(1.00, 0.00, -0.00, -1.00, 69.0, 577.6)">O</text><text xml:space="preserve" font-family="CourierNewPSMT,Courier New" font-size="30.0" fill="#000000" transform="matrix(1.00, 0.00, -0.00, -1.00, 87.0, 577.6)">b</text><text xml:space="preserve" font-family="CourierNewPSMT,Courier New" font-size="30.0" fill="#000000" transform="matrix(1.00, 0.00, -0.00, -1.00, 105.0, 577.6)">s</text><text xml:space="preserve" font-family="CourierNewPSMT,Courier New" font-size="30.0" fill="#000000" transform="matrix(1.00, 0.00, -0.00, -1.00, 123.0, 577.6)">e</text><text xml:space="preserve" font-family="CourierNewPSMT,Courier New" font-size="30.0" fill="#000000" transform="matrix(1.00, 0.00, -0.00, -1.00, 141.0, 577.6)">r</text><text xml:space="preserve" font-family="CourierNewPSMT,Courier New" font-size="30.0" fill="#000000" transform="matrix(1.00, 0.00, -0.00, -1.00, 159.0, 577.6)">v</text><text xml:space="preserve" font-family="CourierNewPSMT,Courier New" font-size="30.0" fill="#000000" transform="matrix(1.00, 0.00, -0.00, -1.00, 177.0, 577.6)">a</text><text xml:space="preserve" font-family="CourierNewPSMT,Courier New" font-size="30.0" fill="#000000" transform="matrix(1.00, 0.00, -0.00, -1.00, 195.0, 577.6)">b</text><text xml:space="preserve" font-family="CourierNewPSMT,Courier New" font-size="30.0" fill="#000000" transform="matrix(1.00, 0.00, -0.00, -1.00, 213.0, 577.6)">l</text><text xml:space="preserve" font-family="CourierNewPSMT,Courier New" font-size="30.0" fill="#000000" transform="matrix(1.00, 0.00, -0.00, -1.00, 231.1, 577.6)">e</text><text xml:space="preserve" font-family="CourierNewPSMT,Courier New" font-size="30.0" fill="#000000" transform="matrix(1.00, 0.00, -0.00, -1.00, 249.1, 577.6)"> </text><text xml:space="preserve" font-family="CourierNewPSMT,Courier New" font-size="30.0" fill="#000000" transform="matrix(1.00, 0.00, -0.00, -1.00, 69.0, 543.6)"> </text><text xml:space="preserve" font-family="CourierNewPSMT,Courier New" font-size="30.0" fill="#000000" transform="matrix(1.00, 0.00, -0.00, -1.00, 87.0, 543.6)"> </text><text xml:space="preserve" font-family="CourierNewPSMT,Courier New" font-size="30.0" fill="#000000" transform="matrix(1.00, 0.00, -0.00, -1.00, 105.0, 543.6)"> </text><text xml:space="preserve" font-family="CourierNewPSMT,Courier New" font-size="30.0" fill="#000000" transform="matrix(1.00, 0.00, -0.00, -1.00, 123.0, 543.6)"> </text><text xml:space="preserve" font-family="CourierNewPSMT,Courier New" font-size="30.0" fill="#000000" transform="matrix(1.00, 0.00, -0.00, -1.00, 141.0, 543.6)">.</text><text xml:space="preserve" font-family="CourierNewPSMT,Courier New" font-size="30.0" fill="#021993" transform="matrix(1.00, 0.00, -0.00, -1.00, 159.0, 543.6)">i</text><text xml:space="preserve" font-family="CourierNewPSMT,Courier New" font-size="30.0" fill="#021993" transform="matrix(1.00, 0.00, -0.00, -1.00, 177.0, 543.6)">n</text><text xml:space="preserve" font-family="CourierNewPSMT,Courier New" font-size="30.0" fill="#021993" transform="matrix(1.00, 0.00, -0.00, -1.00, 195.0, 543.6)">t</text><text xml:space="preserve" font-family="CourierNewPSMT,Courier New" font-size="30.0" fill="#021993" transform="matrix(1.00, 0.00, -0.00, -1.00, 213.0, 543.6)">e</text><text xml:space="preserve" font-family="CourierNewPSMT,Courier New" font-size="30.0" fill="#021993" transform="matrix(1.00, 0.00, -0.00, -1.00, 231.0, 543.6)">r</text><text xml:space="preserve" font-family="CourierNewPSMT,Courier New" font-size="30.0" fill="#021993" transform="matrix(1.00, 0.00, -0.00, -1.00, 249.0, 543.6)">v</text><text xml:space="preserve" font-family="CourierNewPSMT,Courier New" font-size="30.0" fill="#021993" transform="matrix(1.00, 0.00, -0.00, -1.00, 267.1, 543.6)">a</text><text xml:space="preserve" font-family="CourierNewPSMT,Courier New" font-size="30.0" fill="#021993" transform="matrix(1.00, 0.00, -0.00, -1.00, 285.1, 543.6)">l</text><text xml:space="preserve" font-family="CourierNewPSMT,Courier New" font-size="30.0" fill="#000000" transform="matrix(1.00, 0.00, -0.00, -1.00, 303.0, 543.6)">(</text><text xml:space="preserve" font-family="CourierNewPSMT,Courier New" font-size="30.0" fill="#BE8F00" transform="matrix(1.00, 0.00, -0.00, -1.00, 321.0, 543.6)">1</text><text xml:space="preserve" font-family="CourierNewPSMT,Courier New" font-size="30.0" fill="#BE8F00" transform="matrix(1.00, 0.00, -0.00, -1.00, 339.0, 543.6)">5</text><text xml:space="preserve" font-family="CourierNewPSMT,Courier New" font-size="30.0" fill="#BE8F00" transform="matrix(1.00, 0.00, -0.00, -1.00, 357.1, 543.6)">0</text><text xml:space="preserve" font-family="CourierNewPSMT,Courier New" font-size="30.0" fill="#000000" transform="matrix(1.00, 0.00, -0.00, -1.00, 375.0, 543.6)">,</text><text xml:space="preserve" font-family="CourierNewPSMT,Courier New" font-size="30.0" fill="#000000" transform="matrix(1.00, 0.00, -0.00, -1.00, 393.1, 543.6)"> </text><text xml:space="preserve" font-family="CourierNewPSMT,Courier New" font-size="30.0" fill="#000000" transform="matrix(1.00, 0.00, -0.00, -1.00, 411.1, 543.6)">T</text><text xml:space="preserve" font-family="CourierNewPSMT,Courier New" font-size="30.0" fill="#000000" transform="matrix(1.00, 0.00, -0.00, -1.00, 429.1, 543.6)">i</text><text xml:space="preserve" font-family="CourierNewPSMT,Courier New" font-size="30.0" fill="#000000" transform="matrix(1.00, 0.00, -0.00, -1.00, 447.1, 543.6)">m</text><text xml:space="preserve" font-family="CourierNewPSMT,Courier New" font-size="30.0" fill="#000000" transform="matrix(1.00, 0.00, -0.00, -1.00, 465.1, 543.6)">e</text><text xml:space="preserve" font-family="CourierNewPSMT,Courier New" font-size="30.0" fill="#000000" transform="matrix(1.00, 0.00, -0.00, -1.00, 483.1, 543.6)">U</text><text xml:space="preserve" font-family="CourierNewPSMT,Courier New" font-size="30.0" fill="#000000" transform="matrix(1.00, 0.00, -0.00, -1.00, 501.1, 543.6)">n</text><text xml:space="preserve" font-family="CourierNewPSMT,Courier New" font-size="30.0" fill="#000000" transform="matrix(1.00, 0.00, -0.00, -1.00, 519.1, 543.6)">i</text><text xml:space="preserve" font-family="CourierNewPSMT,Courier New" font-size="30.0" fill="#000000" transform="matrix(1.00, 0.00, -0.00, -1.00, 537.1, 543.6)">t</text><text xml:space="preserve" font-family="CourierNewPSMT,Courier New" font-size="30.0" fill="#000000" transform="matrix(1.00, 0.00, -0.00, -1.00, 555.1, 543.6)">.</text><text xml:space="preserve" font-family="CourierNewPSMT,Courier New" font-size="30.0" fill="#000000" transform="matrix(1.00, 0.00, -0.00, -1.00, 573.1, 543.6)">M</text><text xml:space="preserve" font-family="CourierNewPSMT,Courier New" font-size="30.0" fill="#000000" transform="matrix(1.00, 0.00, -0.00, -1.00, 591.1, 543.6)">I</text><text xml:space="preserve" font-family="CourierNewPSMT,Courier New" font-size="30.0" fill="#000000" transform="matrix(1.00, 0.00, -0.00, -1.00, 609.1, 543.6)">L</text><text xml:space="preserve" font-family="CourierNewPSMT,Courier New" font-size="30.0" fill="#000000" transform="matrix(1.00, 0.00, -0.00, -1.00, 627.1, 543.6)">L</text><text xml:space="preserve" font-family="CourierNewPSMT,Courier New" font-size="30.0" fill="#000000" transform="matrix(1.00, 0.00, -0.00, -1.00, 645.1, 543.6)">I</text><text xml:space="preserve" font-family="CourierNewPSMT,Courier New" font-size="30.0" fill="#000000" transform="matrix(1.00, 0.00, -0.00, -1.00, 663.1, 543.6)">S</text><text xml:space="preserve" font-family="CourierNewPSMT,Courier New" font-size="30.0" fill="#000000" transform="matrix(1.00, 0.00, -0.00, -1.00, 681.2, 543.6)">E</text><text xml:space="preserve" font-family="CourierNewPSMT,Courier New" font-size="30.0" fill="#000000" transform="matrix(1.00, 0.00, -0.00, -1.00, 699.2, 543.6)">C</text><text xml:space="preserve" font-family="CourierNewPSMT,Courier New" font-size="30.0" fill="#000000" transform="matrix(1.00, 0.00, -0.00, -1.00, 717.2, 543.6)">O</text><text xml:space="preserve" font-family="CourierNewPSMT,Courier New" font-size="30.0" fill="#000000" transform="matrix(1.00, 0.00, -0.00, -1.00, 735.2, 543.6)">N</text><text xml:space="preserve" font-family="CourierNewPSMT,Courier New" font-size="30.0" fill="#000000" transform="matrix(1.00, 0.00, -0.00, -1.00, 753.2, 543.6)">D</text><text xml:space="preserve" font-family="CourierNewPSMT,Courier New" font-size="30.0" fill="#000000" transform="matrix(1.00, 0.00, -0.00, -1.00, 771.2, 543.6)">S</text><text xml:space="preserve" font-family="CourierNewPSMT,Courier New" font-size="30.0" fill="#000000" transform="matrix(1.00, 0.00, -0.00, -1.00, 789.2, 543.6)">)</text><text xml:space="preserve" font-family="CourierNewPSMT,Courier New" font-size="30.0" fill="#000000" transform="matrix(1.00, 0.00, -0.00, -1.00, 807.2, 543.6)"> </text><text xml:space="preserve" font-family="CourierNewPSMT,Courier New" font-size="30.0" fill="#000000" transform="matrix(1.00, 0.00, -0.00, -1.00, 69.0, 509.6)"> </text><text xml:space="preserve" font-family="CourierNewPSMT,Courier New" font-size="30.0" fill="#000000" transform="matrix(1.00, 0.00, -0.00, -1.00, 87.0, 509.6)"> </text><text xml:space="preserve" font-family="CourierNewPSMT,Courier New" font-size="30.0" fill="#000000" transform="matrix(1.00, 0.00, -0.00, -1.00, 105.0, 509.6)"> </text><text xml:space="preserve" font-family="CourierNewPSMT,Courier New" font-size="30.0" fill="#000000" transform="matrix(1.00, 0.00, -0.00, -1.00, 123.0, 509.6)"> </text><text xml:space="preserve" font-family="CourierNewPSMT,Courier New" font-size="30.0" fill="#000000" transform="matrix(1.00, 0.00, -0.00, -1.00, 141.0, 509.6)">.</text><text xml:space="preserve" font-family="CourierNewPSMT,Courier New" font-size="30.0" fill="#021993" transform="matrix(1.00, 0.00, -0.00, -1.00, 159.0, 509.6)">s</text><text xml:space="preserve" font-family="CourierNewPSMT,Courier New" font-size="30.0" fill="#021993" transform="matrix(1.00, 0.00, -0.00, -1.00, 177.0, 509.6)">u</text><text xml:space="preserve" font-family="CourierNewPSMT,Courier New" font-size="30.0" fill="#021993" transform="matrix(1.00, 0.00, -0.00, -1.00, 195.0, 509.6)">b</text><text xml:space="preserve" font-family="CourierNewPSMT,Courier New" font-size="30.0" fill="#021993" transform="matrix(1.00, 0.00, -0.00, -1.00, 213.0, 509.6)">s</text><text xml:space="preserve" font-family="CourierNewPSMT,Courier New" font-size="30.0" fill="#021993" transform="matrix(1.00, 0.00, -0.00, -1.00, 231.0, 509.6)">c</text><text xml:space="preserve" font-family="CourierNewPSMT,Courier New" font-size="30.0" fill="#021993" transform="matrix(1.00, 0.00, -0.00, -1.00, 249.0, 509.6)">r</text><text xml:space="preserve" font-family="CourierNewPSMT,Courier New" font-size="30.0" fill="#021993" transform="matrix(1.00, 0.00, -0.00, -1.00, 267.1, 509.6)">i</text><text xml:space="preserve" font-family="CourierNewPSMT,Courier New" font-size="30.0" fill="#021993" transform="matrix(1.00, 0.00, -0.00, -1.00, 285.1, 509.6)">b</text><text xml:space="preserve" font-family="CourierNewPSMT,Courier New" font-size="30.0" fill="#021993" transform="matrix(1.00, 0.00, -0.00, -1.00, 303.1, 509.6)">e</text><text xml:space="preserve" font-family="CourierNewPSMT,Courier New" font-size="30.0" fill="#000000" transform="matrix(1.00, 0.00, -0.00, -1.00, 321.0, 509.6)">(</text><text xml:space="preserve" font-family="CourierNewPSMT,Courier New" font-size="30.0" fill="#000000" transform="matrix(1.00, 0.00, -0.00, -1.00, 339.0, 509.6)">S</text><text xml:space="preserve" font-family="CourierNewPSMT,Courier New" font-size="30.0" fill="#000000" transform="matrix(1.00, 0.00, -0.00, -1.00, 357.1, 509.6)">y</text><text xml:space="preserve" font-family="CourierNewPSMT,Courier New" font-size="30.0" fill="#000000" transform="matrix(1.00, 0.00, -0.00, -1.00, 375.1, 509.6)">s</text><text xml:space="preserve" font-family="CourierNewPSMT,Courier New" font-size="30.0" fill="#000000" transform="matrix(1.00, 0.00, -0.00, -1.00, 393.1, 509.6)">t</text><text xml:space="preserve" font-family="CourierNewPSMT,Courier New" font-size="30.0" fill="#000000" transform="matrix(1.00, 0.00, -0.00, -1.00, 411.1, 509.6)">e</text><text xml:space="preserve" font-family="CourierNewPSMT,Courier New" font-size="30.0" fill="#000000" transform="matrix(1.00, 0.00, -0.00, -1.00, 429.1, 509.6)">m</text><text xml:space="preserve" font-family="CourierNewPSMT,Courier New" font-size="30.0" fill="#000000" transform="matrix(1.00, 0.00, -0.00, -1.00, 447.1, 509.6)">.</text><text xml:space="preserve" font-family="CourierNewPSMT,Courier New" font-size="30.0" fill="#000000" transform="matrix(1.00, 0.00, -0.00, -1.00, 465.1, 509.6)">o</text><text xml:space="preserve" font-family="CourierNewPSMT,Courier New" font-size="30.0" fill="#000000" transform="matrix(1.00, 0.00, -0.00, -1.00, 483.1, 509.6)">u</text><text xml:space="preserve" font-family="CourierNewPSMT,Courier New" font-size="30.0" fill="#000000" transform="matrix(1.00, 0.00, -0.00, -1.00, 501.1, 509.6)">t</text><text xml:space="preserve" font-family="CourierNewPSMT,Courier New" font-size="30.0" fill="#000000" transform="matrix(1.00, 0.00, -0.00, -1.00, 519.1, 509.6)">:</text><text xml:space="preserve" font-family="CourierNewPSMT,Courier New" font-size="30.0" fill="#000000" transform="matrix(1.00, 0.00, -0.00, -1.00, 537.1, 509.6)">:</text><text xml:space="preserve" font-family="CourierNewPSMT,Courier New" font-size="30.0" fill="#000000" transform="matrix(1.00, 0.00, -0.00, -1.00, 555.1, 509.6)">p</text><text xml:space="preserve" font-family="CourierNewPSMT,Courier New" font-size="30.0" fill="#000000" transform="matrix(1.00, 0.00, -0.00, -1.00, 573.1, 509.6)">r</text><text xml:space="preserve" font-family="CourierNewPSMT,Courier New" font-size="30.0" fill="#000000" transform="matrix(1.00, 0.00, -0.00, -1.00, 591.1, 509.6)">i</text><text xml:space="preserve" font-family="CourierNewPSMT,Courier New" font-size="30.0" fill="#000000" transform="matrix(1.00, 0.00, -0.00, -1.00, 609.1, 509.6)">n</text><text xml:space="preserve" font-family="CourierNewPSMT,Courier New" font-size="30.0" fill="#000000" transform="matrix(1.00, 0.00, -0.00, -1.00, 627.1, 509.6)">t</text><text xml:space="preserve" font-family="CourierNewPSMT,Courier New" font-size="30.0" fill="#000000" transform="matrix(1.00, 0.00, -0.00, -1.00, 645.1, 509.6)">)</text><text xml:space="preserve" font-family="CourierNewPSMT,Courier New" font-size="30.0" fill="#000000" transform="matrix(1.00, 0.00, -0.00, -1.00, 663.2, 509.6)">;</text><text xml:space="preserve" font-family="CourierNewPSMT,Courier New" font-size="30.0" fill="#000000" transform="matrix(1.00, 0.00, -0.00, -1.00, 681.2, 509.6)"> </text><g opacity="0.15"><g><clipPath id="clip0x600001ea99c0"><path d="M 126.0 526.0 L 834.0 526.0 L 834.0 577.0 L 126.0 577.0 Z M 126.0 526.0 "></path></clipPath><g clip-path="url(#clip0x600001ea99c0)"><path d="M 127.2 551.7 L 127.2 551.7 C 127.2 564.9 137.8 575.0 150.9 575.0 L 808.5 575.0 C 821.7 575.0 832.3 564.9 832.3 551.7 L 832.3 551.7 C 832.3 538.6 821.7 528.0 808.5 528.0 L 150.9 528.0 C 137.8 528.0 127.2 538.6 127.2 551.7 Z M 127.2 551.7 " fill="#7F8685"></path></g></g></g><g><clipPath id="clip0x600001ea9c00"><path d="M 329.2 167.5 L 431.2 167.5 L 431.2 310.5 L 329.2 310.5 Z M 329.2 167.5 "></path></clipPath><g clip-path="url(#clip0x600001ea9c00)"><path d="M 330.2 224.5 L 330.0 294.5 C 330.0 302.8 337.0 309.0 345.2 309.0 L 415.2 309.0 C 423.5 309.0 430.0 302.8 430.0 294.5 L 430.0 224.5 C 430.0 216.2 423.5 209.0 415.2 209.0 L 345.2 209.0 C 337.0 209.0 330.2 216.2 330.2 224.5 Z M 330.2 224.5 " fill="#AA1802"></path><image xlink:href="../../A6145DF7-A85D-40E2-9540-0C27EBE590D6/assets/BD19795AC00374E21F19E9D814F158C8.png" width="417.00" height="171.00" transform="matrix(0.24, 0.00, -0.00, -0.24, 330.2, 209.5)"></image></g></g><g><clipPath id="clip0x600001ea9d20"><path d="M 324.0 209.5 L 436.5 209.5 L 436.5 309.5 L 324.0 309.5 Z M 324.0 209.5 "></path></clipPath><g clip-path="url(#clip0x600001ea9d20)"><text xml:space="preserve" font-family="GillSans-Light,Gill Sans" font-size="36.0" fill="#FEFFFF" transform="matrix(1.00, 0.00, -0.00, -1.00, 371.2, 258.7)">2</text><text xml:space="preserve" font-family="GillSans-Light,Gill Sans" font-size="20.0" fill="#FEFFFF" transform="matrix(1.00, 0.00, -0.00, -1.00, 347.3, 231.9)">(</text><text xml:space="preserve" font-family="GillSans-Light,Gill Sans" font-size="20.0" fill="#FEFFFF" transform="matrix(1.00, 0.00, -0.00, -1.00, 354.0, 231.9)">4</text><text xml:space="preserve" font-family="GillSans-Light,Gill Sans" font-size="20.0" fill="#FEFFFF" transform="matrix(1.00, 0.00, -0.00, -1.00, 364.0, 231.9)">5</text><text xml:space="preserve" font-family="GillSans-Light,Gill Sans" font-size="20.0" fill="#FEFFFF" transform="matrix(1.00, 0.00, -0.00, -1.00, 374.0, 231.9)">0</text><text xml:space="preserve" font-family="GillSans-Light,Gill Sans" font-size="20.0" fill="#FEFFFF" transform="matrix(1.00, 0.00, -0.00, -1.00, 384.0, 231.9)">m</text><text xml:space="preserve" font-family="GillSans-Light,Gill Sans" font-size="20.0" fill="#FEFFFF" transform="matrix(1.00, 0.00, -0.00, -1.00, 399.4, 231.9)">s</text><text xml:space="preserve" font-family="GillSans-Light,Gill Sans" font-size="20.0" fill="#FEFFFF" transform="matrix(1.00, 0.00, -0.00, -1.00, 406.5, 231.9)">)</text></g></g><g><clipPath id="clip0x600001eaa3e0"><path d="M 223.2 253.7 L 331.2 253.7 L 331.2 265.3 L 223.2 265.3 Z M 223.2 253.7 "></path></clipPath><g clip-path="url(#clip0x600001eaa3e0)"><path d="M 0.0 0.0 C 32.1 0.0 64.3 0.5 96.4 0.5 L 97.8 0.5 " fill="none" stroke="#595E5D" stroke-width="2.00" transform="matrix(1.00, 0.00, 0.00, -1.00, 224.2, 259.5)"></path><path d="M 321.0 254.2 L 330.6 259.0 L 321.0 263.8 Z M 321.0 254.2 " fill="#595E5D"></path></g></g><g><clipPath id="clip0x600001eaa6e0"><path d="M 198.1 167.5 L 300.1 167.5 L 300.1 310.5 L 198.1 310.5 Z M 198.1 167.5 "></path></clipPath><g clip-path="url(#clip0x600001eaa6e0)"><path d="M 199.1 224.5 L 199.0 294.5 C 199.0 302.8 205.8 309.0 214.1 309.0 L 284.1 309.0 C 292.4 309.0 299.0 302.8 299.0 294.5 L 299.0 224.5 C 299.0 216.2 292.4 209.0 284.1 209.0 L 214.1 209.0 C 205.8 209.0 199.1 216.2 199.1 224.5 Z M 199.1 224.5 " fill="#AA1802"></path><image xlink:href="../../A6145DF7-A85D-40E2-9540-0C27EBE590D6/assets/401D0E7FD57B85F6AD620DAE5E02DE74.png" width="417.00" height="171.00" transform="matrix(0.24, 0.00, -0.00, -0.24, 199.1, 209.5)"></image></g></g><g><clipPath id="clip0x608001cbb600"><path d="M 192.9 209.5 L 305.3 209.5 L 305.3 309.5 L 192.9 309.5 Z M 192.9 209.5 "></path></clipPath><g clip-path="url(#clip0x608001cbb600)"><text xml:space="preserve" font-family="GillSans-Light,Gill Sans" font-size="36.0" fill="#FEFFFF" transform="matrix(1.00, 0.00, -0.00, -1.00, 240.1, 258.7)">1</text><text xml:space="preserve" font-family="GillSans-Light,Gill Sans" font-size="20.0" fill="#FEFFFF" transform="matrix(1.00, 0.00, -0.00, -1.00, 216.2, 231.9)">(</text><text xml:space="preserve" font-family="GillSans-Light,Gill Sans" font-size="20.0" fill="#FEFFFF" transform="matrix(1.00, 0.00, -0.00, -1.00, 222.9, 231.9)">3</text><text xml:space="preserve" font-family="GillSans-Light,Gill Sans" font-size="20.0" fill="#FEFFFF" transform="matrix(1.00, 0.00, -0.00, -1.00, 232.9, 231.9)">0</text><text xml:space="preserve" font-family="GillSans-Light,Gill Sans" font-size="20.0" fill="#FEFFFF" transform="matrix(1.00, 0.00, -0.00, -1.00, 242.9, 231.9)">0</text><text xml:space="preserve" font-family="GillSans-Light,Gill Sans" font-size="20.0" fill="#FEFFFF" transform="matrix(1.00, 0.00, -0.00, -1.00, 252.9, 231.9)">m</text><text xml:space="preserve" font-family="GillSans-Light,Gill Sans" font-size="20.0" fill="#FEFFFF" transform="matrix(1.00, 0.00, -0.00, -1.00, 268.3, 231.9)">s</text><text xml:space="preserve" font-family="GillSans-Light,Gill Sans" font-size="20.0" fill="#FEFFFF" transform="matrix(1.00, 0.00, -0.00, -1.00, 275.4, 231.9)">)</text></g></g><g><clipPath id="clip0x608001cbbc00"><path d="M 92.1 253.7 L 200.1 253.7 L 200.1 265.3 L 92.1 265.3 Z M 92.1 253.7 "></path></clipPath><g clip-path="url(#clip0x608001cbbc00)"><path d="M 0.0 0.0 C 32.1 0.0 64.3 0.5 96.4 0.5 L 97.9 0.5 " fill="none" stroke="#595E5D" stroke-width="2.00" transform="matrix(1.00, 0.00, 0.00, -1.00, 93.1, 259.5)"></path><path d="M 190.0 254.2 L 199.6 259.0 L 190.0 263.8 Z M 190.0 254.2 " fill="#595E5D"></path></g></g><text xml:space="preserve" font-family="GillSans-Light,Gill Sans" font-size="72.0" fill="#525252" transform="matrix(1.00, 0.00, -0.00, -1.00, 358.8, 628.2)">I</text><text xml:space="preserve" font-family="GillSans-Light,Gill Sans" font-size="72.0" fill="#525252" transform="matrix(1.00, 0.00, -0.00, -1.00, 373.7, 628.2)">N</text><text xml:space="preserve" font-family="GillSans-Light,Gill Sans" font-size="72.0" fill="#525252" transform="matrix(1.00, 0.00, -0.00, -1.00, 429.3, 628.2)">T</text><text xml:space="preserve" font-family="GillSans-Light,Gill Sans" font-size="72.0" fill="#525252" transform="matrix(1.00, 0.00, -0.00, -1.00, 470.5, 628.2)">E</text><text xml:space="preserve" font-family="GillSans-Light,Gill Sans" font-size="72.0" fill="#525252" transform="matrix(1.00, 0.00, -0.00, -1.00, 505.9, 628.2)">R</text><text xml:space="preserve" font-family="GillSans-Light,Gill Sans" font-size="72.0" fill="#525252" transform="matrix(1.00, 0.00, -0.00, -1.00, 545.0, 628.2)">V</text><text xml:space="preserve" font-family="GillSans-Light,Gill Sans" font-size="72.0" fill="#525252" transform="matrix(1.00, 0.00, -0.00, -1.00, 583.5, 628.2)">A</text><text xml:space="preserve" font-family="GillSans-Light,Gill Sans" font-size="72.0" fill="#525252" transform="matrix(1.00, 0.00, -0.00, -1.00, 631.5, 628.2)">L</text><path d="M 69.0 224.5 L 69.0 294.5 C 69.0 302.8 75.7 309.0 84.0 309.0 L 154.0 309.0 C 162.3 309.0 169.0 302.8 169.0 294.5 L 169.0 224.5 C 169.0 216.2 162.3 209.0 154.0 209.0 L 84.0 209.0 C 75.7 209.0 69.0 216.2 69.0 224.5 Z M 69.0 224.5 " fill="#AA1802"></path><g><clipPath id="clip0x608001cbc1a0"><path d="M 62.8 209.5 L 175.2 209.5 L 175.2 309.5 L 62.8 309.5 Z M 62.8 209.5 "></path></clipPath><g clip-path="url(#clip0x608001cbc1a0)"><text xml:space="preserve" font-family="GillSans-Light,Gill Sans" font-size="36.0" fill="#FEFFFF" transform="matrix(1.00, 0.00, -0.00, -1.00, 110.0, 258.7)">0</text><text xml:space="preserve" font-family="GillSans-Light,Gill Sans" font-size="20.0" fill="#FEFFFF" transform="matrix(1.00, 0.00, -0.00, -1.00, 86.1, 231.9)">(</text><text xml:space="preserve" font-family="GillSans-Light,Gill Sans" font-size="20.0" fill="#FEFFFF" transform="matrix(1.00, 0.00, -0.00, -1.00, 92.7, 231.9)">1</text><text xml:space="preserve" font-family="GillSans-Light,Gill Sans" font-size="20.0" fill="#FEFFFF" transform="matrix(1.00, 0.00, -0.00, -1.00, 102.7, 231.9)">5</text><text xml:space="preserve" font-family="GillSans-Light,Gill Sans" font-size="20.0" fill="#FEFFFF" transform="matrix(1.00, 0.00, -0.00, -1.00, 112.7, 231.9)">0</text><text xml:space="preserve" font-family="GillSans-Light,Gill Sans" font-size="20.0" fill="#FEFFFF" transform="matrix(1.00, 0.00, -0.00, -1.00, 122.7, 231.9)">m</text><text xml:space="preserve" font-family="GillSans-Light,Gill Sans" font-size="20.0" fill="#FEFFFF" transform="matrix(1.00, 0.00, -0.00, -1.00, 138.2, 231.9)">s</text><text xml:space="preserve" font-family="GillSans-Light,Gill Sans" font-size="20.0" fill="#FEFFFF" transform="matrix(1.00, 0.00, -0.00, -1.00, 145.2, 231.9)">)</text></g></g><image xlink:href="../../A6145DF7-A85D-40E2-9540-0C27EBE590D6/assets/781006BC50E84FA5F0D0478B05A09B33.png" width="417.00" height="171.00" transform="matrix(0.24, 0.00, -0.00, -0.24, 69.0, 209.5)"></image></g></svg>