<?xml version="1.0" encoding="UTF-8" standalone="no"?><svg xmlns="http://www.w3.org/2000/svg" xmlns:xlink="http://www.w3.org/1999/xlink" clip-rule="evenodd" stroke-miterlimit="10" viewBox="0 0 286 144"><desc>SVG generated by Keynote</desc><defs></defs><g transform="matrix(1.00, 0.00, -0.00, -1.00, 0.0, 144.0)"><g><clipPath id="clip0x600001cb76a0"><path d="M 106.6 0.5 L 208.6 0.5 L 208.6 143.5 L 106.6 143.5 Z M 106.6 0.5 "></path></clipPath><g clip-path="url(#clip0x600001cb76a0)"><path d="M 107.6 57.5 L 108.0 127.5 C 108.0 135.8 114.3 142.0 122.6 142.0 L 192.6 142.0 C 200.9 142.0 208.0 135.8 208.0 127.5 L 208.0 57.5 C 208.0 49.2 200.9 42.0 192.6 42.0 L 122.6 42.0 C 114.3 42.0 107.6 49.2 107.6 57.5 Z M 107.6 57.5 " fill="#AA1802"></path><image xlink:href="85BEDF2530A60865677D61EE3857BB47.png" width="417.00" height="171.00" transform="matrix(0.24, 0.00, -0.00, -0.24, 107.6, 42.5)"></image></g></g><g><clipPath id="clip0x600001cb7f40"><path d="M 101.4 42.5 L 213.8 42.5 L 213.8 142.5 L 101.4 142.5 Z M 101.4 42.5 "></path></clipPath><g clip-path="url(#clip0x600001cb7f40)"><text xml:space="preserve" font-family="GillSans-Light,Gill Sans" font-size="36.0" fill="#FEFFFF" transform="matrix(1.00, 0.00, -0.00, -1.00, 148.6, 91.7)">5</text><text xml:space="preserve" font-family="GillSans-Light,Gill Sans" font-size="20.0" fill="#FEFFFF" transform="matrix(1.00, 0.00, -0.00, -1.00, 124.7, 64.9)">(</text><text xml:space="preserve" font-family="GillSans-Light,Gill Sans" font-size="20.0" fill="#FEFFFF" transform="matrix(1.00, 0.00, -0.00, -1.00, 131.4, 64.9)">9</text><text xml:space="preserve" font-family="GillSans-Light,Gill Sans" font-size="20.0" fill="#FEFFFF" transform="matrix(1.00, 0.00, -0.00, -1.00, 141.4, 64.9)">0</text><text xml:space="preserve" font-family="GillSans-Light,Gill Sans" font-size="20.0" fill="#FEFFFF" transform="matrix(1.00, 0.00, -0.00, -1.00, 151.4, 64.9)">0</text><text xml:space="preserve" font-family="GillSans-Light,Gill Sans" font-size="20.0" fill="#FEFFFF" transform="matrix(1.00, 0.00, -0.00, -1.00, 161.4, 64.9)">m</text><text xml:space="preserve" font-family="GillSans-Light,Gill Sans" font-size="20.0" fill="#FEFFFF" transform="matrix(1.00, 0.00, -0.00, -1.00, 176.8, 64.9)">s</text><text xml:space="preserve" font-family="GillSans-Light,Gill Sans" font-size="20.0" fill="#FEFFFF" transform="matrix(1.00, 0.00, -0.00, -1.00, 183.9, 64.9)">)</text></g></g><g><clipPath id="clip0x600001cb85a0"><path d="M 0.6 86.7 L 108.6 86.7 L 108.6 98.3 L 0.6 98.3 Z M 0.6 86.7 "></path></clipPath><g clip-path="url(#clip0x600001cb85a0)"><path d="M 0.0 0.0 C 32.1 0.0 64.3 0.5 96.4 0.5 L 97.4 0.5 " fill="none" stroke="#595E5D" stroke-width="2.00" transform="matrix(1.00, 0.00, 0.00, -1.00, 1.6, 92.5)"></path><path d="M 98.0 87.2 L 107.6 92.0 L 98.0 96.8 Z M 98.0 87.2 " fill="#595E5D"></path></g></g><g><clipPath id="clip0x600001cb88a0"><path d="M 221.0 43.0 L 239.4 43.0 L 239.4 62.5 L 221.0 62.5 Z M 221.0 43.0 "></path></clipPath><g clip-path="url(#clip0x600001cb88a0)"><path d="M 236.0 58.9 C 239.2 55.5 239.2 50.0 236.0 46.6 C 232.8 43.1 227.6 43.1 224.4 46.6 C 221.2 50.0 221.2 55.5 224.4 58.9 C 227.6 62.4 232.8 62.4 236.0 58.9 Z M 236.0 58.9 " fill="#AA1802"></path></g></g><g><clipPath id="clip0x600001cb8ae0"><path d="M 244.0 42.5 L 262.4 42.5 L 262.4 62.0 L 244.0 62.0 Z M 244.0 42.5 "></path></clipPath><g clip-path="url(#clip0x600001cb8ae0)"><path d="M 259.0 58.4 C 262.2 55.0 262.2 49.5 259.0 46.1 C 255.8 42.6 250.6 42.6 247.4 46.1 C 244.2 49.5 244.2 55.0 247.4 58.4 C 250.6 61.9 255.8 61.9 259.0 58.4 Z M 259.0 58.4 " fill="#AA1802"></path></g></g><g><clipPath id="clip0x600001cb8d20"><path d="M 267.0 42.0 L 285.4 42.0 L 285.4 61.5 L 267.0 61.5 Z M 267.0 42.0 "></path></clipPath><g clip-path="url(#clip0x600001cb8d20)"><path d="M 282.0 57.9 C 285.2 54.5 285.2 49.0 282.0 45.6 C 278.8 42.1 273.6 42.1 270.4 45.6 C 267.2 49.0 267.2 54.5 270.4 57.9 C 273.6 61.4 278.8 61.4 282.0 57.9 Z M 282.0 57.9 " fill="#AA1802"></path></g></g></g></svg>