<?xml version="1.0" encoding="UTF-8" standalone="no"?><svg xmlns="http://www.w3.org/2000/svg" xmlns:xlink="http://www.w3.org/1999/xlink" clip-rule="evenodd" stroke-miterlimit="10" viewBox="0 0 209 144"><desc>SVG generated by Keynote</desc><defs></defs><g transform="matrix(1.00, 0.00, -0.00, -1.00, 0.0, 144.0)"><g><clipPath id="clip0x600001ab78e0"><path d="M 106.6 0.5 L 208.6 0.5 L 208.6 143.5 L 106.6 143.5 Z M 106.6 0.5 "></path></clipPath><g clip-path="url(#clip0x600001ab78e0)"><path d="M 107.6 57.5 L 108.0 127.5 C 108.0 135.8 114.3 142.0 122.6 142.0 L 192.6 142.0 C 200.9 142.0 208.0 135.8 208.0 127.5 L 208.0 57.5 C 208.0 49.2 200.9 42.0 192.6 42.0 L 122.6 42.0 C 114.3 42.0 107.6 49.2 107.6 57.5 Z M 107.6 57.5 " fill="#AA1802"></path><image xlink:href="281F706819150A7A5B6BCD6437C71A11.png" width="417.00" height="171.00" transform="matrix(0.24, 0.00, -0.00, -0.24, 107.6, 42.5)"></image></g></g><g><clipPath id="clip0x608001ab95c0"><path d="M 101.4 42.5 L 213.8 42.5 L 213.8 142.5 L 101.4 142.5 Z M 101.4 42.5 "></path></clipPath><g clip-path="url(#clip0x608001ab95c0)"><text xml:space="preserve" font-family="GillSans-Light,Gill Sans" font-size="36.0" fill="#FEFFFF" transform="matrix(1.00, 0.00, -0.00, -1.00, 145.4, 80.2)">C</text></g></g><g><clipPath id="clip0x608001ab97a0"><path d="M 0.6 86.7 L 108.6 86.7 L 108.6 98.3 L 0.6 98.3 Z M 0.6 86.7 "></path></clipPath><g clip-path="url(#clip0x608001ab97a0)"><path d="M 0.0 0.0 C 32.1 0.0 64.3 0.5 96.4 0.5 L 97.4 0.5 " fill="none" stroke="#595E5D" stroke-width="2.00" transform="matrix(1.00, 0.00, 0.00, -1.00, 1.6, 92.5)"></path><path d="M 98.0 87.2 L 107.6 92.0 L 98.0 96.8 Z M 98.0 87.2 " fill="#595E5D"></path></g></g></g></svg>