<?xml version="1.0" encoding="UTF-8" standalone="no"?><svg xmlns="http://www.w3.org/2000/svg" xmlns:xlink="http://www.w3.org/1999/xlink" clip-rule="evenodd" stroke-miterlimit="10" viewBox="0 0 1024 768"><desc>SVG generated by Keynote</desc><defs></defs><g transform="matrix(1.00, 0.00, -0.00, -1.00, 0.0, 768.0)"><g><clipPath id="clip0x600001ca6960"><path d="M 0.0 768.0 L 1024.0 768.0 L 1024.0 0.0 L 0.0 0.0 Z M 0.0 768.0 "></path></clipPath><g clip-path="url(#clip0x600001ca6960)"><image xlink:href="../../14475E20-3AC1-427A-883A-B77C5AE27FDA/assets/574DCE55A4CF432400CBDDDE1DFDFC9B.jpeg" width="2048.00" height="1536.00" transform="matrix(0.50, 0.00, -0.00, -0.50, 0.0, 768.0)"></image></g></g><text xml:space="preserve" font-family="CourierNewPSMT,Courier New" font-size="30.0" fill="#000000" transform="matrix(1.00, 0.00, -0.00, -1.00, 69.0, 577.6)">O</text><text xml:space="preserve" font-family="CourierNewPSMT,Courier New" font-size="30.0" fill="#000000" transform="matrix(1.00, 0.00, -0.00, -1.00, 87.0, 577.6)">b</text><text xml:space="preserve" font-family="CourierNewPSMT,Courier New" font-size="30.0" fill="#000000" transform="matrix(1.00, 0.00, -0.00, -1.00, 105.0, 577.6)">s</text><text xml:space="preserve" font-family="CourierNewPSMT,Courier New" font-size="30.0" fill="#000000" transform="matrix(1.00, 0.00, -0.00, -1.00, 123.0, 577.6)">e</text><text xml:space="preserve" font-family="CourierNewPSMT,Courier New" font-size="30.0" fill="#000000" transform="matrix(1.00, 0.00, -0.00, -1.00, 141.0, 577.6)">r</text><text xml:space="preserve" font-family="CourierNewPSMT,Courier New" font-size="30.0" fill="#000000" transform="matrix(1.00, 0.00, -0.00, -1.00, 159.0, 577.6)">v</text><text xml:space="preserve" font-family="CourierNewPSMT,Courier New" font-size="30.0" fill="#000000" transform="matrix(1.00, 0.00, -0.00, -1.00, 177.0, 577.6)">a</text><text xml:space="preserve" font-family="CourierNewPSMT,Courier New" font-size="30.0" fill="#000000" transform="matrix(1.00, 0.00, -0.00, -1.00, 195.0, 577.6)">b</text><text xml:space="preserve" font-family="CourierNewPSMT,Courier New" font-size="30.0" fill="#000000" transform="matrix(1.00, 0.00, -0.00, -1.00, 213.0, 577.6)">l</text><text xml:space="preserve" font-family="CourierNewPSMT,Courier New" font-size="30.0" fill="#000000" transform="matrix(1.00, 0.00, -0.00, -1.00, 231.1, 577.6)">e</text><text xml:space="preserve" font-family="CourierNewPSMT,Courier New" font-size="30.0" fill="#000000" transform="matrix(1.00, 0.00, -0.00, -1.00, 249.1, 577.6)"> </text><text xml:space="preserve" font-family="CourierNewPSMT,Courier New" font-size="30.0" fill="#000000" transform="matrix(1.00, 0.00, -0.00, -1.00, 69.0, 543.6)"> </text><text xml:space="preserve" font-family="CourierNewPSMT,Courier New" font-size="30.0" fill="#000000" transform="matrix(1.00, 0.00, -0.00, -1.00, 87.0, 543.6)"> </text><text xml:space="preserve" font-family="CourierNewPSMT,Courier New" font-size="30.0" fill="#000000" transform="matrix(1.00, 0.00, -0.00, -1.00, 105.0, 543.6)"> </text><text xml:space="preserve" font-family="CourierNewPSMT,Courier New" font-size="30.0" fill="#000000" transform="matrix(1.00, 0.00, -0.00, -1.00, 123.0, 543.6)"> </text><text xml:space="preserve" font-family="CourierNewPSMT,Courier New" font-size="30.0" fill="#000000" transform="matrix(1.00, 0.00, -0.00, -1.00, 141.0, 543.6)">.</text><text xml:space="preserve" font-family="CourierNewPSMT,Courier New" font-size="30.0" fill="#021993" transform="matrix(1.00, 0.00, -0.00, -1.00, 159.0, 543.6)">j</text><text xml:space="preserve" font-family="CourierNewPSMT,Courier New" font-size="30.0" fill="#021993" transform="matrix(1.00, 0.00, -0.00, -1.00, 177.0, 543.6)">u</text><text xml:space="preserve" font-family="CourierNewPSMT,Courier New" font-size="30.0" fill="#021993" transform="matrix(1.00, 0.00, -0.00, -1.00, 195.0, 543.6)">s</text><text xml:space="preserve" font-family="CourierNewPSMT,Courier New" font-size="30.0" fill="#021993" transform="matrix(1.00, 0.00, -0.00, -1.00, 213.0, 543.6)">t</text><text xml:space="preserve" font-family="CourierNewPSMT,Courier New" font-size="30.0" fill="#000000" transform="matrix(1.00, 0.00, -0.00, -1.00, 231.0, 543.6)">(</text><text xml:space="preserve" font-family="CourierNewPSMT,Courier New" font-size="30.0" fill="#CC1C00" transform="matrix(1.00, 0.00, -0.00, -1.00, 249.0, 543.6)">"</text><text xml:space="preserve" font-family="CourierNewPSMT,Courier New" font-size="30.0" fill="#CC1C00" transform="matrix(1.00, 0.00, -0.00, -1.00, 267.0, 543.6)">A</text><text xml:space="preserve" font-family="CourierNewPSMT,Courier New" font-size="30.0" fill="#CC1C00" transform="matrix(1.00, 0.00, -0.00, -1.00, 285.0, 543.6)">"</text><text xml:space="preserve" font-family="CourierNewPSMT,Courier New" font-size="30.0" fill="#000000" transform="matrix(1.00, 0.00, -0.00, -1.00, 303.0, 543.6)">,</text><text xml:space="preserve" font-family="CourierNewPSMT,Courier New" font-size="30.0" fill="#000000" transform="matrix(1.00, 0.00, -0.00, -1.00, 321.0, 543.6)"> </text><text xml:space="preserve" font-family="CourierNewPSMT,Courier New" font-size="30.0" fill="#CC1C00" transform="matrix(1.00, 0.00, -0.00, -1.00, 339.0, 543.6)">"</text><text xml:space="preserve" font-family="CourierNewPSMT,Courier New" font-size="30.0" fill="#CC1C00" transform="matrix(1.00, 0.00, -0.00, -1.00, 357.0, 543.6)">B</text><text xml:space="preserve" font-family="CourierNewPSMT,Courier New" font-size="30.0" fill="#CC1C00" transform="matrix(1.00, 0.00, -0.00, -1.00, 375.1, 543.6)">"</text><text xml:space="preserve" font-family="CourierNewPSMT,Courier New" font-size="30.0" fill="#000000" transform="matrix(1.00, 0.00, -0.00, -1.00, 393.1, 543.6)">,</text><text xml:space="preserve" font-family="CourierNewPSMT,Courier New" font-size="30.0" fill="#000000" transform="matrix(1.00, 0.00, -0.00, -1.00, 411.1, 543.6)"> </text><text xml:space="preserve" font-family="CourierNewPSMT,Courier New" font-size="30.0" fill="#CC1C00" transform="matrix(1.00, 0.00, -0.00, -1.00, 429.1, 543.6)">"</text><text xml:space="preserve" font-family="CourierNewPSMT,Courier New" font-size="30.0" fill="#CC1C00" transform="matrix(1.00, 0.00, -0.00, -1.00, 447.1, 543.6)">C</text><text xml:space="preserve" font-family="CourierNewPSMT,Courier New" font-size="30.0" fill="#CC1C00" transform="matrix(1.00, 0.00, -0.00, -1.00, 465.1, 543.6)">"</text><text xml:space="preserve" font-family="CourierNewPSMT,Courier New" font-size="30.0" fill="#000000" transform="matrix(1.00, 0.00, -0.00, -1.00, 483.1, 543.6)">)</text><text xml:space="preserve" font-family="CourierNewPSMT,Courier New" font-size="30.0" fill="#000000" transform="matrix(1.00, 0.00, -0.00, -1.00, 501.1, 543.6)"> </text><text xml:space="preserve" font-family="CourierNewPSMT,Courier New" font-size="30.0" fill="#000000" transform="matrix(1.00, 0.00, -0.00, -1.00, 69.0, 509.6)"> </text><text xml:space="preserve" font-family="CourierNewPSMT,Courier New" font-size="30.0" fill="#000000" transform="matrix(1.00, 0.00, -0.00, -1.00, 87.0, 509.6)"> </text><text xml:space="preserve" font-family="CourierNewPSMT,Courier New" font-size="30.0" fill="#000000" transform="matrix(1.00, 0.00, -0.00, -1.00, 105.0, 509.6)"> </text><text xml:space="preserve" font-family="CourierNewPSMT,Courier New" font-size="30.0" fill="#000000" transform="matrix(1.00, 0.00, -0.00, -1.00, 123.0, 509.6)"> </text><text xml:space="preserve" font-family="CourierNewPSMT,Courier New" font-size="30.0" fill="#000000" transform="matrix(1.00, 0.00, -0.00, -1.00, 141.0, 509.6)">.</text><text xml:space="preserve" font-family="CourierNewPSMT,Courier New" font-size="30.0" fill="#021993" transform="matrix(1.00, 0.00, -0.00, -1.00, 159.0, 509.6)">z</text><text xml:space="preserve" font-family="CourierNewPSMT,Courier New" font-size="30.0" fill="#021993" transform="matrix(1.00, 0.00, -0.00, -1.00, 177.0, 509.6)">i</text><text xml:space="preserve" font-family="CourierNewPSMT,Courier New" font-size="30.0" fill="#021993" transform="matrix(1.00, 0.00, -0.00, -1.00, 195.0, 509.6)">p</text><text xml:space="preserve" font-family="CourierNewPSMT,Courier New" font-size="30.0" fill="#021993" transform="matrix(1.00, 0.00, -0.00, -1.00, 213.0, 509.6)">W</text><text xml:space="preserve" font-family="CourierNewPSMT,Courier New" font-size="30.0" fill="#021993" transform="matrix(1.00, 0.00, -0.00, -1.00, 231.0, 509.6)">i</text><text xml:space="preserve" font-family="CourierNewPSMT,Courier New" font-size="30.0" fill="#021993" transform="matrix(1.00, 0.00, -0.00, -1.00, 249.0, 509.6)">t</text><text xml:space="preserve" font-family="CourierNewPSMT,Courier New" font-size="30.0" fill="#021993" transform="matrix(1.00, 0.00, -0.00, -1.00, 267.1, 509.6)">h</text><text xml:space="preserve" font-family="CourierNewPSMT,Courier New" font-size="30.0" fill="#000000" transform="matrix(1.00, 0.00, -0.00, -1.00, 285.0, 509.6)">(</text><text xml:space="preserve" font-family="CourierNewPSMT,Courier New" font-size="30.0" fill="#000000" transform="matrix(1.00, 0.00, -0.00, -1.00, 303.0, 509.6)"> </text><text xml:space="preserve" font-family="CourierNewPSMT,Courier New" font-size="30.0" fill="#000000" transform="matrix(1.00, 0.00, -0.00, -1.00, 69.0, 475.6)"> </text><text xml:space="preserve" font-family="CourierNewPSMT,Courier New" font-size="30.0" fill="#000000" transform="matrix(1.00, 0.00, -0.00, -1.00, 87.0, 475.6)"> </text><text xml:space="preserve" font-family="CourierNewPSMT,Courier New" font-size="30.0" fill="#000000" transform="matrix(1.00, 0.00, -0.00, -1.00, 105.0, 475.6)"> </text><text xml:space="preserve" font-family="CourierNewPSMT,Courier New" font-size="30.0" fill="#000000" transform="matrix(1.00, 0.00, -0.00, -1.00, 123.0, 475.6)"> </text><text xml:space="preserve" font-family="CourierNewPSMT,Courier New" font-size="30.0" fill="#000000" transform="matrix(1.00, 0.00, -0.00, -1.00, 141.0, 475.6)"> </text><text xml:space="preserve" font-family="CourierNewPSMT,Courier New" font-size="30.0" fill="#000000" transform="matrix(1.00, 0.00, -0.00, -1.00, 159.0, 475.6)"> </text><text xml:space="preserve" font-family="CourierNewPSMT,Courier New" font-size="30.0" fill="#000000" transform="matrix(1.00, 0.00, -0.00, -1.00, 177.0, 475.6)"> </text><text xml:space="preserve" font-family="CourierNewPSMT,Courier New" font-size="30.0" fill="#000000" transform="matrix(1.00, 0.00, -0.00, -1.00, 195.0, 475.6)"> </text><text xml:space="preserve" font-family="CourierNewPSMT,Courier New" font-size="30.0" fill="#000000" transform="matrix(1.00, 0.00, -0.00, -1.00, 213.0, 475.6)"> </text><text xml:space="preserve" font-family="CourierNewPSMT,Courier New" font-size="30.0" fill="#000000" transform="matrix(1.00, 0.00, -0.00, -1.00, 231.1, 475.6)">O</text><text xml:space="preserve" font-family="CourierNewPSMT,Courier New" font-size="30.0" fill="#000000" transform="matrix(1.00, 0.00, -0.00, -1.00, 249.1, 475.6)">b</text><text xml:space="preserve" font-family="CourierNewPSMT,Courier New" font-size="30.0" fill="#000000" transform="matrix(1.00, 0.00, -0.00, -1.00, 267.1, 475.6)">s</text><text xml:space="preserve" font-family="CourierNewPSMT,Courier New" font-size="30.0" fill="#000000" transform="matrix(1.00, 0.00, -0.00, -1.00, 285.1, 475.6)">e</text><text xml:space="preserve" font-family="CourierNewPSMT,Courier New" font-size="30.0" fill="#000000" transform="matrix(1.00, 0.00, -0.00, -1.00, 303.1, 475.6)">r</text><text xml:space="preserve" font-family="CourierNewPSMT,Courier New" font-size="30.0" fill="#000000" transform="matrix(1.00, 0.00, -0.00, -1.00, 321.1, 475.6)">v</text><text xml:space="preserve" font-family="CourierNewPSMT,Courier New" font-size="30.0" fill="#000000" transform="matrix(1.00, 0.00, -0.00, -1.00, 339.1, 475.6)">a</text><text xml:space="preserve" font-family="CourierNewPSMT,Courier New" font-size="30.0" fill="#000000" transform="matrix(1.00, 0.00, -0.00, -1.00, 357.1, 475.6)">b</text><text xml:space="preserve" font-family="CourierNewPSMT,Courier New" font-size="30.0" fill="#000000" transform="matrix(1.00, 0.00, -0.00, -1.00, 375.1, 475.6)">l</text><text xml:space="preserve" font-family="CourierNewPSMT,Courier New" font-size="30.0" fill="#000000" transform="matrix(1.00, 0.00, -0.00, -1.00, 393.1, 475.6)">e</text><text xml:space="preserve" font-family="CourierNewPSMT,Courier New" font-size="30.0" fill="#000000" transform="matrix(1.00, 0.00, -0.00, -1.00, 411.1, 475.6)">.</text><text xml:space="preserve" font-family="CourierNewPSMT,Courier New" font-size="30.0" fill="#021993" transform="matrix(1.00, 0.00, -0.00, -1.00, 429.1, 475.6)">j</text><text xml:space="preserve" font-family="CourierNewPSMT,Courier New" font-size="30.0" fill="#021993" transform="matrix(1.00, 0.00, -0.00, -1.00, 447.1, 475.6)">u</text><text xml:space="preserve" font-family="CourierNewPSMT,Courier New" font-size="30.0" fill="#021993" transform="matrix(1.00, 0.00, -0.00, -1.00, 465.1, 475.6)">s</text><text xml:space="preserve" font-family="CourierNewPSMT,Courier New" font-size="30.0" fill="#021993" transform="matrix(1.00, 0.00, -0.00, -1.00, 483.1, 475.6)">t</text><text xml:space="preserve" font-family="CourierNewPSMT,Courier New" font-size="30.0" fill="#000000" transform="matrix(1.00, 0.00, -0.00, -1.00, 501.1, 475.6)">(</text><text xml:space="preserve" font-family="CourierNewPSMT,Courier New" font-size="30.0" fill="#CC1C00" transform="matrix(1.00, 0.00, -0.00, -1.00, 519.1, 475.6)">"</text><text xml:space="preserve" font-family="CourierNewPSMT,Courier New" font-size="30.0" fill="#CC1C00" transform="matrix(1.00, 0.00, -0.00, -1.00, 537.1, 475.6)">1</text><text xml:space="preserve" font-family="CourierNewPSMT,Courier New" font-size="30.0" fill="#CC1C00" transform="matrix(1.00, 0.00, -0.00, -1.00, 555.1, 475.6)">"</text><text xml:space="preserve" font-family="CourierNewPSMT,Courier New" font-size="30.0" fill="#000000" transform="matrix(1.00, 0.00, -0.00, -1.00, 573.1, 475.6)">,</text><text xml:space="preserve" font-family="CourierNewPSMT,Courier New" font-size="30.0" fill="#000000" transform="matrix(1.00, 0.00, -0.00, -1.00, 591.1, 475.6)"> </text><text xml:space="preserve" font-family="CourierNewPSMT,Courier New" font-size="30.0" fill="#CC1C00" transform="matrix(1.00, 0.00, -0.00, -1.00, 609.1, 475.6)">"</text><text xml:space="preserve" font-family="CourierNewPSMT,Courier New" font-size="30.0" fill="#CC1C00" transform="matrix(1.00, 0.00, -0.00, -1.00, 627.1, 475.6)">2</text><text xml:space="preserve" font-family="CourierNewPSMT,Courier New" font-size="30.0" fill="#CC1C00" transform="matrix(1.00, 0.00, -0.00, -1.00, 645.1, 475.6)">"</text><text xml:space="preserve" font-family="CourierNewPSMT,Courier New" font-size="30.0" fill="#000000" transform="matrix(1.00, 0.00, -0.00, -1.00, 663.1, 475.6)">,</text><text xml:space="preserve" font-family="CourierNewPSMT,Courier New" font-size="30.0" fill="#000000" transform="matrix(1.00, 0.00, -0.00, -1.00, 681.1, 475.6)"> </text><text xml:space="preserve" font-family="CourierNewPSMT,Courier New" font-size="30.0" fill="#CC1C00" transform="matrix(1.00, 0.00, -0.00, -1.00, 699.1, 475.6)">“</text><text xml:space="preserve" font-family="CourierNewPSMT,Courier New" font-size="30.0" fill="#CC1C00" transform="matrix(1.00, 0.00, -0.00, -1.00, 717.1, 475.6)">3</text><text xml:space="preserve" font-family="CourierNewPSMT,Courier New" font-size="30.0" fill="#CC1C00" transform="matrix(1.00, 0.00, -0.00, -1.00, 735.1, 475.6)">"</text><text xml:space="preserve" font-family="CourierNewPSMT,Courier New" font-size="30.0" fill="#000000" transform="matrix(1.00, 0.00, -0.00, -1.00, 753.1, 475.6)">)</text><text xml:space="preserve" font-family="CourierNewPSMT,Courier New" font-size="30.0" fill="#000000" transform="matrix(1.00, 0.00, -0.00, -1.00, 771.1, 475.6)">,</text><text xml:space="preserve" font-family="CourierNewPSMT,Courier New" font-size="30.0" fill="#000000" transform="matrix(1.00, 0.00, -0.00, -1.00, 789.1, 475.6)"> </text><text xml:space="preserve" font-family="CourierNewPSMT,Courier New" font-size="30.0" fill="#000000" transform="matrix(1.00, 0.00, -0.00, -1.00, 69.0, 441.6)"> </text><text xml:space="preserve" font-family="CourierNewPSMT,Courier New" font-size="30.0" fill="#000000" transform="matrix(1.00, 0.00, -0.00, -1.00, 87.0, 441.6)"> </text><text xml:space="preserve" font-family="CourierNewPSMT,Courier New" font-size="30.0" fill="#000000" transform="matrix(1.00, 0.00, -0.00, -1.00, 105.0, 441.6)"> </text><text xml:space="preserve" font-family="CourierNewPSMT,Courier New" font-size="30.0" fill="#000000" transform="matrix(1.00, 0.00, -0.00, -1.00, 123.0, 441.6)"> </text><text xml:space="preserve" font-family="CourierNewPSMT,Courier New" font-size="30.0" fill="#000000" transform="matrix(1.00, 0.00, -0.00, -1.00, 141.0, 441.6)"> </text><text xml:space="preserve" font-family="CourierNewPSMT,Courier New" font-size="30.0" fill="#000000" transform="matrix(1.00, 0.00, -0.00, -1.00, 159.0, 441.6)"> </text><text xml:space="preserve" font-family="CourierNewPSMT,Courier New" font-size="30.0" fill="#000000" transform="matrix(1.00, 0.00, -0.00, -1.00, 177.0, 441.6)"> </text><text xml:space="preserve" font-family="CourierNewPSMT,Courier New" font-size="30.0" fill="#000000" transform="matrix(1.00, 0.00, -0.00, -1.00, 195.0, 441.6)"> </text><text xml:space="preserve" font-family="CourierNewPSMT,Courier New" font-size="30.0" fill="#000000" transform="matrix(1.00, 0.00, -0.00, -1.00, 213.0, 441.6)"> </text><text xml:space="preserve" font-family="CourierNewPSMT,Courier New" font-size="30.0" fill="#000000" transform="matrix(1.00, 0.00, -0.00, -1.00, 231.1, 441.6)">(</text><text xml:space="preserve" font-family="CourierNewPSMT,Courier New" font-size="30.0" fill="#000000" transform="matrix(1.00, 0.00, -0.00, -1.00, 249.1, 441.6)">s</text><text xml:space="preserve" font-family="CourierNewPSMT,Courier New" font-size="30.0" fill="#000000" transform="matrix(1.00, 0.00, -0.00, -1.00, 267.1, 441.6)">1</text><text xml:space="preserve" font-family="CourierNewPSMT,Courier New" font-size="30.0" fill="#000000" transform="matrix(1.00, 0.00, -0.00, -1.00, 285.1, 441.6)">,</text><text xml:space="preserve" font-family="CourierNewPSMT,Courier New" font-size="30.0" fill="#000000" transform="matrix(1.00, 0.00, -0.00, -1.00, 303.1, 441.6)"> </text><text xml:space="preserve" font-family="CourierNewPSMT,Courier New" font-size="30.0" fill="#000000" transform="matrix(1.00, 0.00, -0.00, -1.00, 321.1, 441.6)">s</text><text xml:space="preserve" font-family="CourierNewPSMT,Courier New" font-size="30.0" fill="#000000" transform="matrix(1.00, 0.00, -0.00, -1.00, 339.1, 441.6)">2</text><text xml:space="preserve" font-family="CourierNewPSMT,Courier New" font-size="30.0" fill="#000000" transform="matrix(1.00, 0.00, -0.00, -1.00, 357.1, 441.6)">)</text><text xml:space="preserve" font-family="CourierNewPSMT,Courier New" font-size="30.0" fill="#000000" transform="matrix(1.00, 0.00, -0.00, -1.00, 375.1, 441.6)"> </text><text xml:space="preserve" font-family="CourierNewPSMT,Courier New" font-size="30.0" fill="#000000" transform="matrix(1.00, 0.00, -0.00, -1.00, 393.1, 441.6)">-</text><text xml:space="preserve" font-family="CourierNewPSMT,Courier New" font-size="30.0" fill="#000000" transform="matrix(1.00, 0.00, -0.00, -1.00, 411.1, 441.6)">&gt;</text><text xml:space="preserve" font-family="CourierNewPSMT,Courier New" font-size="30.0" fill="#000000" transform="matrix(1.00, 0.00, -0.00, -1.00, 429.1, 441.6)"> </text><text xml:space="preserve" font-family="CourierNewPSMT,Courier New" font-size="30.0" fill="#000000" transform="matrix(1.00, 0.00, -0.00, -1.00, 447.1, 441.6)">s</text><text xml:space="preserve" font-family="CourierNewPSMT,Courier New" font-size="30.0" fill="#000000" transform="matrix(1.00, 0.00, -0.00, -1.00, 465.1, 441.6)">1</text><text xml:space="preserve" font-family="CourierNewPSMT,Courier New" font-size="30.0" fill="#000000" transform="matrix(1.00, 0.00, -0.00, -1.00, 483.1, 441.6)"> </text><text xml:space="preserve" font-family="CourierNewPSMT,Courier New" font-size="30.0" fill="#000000" transform="matrix(1.00, 0.00, -0.00, -1.00, 501.1, 441.6)">+</text><text xml:space="preserve" font-family="CourierNewPSMT,Courier New" font-size="30.0" fill="#000000" transform="matrix(1.00, 0.00, -0.00, -1.00, 519.1, 441.6)"> </text><text xml:space="preserve" font-family="CourierNewPSMT,Courier New" font-size="30.0" fill="#000000" transform="matrix(1.00, 0.00, -0.00, -1.00, 537.2, 441.6)">s</text><text xml:space="preserve" font-family="CourierNewPSMT,Courier New" font-size="30.0" fill="#000000" transform="matrix(1.00, 0.00, -0.00, -1.00, 555.2, 441.6)">2</text><text xml:space="preserve" font-family="CourierNewPSMT,Courier New" font-size="30.0" fill="#000000" transform="matrix(1.00, 0.00, -0.00, -1.00, 573.1, 441.6)"> </text><text xml:space="preserve" font-family="CourierNewPSMT,Courier New" font-size="30.0" fill="#000000" transform="matrix(1.00, 0.00, -0.00, -1.00, 69.0, 407.6)"> </text><text xml:space="preserve" font-family="CourierNewPSMT,Courier New" font-size="30.0" fill="#000000" transform="matrix(1.00, 0.00, -0.00, -1.00, 87.0, 407.6)"> </text><text xml:space="preserve" font-family="CourierNewPSMT,Courier New" font-size="30.0" fill="#000000" transform="matrix(1.00, 0.00, -0.00, -1.00, 105.0, 407.6)"> </text><text xml:space="preserve" font-family="CourierNewPSMT,Courier New" font-size="30.0" fill="#000000" transform="matrix(1.00, 0.00, -0.00, -1.00, 123.0, 407.6)"> </text><text xml:space="preserve" font-family="CourierNewPSMT,Courier New" font-size="30.0" fill="#000000" transform="matrix(1.00, 0.00, -0.00, -1.00, 141.0, 407.6)">)</text><text xml:space="preserve" font-family="CourierNewPSMT,Courier New" font-size="30.0" fill="#000000" transform="matrix(1.00, 0.00, -0.00, -1.00, 159.0, 407.6)"> </text><text xml:space="preserve" font-family="CourierNewPSMT,Courier New" font-size="30.0" fill="#000000" transform="matrix(1.00, 0.00, -0.00, -1.00, 69.0, 373.6)"> </text><text xml:space="preserve" font-family="CourierNewPSMT,Courier New" font-size="30.0" fill="#000000" transform="matrix(1.00, 0.00, -0.00, -1.00, 87.0, 373.6)"> </text><text xml:space="preserve" font-family="CourierNewPSMT,Courier New" font-size="30.0" fill="#000000" transform="matrix(1.00, 0.00, -0.00, -1.00, 105.0, 373.6)"> </text><text xml:space="preserve" font-family="CourierNewPSMT,Courier New" font-size="30.0" fill="#000000" transform="matrix(1.00, 0.00, -0.00, -1.00, 123.0, 373.6)"> </text><text xml:space="preserve" font-family="CourierNewPSMT,Courier New" font-size="30.0" fill="#000000" transform="matrix(1.00, 0.00, -0.00, -1.00, 141.0, 373.6)">.</text><text xml:space="preserve" font-family="CourierNewPSMT,Courier New" font-size="30.0" fill="#021993" transform="matrix(1.00, 0.00, -0.00, -1.00, 159.0, 373.6)">s</text><text xml:space="preserve" font-family="CourierNewPSMT,Courier New" font-size="30.0" fill="#021993" transform="matrix(1.00, 0.00, -0.00, -1.00, 177.0, 373.6)">u</text><text xml:space="preserve" font-family="CourierNewPSMT,Courier New" font-size="30.0" fill="#021993" transform="matrix(1.00, 0.00, -0.00, -1.00, 195.0, 373.6)">b</text><text xml:space="preserve" font-family="CourierNewPSMT,Courier New" font-size="30.0" fill="#021993" transform="matrix(1.00, 0.00, -0.00, -1.00, 213.0, 373.6)">s</text><text xml:space="preserve" font-family="CourierNewPSMT,Courier New" font-size="30.0" fill="#021993" transform="matrix(1.00, 0.00, -0.00, -1.00, 231.0, 373.6)">c</text><text xml:space="preserve" font-family="CourierNewPSMT,Courier New" font-size="30.0" fill="#021993" transform="matrix(1.00, 0.00, -0.00, -1.00, 249.0, 373.6)">r</text><text xml:space="preserve" font-family="CourierNewPSMT,Courier New" font-size="30.0" fill="#021993" transform="matrix(1.00, 0.00, -0.00, -1.00, 267.1, 373.6)">i</text><text xml:space="preserve" font-family="CourierNewPSMT,Courier New" font-size="30.0" fill="#021993" transform="matrix(1.00, 0.00, -0.00, -1.00, 285.1, 373.6)">b</text><text xml:space="preserve" font-family="CourierNewPSMT,Courier New" font-size="30.0" fill="#021993" transform="matrix(1.00, 0.00, -0.00, -1.00, 303.1, 373.6)">e</text><text xml:space="preserve" font-family="CourierNewPSMT,Courier New" font-size="30.0" fill="#000000" transform="matrix(1.00, 0.00, -0.00, -1.00, 321.0, 373.6)">(</text><text xml:space="preserve" font-family="CourierNewPSMT,Courier New" font-size="30.0" fill="#000000" transform="matrix(1.00, 0.00, -0.00, -1.00, 339.0, 373.6)">S</text><text xml:space="preserve" font-family="CourierNewPSMT,Courier New" font-size="30.0" fill="#000000" transform="matrix(1.00, 0.00, -0.00, -1.00, 357.1, 373.6)">y</text><text xml:space="preserve" font-family="CourierNewPSMT,Courier New" font-size="30.0" fill="#000000" transform="matrix(1.00, 0.00, -0.00, -1.00, 375.1, 373.6)">s</text><text xml:space="preserve" font-family="CourierNewPSMT,Courier New" font-size="30.0" fill="#000000" transform="matrix(1.00, 0.00, -0.00, -1.00, 393.1, 373.6)">t</text><text xml:space="preserve" font-family="CourierNewPSMT,Courier New" font-size="30.0" fill="#000000" transform="matrix(1.00, 0.00, -0.00, -1.00, 411.1, 373.6)">e</text><text xml:space="preserve" font-family="CourierNewPSMT,Courier New" font-size="30.0" fill="#000000" transform="matrix(1.00, 0.00, -0.00, -1.00, 429.1, 373.6)">m</text><text xml:space="preserve" font-family="CourierNewPSMT,Courier New" font-size="30.0" fill="#000000" transform="matrix(1.00, 0.00, -0.00, -1.00, 447.1, 373.6)">.</text><text xml:space="preserve" font-family="CourierNewPSMT,Courier New" font-size="30.0" fill="#000000" transform="matrix(1.00, 0.00, -0.00, -1.00, 465.1, 373.6)">o</text><text xml:space="preserve" font-family="CourierNewPSMT,Courier New" font-size="30.0" fill="#000000" transform="matrix(1.00, 0.00, -0.00, -1.00, 483.1, 373.6)">u</text><text xml:space="preserve" font-family="CourierNewPSMT,Courier New" font-size="30.0" fill="#000000" transform="matrix(1.00, 0.00, -0.00, -1.00, 501.1, 373.6)">t</text><text xml:space="preserve" font-family="CourierNewPSMT,Courier New" font-size="30.0" fill="#000000" transform="matrix(1.00, 0.00, -0.00, -1.00, 519.1, 373.6)">:</text><text xml:space="preserve" font-family="CourierNewPSMT,Courier New" font-size="30.0" fill="#000000" transform="matrix(1.00, 0.00, -0.00, -1.00, 537.1, 373.6)">:</text><text xml:space="preserve" font-family="CourierNewPSMT,Courier New" font-size="30.0" fill="#000000" transform="matrix(1.00, 0.00, -0.00, -1.00, 555.1, 373.6)">p</text><text xml:space="preserve" font-family="CourierNewPSMT,Courier New" font-size="30.0" fill="#000000" transform="matrix(1.00, 0.00, -0.00, -1.00, 573.1, 373.6)">r</text><text xml:space="preserve" font-family="CourierNewPSMT,Courier New" font-size="30.0" fill="#000000" transform="matrix(1.00, 0.00, -0.00, -1.00, 591.1, 373.6)">i</text><text xml:space="preserve" font-family="CourierNewPSMT,Courier New" font-size="30.0" fill="#000000" transform="matrix(1.00, 0.00, -0.00, -1.00, 609.1, 373.6)">n</text><text xml:space="preserve" font-family="CourierNewPSMT,Courier New" font-size="30.0" fill="#000000" transform="matrix(1.00, 0.00, -0.00, -1.00, 627.1, 373.6)">t</text><text xml:space="preserve" font-family="CourierNewPSMT,Courier New" font-size="30.0" fill="#000000" transform="matrix(1.00, 0.00, -0.00, -1.00, 645.1, 373.6)">)</text><text xml:space="preserve" font-family="CourierNewPSMT,Courier New" font-size="30.0" fill="#000000" transform="matrix(1.00, 0.00, -0.00, -1.00, 663.2, 373.6)">;</text><text xml:space="preserve" font-family="CourierNewPSMT,Courier New" font-size="30.0" fill="#000000" transform="matrix(1.00, 0.00, -0.00, -1.00, 681.2, 373.6)"> </text><g opacity="0.15"><g><clipPath id="clip0x600001cab520"><path d="M 125.0 393.0 L 791.0 393.0 L 791.0 534.0 L 125.0 534.0 Z M 125.0 393.0 "></path></clipPath><g clip-path="url(#clip0x600001cab520)"><path d="M 127.0 424.1 L 127.0 502.6 C 127.0 519.1 140.4 532.0 156.9 532.0 L 759.4 532.0 C 776.0 532.0 789.0 519.1 789.0 502.6 L 789.0 424.1 C 789.0 407.6 776.0 394.0 759.4 394.0 L 156.9 394.0 C 140.4 394.0 127.0 407.6 127.0 424.1 Z M 127.0 424.1 " fill="#7F8685"></path></g></g></g><text xml:space="preserve" font-family="GillSans-Light,Gill Sans" font-size="72.0" fill="#525252" transform="matrix(1.00, 0.00, -0.00, -1.00, 463.3, 628.2)">Z</text><text xml:space="preserve" font-family="GillSans-Light,Gill Sans" font-size="72.0" fill="#525252" transform="matrix(1.00, 0.00, -0.00, -1.00, 509.0, 628.2)">I</text><text xml:space="preserve" font-family="GillSans-Light,Gill Sans" font-size="72.0" fill="#525252" transform="matrix(1.00, 0.00, -0.00, -1.00, 524.0, 628.2)">P</text></g></svg>