<?xml version="1.0" encoding="UTF-8" standalone="no"?><svg xmlns="http://www.w3.org/2000/svg" xmlns:xlink="http://www.w3.org/1999/xlink" clip-rule="evenodd" stroke-miterlimit="10" viewBox="0 0 209 144"><desc>SVG generated by Keynote</desc><defs></defs><g transform="matrix(1.00, 0.00, -0.00, -1.00, 0.0, 144.0)"><g><clipPath id="clip0x600001ab80c0"><path d="M 106.5 0.5 L 208.5 0.5 L 208.5 143.5 L 106.5 143.5 Z M 106.5 0.5 "></path></clipPath><g clip-path="url(#clip0x600001ab80c0)"><path d="M 107.5 57.5 L 107.0 127.5 C 107.0 135.8 114.2 142.0 122.5 142.0 L 192.5 142.0 C 200.8 142.0 207.0 135.8 207.0 127.5 L 207.0 57.5 C 207.0 49.2 200.8 42.0 192.5 42.0 L 122.5 42.0 C 114.2 42.0 107.5 49.2 107.5 57.5 Z M 107.5 57.5 " fill="#AA1802"></path><image xlink:href="C9084A9E7ED14004D0C0BF1B0832B913.png" width="417.00" height="171.00" transform="matrix(0.24, 0.00, -0.00, -0.24, 107.5, 42.5)"></image></g></g><g><clipPath id="clip0x600001ab86c0"><path d="M 101.3 42.5 L 213.7 42.5 L 213.7 142.5 L 101.3 142.5 Z M 101.3 42.5 "></path></clipPath><g clip-path="url(#clip0x600001ab86c0)"><text xml:space="preserve" font-family="GillSans-Light,Gill Sans" font-size="36.0" fill="#FEFFFF" transform="matrix(1.00, 0.00, -0.00, -1.00, 148.5, 80.2)">3</text></g></g><g><clipPath id="clip0x600001ab8a80"><path d="M 0.5 86.7 L 108.5 86.7 L 108.5 98.3 L 0.5 98.3 Z M 0.5 86.7 "></path></clipPath><g clip-path="url(#clip0x600001ab8a80)"><path d="M 0.0 0.0 C 32.1 0.0 64.3 0.5 96.4 0.5 L 97.5 0.5 " fill="none" stroke="#595E5D" stroke-width="2.00" transform="matrix(1.00, 0.00, 0.00, -1.00, 1.5, 92.5)"></path><path d="M 98.0 87.2 L 107.6 92.0 L 98.0 96.8 Z M 98.0 87.2 " fill="#595E5D"></path></g></g></g></svg>