<?xml version="1.0" encoding="UTF-8" standalone="no"?><svg xmlns="http://www.w3.org/2000/svg" xmlns:xlink="http://www.w3.org/1999/xlink" clip-rule="evenodd" stroke-miterlimit="10" viewBox="0 0 1024 768"><desc>SVG generated by Keynote</desc><defs></defs><g transform="matrix(1.00, 0.00, -0.00, -1.00, 0.0, 768.0)"><g><clipPath id="clip0x6080018abbe0"><path d="M 0.0 768.0 L 1024.0 768.0 L 1024.0 0.0 L 0.0 0.0 Z M 0.0 768.0 "></path></clipPath><g clip-path="url(#clip0x6080018abbe0)"><image xlink:href="../../14475E20-3AC1-427A-883A-B77C5AE27FDA/assets/574DCE55A4CF432400CBDDDE1DFDFC9B.jpeg" width="2048.00" height="1536.00" transform="matrix(0.50, 0.00, -0.00, -0.50, 0.0, 768.0)"></image></g></g><g><clipPath id="clip0x6000018be180"><path d="M 614.4 579.4 L 830.5 662.3 L 867.0 567.1 L 651.0 484.2 Z M 614.4 579.4 "></path></clipPath><g clip-path="url(#clip0x6000018be180)"><path d="M 5.0 0.0 C 2.2 0.0 0.0 2.2 0.0 5.0 L 0.0 40.0 L -20.0 50.0 L 0.0 60.0 L 0.0 93.0 C 0.0 95.8 2.2 98.0 5.0 98.0 L 201.2 98.0 C 203.9 98.0 206.2 95.8 206.2 93.0 L 206.2 5.0 C 206.2 2.2 203.9 0.0 201.2 0.0 L 5.0 0.0 Z M 5.0 0.0 " fill="none" stroke="#7F8685" stroke-width="2.00" transform="matrix(0.93, 0.36, 0.36, -0.93, 636.8, 585.9)"></path></g></g><g><clipPath id="clip0x6000018ad7a0"><path d="M 630.1 588.9 L 832.3 666.5 L 869.3 570.1 L 667.1 492.5 Z M 630.1 588.9 "></path></clipPath><g clip-path="url(#clip0x6000018ad7a0)"><text xml:space="preserve" font-family="GillSans-Light,Gill Sans" font-size="36.0" fill="#525252" transform="matrix(0.93, 0.36, 0.36, -0.93, 662.5, 555.6)">B</text><text xml:space="preserve" font-family="GillSans-Light,Gill Sans" font-size="36.0" fill="#525252" transform="matrix(0.93, 0.36, 0.36, -0.93, 680.4, 562.5)">u</text><text xml:space="preserve" font-family="GillSans-Light,Gill Sans" font-size="36.0" fill="#525252" transform="matrix(0.93, 0.36, 0.36, -0.93, 696.8, 568.8)">t</text><text xml:space="preserve" font-family="GillSans-Light,Gill Sans" font-size="36.0" fill="#525252" transform="matrix(0.93, 0.36, 0.36, -0.93, 707.0, 572.7)">.</text><text xml:space="preserve" font-family="GillSans-Light,Gill Sans" font-size="36.0" fill="#525252" transform="matrix(0.93, 0.36, 0.36, -0.93, 712.9, 575.0)">.</text><text xml:space="preserve" font-family="GillSans-Light,Gill Sans" font-size="36.0" fill="#525252" transform="matrix(0.93, 0.36, 0.36, -0.93, 716.2, 576.2)"> </text><text xml:space="preserve" font-family="GillSans-Light,Gill Sans" font-size="36.0" fill="#525252" transform="matrix(0.93, 0.36, 0.36, -0.93, 725.5, 579.8)">i</text><text xml:space="preserve" font-family="GillSans-Light,Gill Sans" font-size="36.0" fill="#525252" transform="matrix(0.93, 0.36, 0.36, -0.93, 731.8, 582.2)">s</text><text xml:space="preserve" font-family="GillSans-Light,Gill Sans" font-size="36.0" fill="#525252" transform="matrix(0.93, 0.36, 0.36, -0.93, 743.7, 586.8)">n</text><text xml:space="preserve" font-family="GillSans-Light,Gill Sans" font-size="36.0" fill="#525252" transform="matrix(0.93, 0.36, 0.36, -0.93, 760.2, 593.1)">’</text><text xml:space="preserve" font-family="GillSans-Light,Gill Sans" font-size="36.0" fill="#525252" transform="matrix(0.93, 0.36, 0.36, -0.93, 766.1, 595.4)">t</text><text xml:space="preserve" font-family="GillSans-Light,Gill Sans" font-size="36.0" fill="#525252" transform="matrix(0.93, 0.36, 0.36, -0.93, 776.3, 599.3)"> </text><text xml:space="preserve" font-family="GillSans-Light,Gill Sans" font-size="36.0" fill="#525252" transform="matrix(0.93, 0.36, 0.36, -0.93, 785.6, 602.9)">t</text><text xml:space="preserve" font-family="GillSans-Light,Gill Sans" font-size="36.0" fill="#525252" transform="matrix(0.93, 0.36, 0.36, -0.93, 795.7, 606.8)">h</text><text xml:space="preserve" font-family="GillSans-Light,Gill Sans" font-size="36.0" fill="#525252" transform="matrix(0.93, 0.36, 0.36, -0.93, 812.2, 613.1)">i</text><text xml:space="preserve" font-family="GillSans-Light,Gill Sans" font-size="36.0" fill="#525252" transform="matrix(0.93, 0.36, 0.36, -0.93, 818.5, 615.5)">s</text><text xml:space="preserve" font-family="GillSans-Light,Gill Sans" font-size="36.0" fill="#525252" transform="matrix(0.93, 0.36, 0.36, -0.93, 830.4, 620.1)"> </text><text xml:space="preserve" font-family="GillSans-Light,Gill Sans" font-size="36.0" fill="#525252" transform="matrix(0.93, 0.36, 0.36, -0.93, 683.3, 519.7)">t</text><text xml:space="preserve" font-family="GillSans-Light,Gill Sans" font-size="36.0" fill="#525252" transform="matrix(0.93, 0.36, 0.36, -0.93, 693.4, 523.6)">h</text><text xml:space="preserve" font-family="GillSans-Light,Gill Sans" font-size="36.0" fill="#525252" transform="matrix(0.93, 0.36, 0.36, -0.93, 709.9, 529.9)">e</text><text xml:space="preserve" font-family="GillSans-Light,Gill Sans" font-size="36.0" fill="#525252" transform="matrix(0.93, 0.36, 0.36, -0.93, 726.0, 536.1)"> </text><text xml:space="preserve" font-family="GillSans-Light,Gill Sans" font-size="36.0" fill="#525252" transform="matrix(0.93, 0.36, 0.36, -0.93, 735.3, 539.7)">s</text><text xml:space="preserve" font-family="GillSans-Light,Gill Sans" font-size="36.0" fill="#525252" transform="matrix(0.93, 0.36, 0.36, -0.93, 747.2, 544.2)">a</text><text xml:space="preserve" font-family="GillSans-Light,Gill Sans" font-size="36.0" fill="#525252" transform="matrix(0.93, 0.36, 0.36, -0.93, 761.5, 549.7)">m</text><text xml:space="preserve" font-family="GillSans-Light,Gill Sans" font-size="36.0" fill="#525252" transform="matrix(0.93, 0.36, 0.36, -0.93, 787.4, 559.7)">e</text><text xml:space="preserve" font-family="GillSans-Light,Gill Sans" font-size="36.0" fill="#525252" transform="matrix(0.93, 0.36, 0.36, -0.93, 803.5, 565.9)"> </text><text xml:space="preserve" font-family="GillSans-Light,Gill Sans" font-size="36.0" fill="#525252" transform="matrix(0.93, 0.36, 0.36, -0.93, 812.9, 569.4)">a</text><text xml:space="preserve" font-family="GillSans-Light,Gill Sans" font-size="36.0" fill="#525252" transform="matrix(0.93, 0.36, 0.36, -0.93, 827.2, 574.9)">s</text></g></g><g><clipPath id="clip0x6000018acde0"><path d="M 60.5 376.6 L 810.6 376.6 L 810.6 550.9 L 60.5 550.9 Z M 60.5 376.6 "></path></clipPath><g clip-path="url(#clip0x6000018acde0)"><text xml:space="preserve" font-family="CourierNewPSMT,Courier New" font-size="30.0" fill="#000000" transform="matrix(1.00, 0.00, -0.00, -1.00, 69.0, 517.4)">S</text><text xml:space="preserve" font-family="CourierNewPSMT,Courier New" font-size="30.0" fill="#000000" transform="matrix(1.00, 0.00, -0.00, -1.00, 87.0, 517.4)">t</text><text xml:space="preserve" font-family="CourierNewPSMT,Courier New" font-size="30.0" fill="#000000" transform="matrix(1.00, 0.00, -0.00, -1.00, 105.0, 517.4)">r</text><text xml:space="preserve" font-family="CourierNewPSMT,Courier New" font-size="30.0" fill="#000000" transform="matrix(1.00, 0.00, -0.00, -1.00, 123.0, 517.4)">e</text><text xml:space="preserve" font-family="CourierNewPSMT,Courier New" font-size="30.0" fill="#000000" transform="matrix(1.00, 0.00, -0.00, -1.00, 141.0, 517.4)">a</text><text xml:space="preserve" font-family="CourierNewPSMT,Courier New" font-size="30.0" fill="#000000" transform="matrix(1.00, 0.00, -0.00, -1.00, 159.0, 517.4)">m</text><text xml:space="preserve" font-family="CourierNewPSMT,Courier New" font-size="30.0" fill="#000000" transform="matrix(1.00, 0.00, -0.00, -1.00, 177.0, 517.4)"> </text><text xml:space="preserve" font-family="CourierNewPSMT,Courier New" font-size="30.0" fill="#000000" transform="matrix(1.00, 0.00, -0.00, -1.00, 69.0, 483.4)"> </text><text xml:space="preserve" font-family="CourierNewPSMT,Courier New" font-size="30.0" fill="#000000" transform="matrix(1.00, 0.00, -0.00, -1.00, 87.0, 483.4)"> </text><text xml:space="preserve" font-family="CourierNewPSMT,Courier New" font-size="30.0" fill="#000000" transform="matrix(1.00, 0.00, -0.00, -1.00, 105.0, 483.4)"> </text><text xml:space="preserve" font-family="CourierNewPSMT,Courier New" font-size="30.0" fill="#000000" transform="matrix(1.00, 0.00, -0.00, -1.00, 123.0, 483.4)"> </text><text xml:space="preserve" font-family="CourierNewPSMT,Courier New" font-size="30.0" fill="#000000" transform="matrix(1.00, 0.00, -0.00, -1.00, 141.0, 483.4)">.</text><text xml:space="preserve" font-family="CourierNewPSMT,Courier New" font-size="30.0" fill="#021993" transform="matrix(1.00, 0.00, -0.00, -1.00, 159.0, 483.4)">o</text><text xml:space="preserve" font-family="CourierNewPSMT,Courier New" font-size="30.0" fill="#021993" transform="matrix(1.00, 0.00, -0.00, -1.00, 177.0, 483.4)">f</text><text xml:space="preserve" font-family="CourierNewPSMT,Courier New" font-size="30.0" fill="#000000" transform="matrix(1.00, 0.00, -0.00, -1.00, 195.0, 483.4)">(</text><text xml:space="preserve" font-family="CourierNewPSMT,Courier New" font-size="30.0" fill="#CC1C00" transform="matrix(1.00, 0.00, -0.00, -1.00, 213.0, 483.4)">"</text><text xml:space="preserve" font-family="CourierNewPSMT,Courier New" font-size="30.0" fill="#CC1C00" transform="matrix(1.00, 0.00, -0.00, -1.00, 231.0, 483.4)">A</text><text xml:space="preserve" font-family="CourierNewPSMT,Courier New" font-size="30.0" fill="#CC1C00" transform="matrix(1.00, 0.00, -0.00, -1.00, 249.0, 483.4)">"</text><text xml:space="preserve" font-family="CourierNewPSMT,Courier New" font-size="30.0" fill="#000000" transform="matrix(1.00, 0.00, -0.00, -1.00, 267.0, 483.4)">,</text><text xml:space="preserve" font-family="CourierNewPSMT,Courier New" font-size="30.0" fill="#000000" transform="matrix(1.00, 0.00, -0.00, -1.00, 285.0, 483.4)"> </text><text xml:space="preserve" font-family="CourierNewPSMT,Courier New" font-size="30.0" fill="#CC1C00" transform="matrix(1.00, 0.00, -0.00, -1.00, 303.0, 483.4)">"</text><text xml:space="preserve" font-family="CourierNewPSMT,Courier New" font-size="30.0" fill="#CC1C00" transform="matrix(1.00, 0.00, -0.00, -1.00, 321.0, 483.4)">B</text><text xml:space="preserve" font-family="CourierNewPSMT,Courier New" font-size="30.0" fill="#CC1C00" transform="matrix(1.00, 0.00, -0.00, -1.00, 339.0, 483.4)">"</text><text xml:space="preserve" font-family="CourierNewPSMT,Courier New" font-size="30.0" fill="#000000" transform="matrix(1.00, 0.00, -0.00, -1.00, 357.0, 483.4)">,</text><text xml:space="preserve" font-family="CourierNewPSMT,Courier New" font-size="30.0" fill="#000000" transform="matrix(1.00, 0.00, -0.00, -1.00, 375.1, 483.4)"> </text><text xml:space="preserve" font-family="CourierNewPSMT,Courier New" font-size="30.0" fill="#CC1C00" transform="matrix(1.00, 0.00, -0.00, -1.00, 393.1, 483.4)">"</text><text xml:space="preserve" font-family="CourierNewPSMT,Courier New" font-size="30.0" fill="#CC1C00" transform="matrix(1.00, 0.00, -0.00, -1.00, 411.1, 483.4)">C</text><text xml:space="preserve" font-family="CourierNewPSMT,Courier New" font-size="30.0" fill="#CC1C00" transform="matrix(1.00, 0.00, -0.00, -1.00, 429.1, 483.4)">"</text><text xml:space="preserve" font-family="CourierNewPSMT,Courier New" font-size="30.0" fill="#000000" transform="matrix(1.00, 0.00, -0.00, -1.00, 447.1, 483.4)">)</text><text xml:space="preserve" font-family="CourierNewPSMT,Courier New" font-size="30.0" fill="#000000" transform="matrix(1.00, 0.00, -0.00, -1.00, 465.1, 483.4)"> </text><text xml:space="preserve" font-family="CourierNewPSMT,Courier New" font-size="30.0" fill="#000000" transform="matrix(1.00, 0.00, -0.00, -1.00, 69.0, 449.4)"> </text><text xml:space="preserve" font-family="CourierNewPSMT,Courier New" font-size="30.0" fill="#000000" transform="matrix(1.00, 0.00, -0.00, -1.00, 87.0, 449.4)"> </text><text xml:space="preserve" font-family="CourierNewPSMT,Courier New" font-size="30.0" fill="#000000" transform="matrix(1.00, 0.00, -0.00, -1.00, 105.0, 449.4)"> </text><text xml:space="preserve" font-family="CourierNewPSMT,Courier New" font-size="30.0" fill="#000000" transform="matrix(1.00, 0.00, -0.00, -1.00, 123.0, 449.4)"> </text><text xml:space="preserve" font-family="CourierNewPSMT,Courier New" font-size="30.0" fill="#000000" transform="matrix(1.00, 0.00, -0.00, -1.00, 141.0, 449.4)">.</text><text xml:space="preserve" font-family="CourierNewPSMT,Courier New" font-size="30.0" fill="#021993" transform="matrix(1.00, 0.00, -0.00, -1.00, 159.0, 449.4)">f</text><text xml:space="preserve" font-family="CourierNewPSMT,Courier New" font-size="30.0" fill="#021993" transform="matrix(1.00, 0.00, -0.00, -1.00, 177.0, 449.4)">o</text><text xml:space="preserve" font-family="CourierNewPSMT,Courier New" font-size="30.0" fill="#021993" transform="matrix(1.00, 0.00, -0.00, -1.00, 195.0, 449.4)">r</text><text xml:space="preserve" font-family="CourierNewPSMT,Courier New" font-size="30.0" fill="#021993" transform="matrix(1.00, 0.00, -0.00, -1.00, 213.0, 449.4)">E</text><text xml:space="preserve" font-family="CourierNewPSMT,Courier New" font-size="30.0" fill="#021993" transform="matrix(1.00, 0.00, -0.00, -1.00, 231.0, 449.4)">a</text><text xml:space="preserve" font-family="CourierNewPSMT,Courier New" font-size="30.0" fill="#021993" transform="matrix(1.00, 0.00, -0.00, -1.00, 249.0, 449.4)">c</text><text xml:space="preserve" font-family="CourierNewPSMT,Courier New" font-size="30.0" fill="#021993" transform="matrix(1.00, 0.00, -0.00, -1.00, 267.1, 449.4)">h</text><text xml:space="preserve" font-family="CourierNewPSMT,Courier New" font-size="30.0" fill="#000000" transform="matrix(1.00, 0.00, -0.00, -1.00, 285.0, 449.4)">(</text><text xml:space="preserve" font-family="CourierNewPSMT,Courier New" font-size="30.0" fill="#000000" transform="matrix(1.00, 0.00, -0.00, -1.00, 303.0, 449.4)">S</text><text xml:space="preserve" font-family="CourierNewPSMT,Courier New" font-size="30.0" fill="#000000" transform="matrix(1.00, 0.00, -0.00, -1.00, 321.0, 449.4)">y</text><text xml:space="preserve" font-family="CourierNewPSMT,Courier New" font-size="30.0" fill="#000000" transform="matrix(1.00, 0.00, -0.00, -1.00, 339.1, 449.4)">s</text><text xml:space="preserve" font-family="CourierNewPSMT,Courier New" font-size="30.0" fill="#000000" transform="matrix(1.00, 0.00, -0.00, -1.00, 357.1, 449.4)">t</text><text xml:space="preserve" font-family="CourierNewPSMT,Courier New" font-size="30.0" fill="#000000" transform="matrix(1.00, 0.00, -0.00, -1.00, 375.1, 449.4)">e</text><text xml:space="preserve" font-family="CourierNewPSMT,Courier New" font-size="30.0" fill="#000000" transform="matrix(1.00, 0.00, -0.00, -1.00, 393.1, 449.4)">m</text><text xml:space="preserve" font-family="CourierNewPSMT,Courier New" font-size="30.0" fill="#000000" transform="matrix(1.00, 0.00, -0.00, -1.00, 411.1, 449.4)">.</text><text xml:space="preserve" font-family="CourierNewPSMT,Courier New" font-size="30.0" fill="#000000" transform="matrix(1.00, 0.00, -0.00, -1.00, 429.1, 449.4)">o</text><text xml:space="preserve" font-family="CourierNewPSMT,Courier New" font-size="30.0" fill="#000000" transform="matrix(1.00, 0.00, -0.00, -1.00, 447.1, 449.4)">u</text><text xml:space="preserve" font-family="CourierNewPSMT,Courier New" font-size="30.0" fill="#000000" transform="matrix(1.00, 0.00, -0.00, -1.00, 465.1, 449.4)">t</text><text xml:space="preserve" font-family="CourierNewPSMT,Courier New" font-size="30.0" fill="#000000" transform="matrix(1.00, 0.00, -0.00, -1.00, 483.1, 449.4)">:</text><text xml:space="preserve" font-family="CourierNewPSMT,Courier New" font-size="30.0" fill="#000000" transform="matrix(1.00, 0.00, -0.00, -1.00, 501.1, 449.4)">:</text><text xml:space="preserve" font-family="CourierNewPSMT,Courier New" font-size="30.0" fill="#000000" transform="matrix(1.00, 0.00, -0.00, -1.00, 519.1, 449.4)">p</text><text xml:space="preserve" font-family="CourierNewPSMT,Courier New" font-size="30.0" fill="#000000" transform="matrix(1.00, 0.00, -0.00, -1.00, 537.1, 449.4)">r</text><text xml:space="preserve" font-family="CourierNewPSMT,Courier New" font-size="30.0" fill="#000000" transform="matrix(1.00, 0.00, -0.00, -1.00, 555.1, 449.4)">i</text><text xml:space="preserve" font-family="CourierNewPSMT,Courier New" font-size="30.0" fill="#000000" transform="matrix(1.00, 0.00, -0.00, -1.00, 573.1, 449.4)">n</text><text xml:space="preserve" font-family="CourierNewPSMT,Courier New" font-size="30.0" fill="#000000" transform="matrix(1.00, 0.00, -0.00, -1.00, 591.1, 449.4)">t</text><text xml:space="preserve" font-family="CourierNewPSMT,Courier New" font-size="30.0" fill="#000000" transform="matrix(1.00, 0.00, -0.00, -1.00, 609.1, 449.4)">)</text><text xml:space="preserve" font-family="CourierNewPSMT,Courier New" font-size="30.0" fill="#000000" transform="matrix(1.00, 0.00, -0.00, -1.00, 627.1, 449.4)">;</text><text xml:space="preserve" font-family="CourierNewPSMT,Courier New" font-size="30.0" fill="#000000" transform="matrix(1.00, 0.00, -0.00, -1.00, 645.2, 449.4)"> </text></g></g><text xml:space="preserve" font-family="GillSans-Light,Gill Sans" font-size="72.0" fill="#525252" transform="matrix(1.00, 0.00, -0.00, -1.00, 328.3, 628.2)">T</text><text xml:space="preserve" font-family="GillSans-Light,Gill Sans" font-size="72.0" fill="#525252" transform="matrix(1.00, 0.00, -0.00, -1.00, 369.6, 628.2)">H</text><text xml:space="preserve" font-family="GillSans-Light,Gill Sans" font-size="72.0" fill="#525252" transform="matrix(1.00, 0.00, -0.00, -1.00, 421.4, 628.2)">E</text><text xml:space="preserve" font-family="GillSans-Light,Gill Sans" font-size="72.0" fill="#525252" transform="matrix(1.00, 0.00, -0.00, -1.00, 456.7, 628.2)"> </text><text xml:space="preserve" font-family="GillSans-Light,Gill Sans" font-size="72.0" fill="#525252" transform="matrix(1.00, 0.00, -0.00, -1.00, 476.7, 628.2)">B</text><text xml:space="preserve" font-family="GillSans-Light,Gill Sans" font-size="72.0" fill="#525252" transform="matrix(1.00, 0.00, -0.00, -1.00, 516.4, 628.2)">A</text><text xml:space="preserve" font-family="GillSans-Light,Gill Sans" font-size="72.0" fill="#525252" transform="matrix(1.00, 0.00, -0.00, -1.00, 564.4, 628.2)">S</text><text xml:space="preserve" font-family="GillSans-Light,Gill Sans" font-size="72.0" fill="#525252" transform="matrix(1.00, 0.00, -0.00, -1.00, 598.2, 628.2)">I</text><text xml:space="preserve" font-family="GillSans-Light,Gill Sans" font-size="72.0" fill="#525252" transform="matrix(1.00, 0.00, -0.00, -1.00, 613.2, 628.2)">C</text><text xml:space="preserve" font-family="GillSans-Light,Gill Sans" font-size="72.0" fill="#525252" transform="matrix(1.00, 0.00, -0.00, -1.00, 661.9, 628.2)">S</text><g><clipPath id="clip0x6000018ab9a0"><path d="M 380.0 167.5 L 482.0 167.5 L 482.0 310.5 L 380.0 310.5 Z M 380.0 167.5 "></path></clipPath><g clip-path="url(#clip0x6000018ab9a0)"><path d="M 381.0 224.5 L 381.0 294.5 C 381.0 302.8 387.7 309.0 396.0 309.0 L 466.0 309.0 C 474.3 309.0 481.0 302.8 481.0 294.5 L 481.0 224.5 C 481.0 216.2 474.3 209.0 466.0 209.0 L 396.0 209.0 C 387.7 209.0 381.0 216.2 381.0 224.5 Z M 381.0 224.5 " fill="#AA1802"></path><image xlink:href="../../B8C86BD9-A43C-4A60-88EF-5F0D957CD35B/assets/477B1E24C99D046D8A236E3651AAB771.png" width="417.00" height="171.00" transform="matrix(0.24, 0.00, -0.00, -0.24, 381.0, 209.5)"></image></g></g><g><clipPath id="clip0x6080018b8360"><path d="M 374.8 209.5 L 487.2 209.5 L 487.2 309.5 L 374.8 309.5 Z M 374.8 209.5 "></path></clipPath><g clip-path="url(#clip0x6080018b8360)"><text xml:space="preserve" font-family="GillSans-Light,Gill Sans" font-size="36.0" fill="#FEFFFF" transform="matrix(1.00, 0.00, -0.00, -1.00, 418.8, 247.2)">C</text></g></g><g><clipPath id="clip0x6080018b5e40"><path d="M 274.0 253.7 L 382.0 253.7 L 382.0 265.3 L 274.0 265.3 Z M 274.0 253.7 "></path></clipPath><g clip-path="url(#clip0x6080018b5e40)"><path d="M 0.0 0.0 C 32.1 0.0 64.3 0.5 96.4 0.5 L 97.0 0.5 " fill="none" stroke="#595E5D" stroke-width="2.00" transform="matrix(1.00, 0.00, 0.00, -1.00, 275.0, 259.5)"></path><path d="M 371.0 254.2 L 380.6 259.0 L 371.0 263.8 Z M 371.0 254.2 " fill="#595E5D"></path></g></g><g><clipPath id="clip0x6080016a73e0"><path d="M 224.0 167.5 L 326.0 167.5 L 326.0 310.5 L 224.0 310.5 Z M 224.0 167.5 "></path></clipPath><g clip-path="url(#clip0x6080016a73e0)"><path d="M 225.0 224.5 L 225.0 294.5 C 225.0 302.8 231.7 309.0 240.0 309.0 L 310.0 309.0 C 318.3 309.0 325.0 302.8 325.0 294.5 L 325.0 224.5 C 325.0 216.2 318.3 209.0 310.0 209.0 L 240.0 209.0 C 231.7 209.0 225.0 216.2 225.0 224.5 Z M 225.0 224.5 " fill="#AA1802"></path><image xlink:href="../../B8C86BD9-A43C-4A60-88EF-5F0D957CD35B/assets/477B1E24C99D046D8A236E3651AAB771.png" width="417.00" height="171.00" transform="matrix(0.24, 0.00, -0.00, -0.24, 225.0, 209.5)"></image></g></g><g><clipPath id="clip0x608001aa2760"><path d="M 218.8 209.5 L 331.2 209.5 L 331.2 309.5 L 218.8 309.5 Z M 218.8 209.5 "></path></clipPath><g clip-path="url(#clip0x608001aa2760)"><text xml:space="preserve" font-family="GillSans-Light,Gill Sans" font-size="36.0" fill="#FEFFFF" transform="matrix(1.00, 0.00, -0.00, -1.00, 265.4, 247.2)">B</text></g></g><g><clipPath id="clip0x6080018a0b40"><path d="M 118.0 253.7 L 226.0 253.7 L 226.0 265.3 L 118.0 265.3 Z M 118.0 253.7 "></path></clipPath><g clip-path="url(#clip0x6080018a0b40)"><path d="M 0.0 0.0 C 32.1 0.0 64.3 0.5 96.4 0.5 L 97.0 0.5 " fill="none" stroke="#595E5D" stroke-width="2.00" transform="matrix(1.00, 0.00, 0.00, -1.00, 119.0, 259.5)"></path><path d="M 215.0 254.2 L 224.6 259.0 L 215.0 263.8 Z M 215.0 254.2 " fill="#595E5D"></path></g></g><path d="M 69.0 224.5 L 69.0 294.5 C 69.0 302.8 75.7 309.0 84.0 309.0 L 154.0 309.0 C 162.3 309.0 169.0 302.8 169.0 294.5 L 169.0 224.5 C 169.0 216.2 162.3 209.0 154.0 209.0 L 84.0 209.0 C 75.7 209.0 69.0 216.2 69.0 224.5 Z M 69.0 224.5 " fill="#AA1802"></path><g><clipPath id="clip0x6080018a0d20"><path d="M 62.8 209.5 L 175.2 209.5 L 175.2 309.5 L 62.8 309.5 Z M 62.8 209.5 "></path></clipPath><g clip-path="url(#clip0x6080018a0d20)"><text xml:space="preserve" font-family="GillSans-Light,Gill Sans" font-size="36.0" fill="#FEFFFF" transform="matrix(1.00, 0.00, -0.00, -1.00, 107.0, 247.2)">A</text></g></g><image xlink:href="../../B8C86BD9-A43C-4A60-88EF-5F0D957CD35B/assets/477B1E24C99D046D8A236E3651AAB771.png" width="417.00" height="171.00" transform="matrix(0.24, 0.00, -0.00, -0.24, 69.0, 209.5)"></image><path d="M 5.4 0.0 C 2.4 0.0 0.0 2.4 0.0 5.4 L 0.0 159.4 L -21.7 170.2 L 0.0 181.0 L 0.0 216.8 C 0.0 219.7 2.4 222.2 5.4 222.2 L 208.1 222.2 C 211.1 222.2 213.5 219.7 213.5 216.8 L 213.5 5.4 C 213.5 2.4 211.1 0.0 208.1 0.0 L 5.4 0.0 Z M 5.4 0.0 " fill="none" stroke="#7F8685" stroke-width="2.00" transform="matrix(0.93, -0.36, -0.36, -0.93, 737.2, 432.5)"></path><g><clipPath id="clip0x600001aa5d60"><path d="M 733.0 435.9 L 942.0 355.7 L 861.2 145.2 L 652.2 225.4 Z M 733.0 435.9 "></path></clipPath><g clip-path="url(#clip0x600001aa5d60)"><text xml:space="preserve" font-family="GillSans-Light,Gill Sans" font-size="36.0" fill="#525252" transform="matrix(0.93, -0.36, -0.36, -0.93, 746.9, 384.9)">A</text><text xml:space="preserve" font-family="GillSans-Light,Gill Sans" font-size="36.0" fill="#525252" transform="matrix(0.93, -0.36, -0.36, -0.93, 769.3, 376.3)">l</text><text xml:space="preserve" font-family="GillSans-Light,Gill Sans" font-size="36.0" fill="#525252" transform="matrix(0.93, -0.36, -0.36, -0.93, 775.6, 373.9)">m</text><text xml:space="preserve" font-family="GillSans-Light,Gill Sans" font-size="36.0" fill="#525252" transform="matrix(0.93, -0.36, -0.36, -0.93, 801.6, 363.9)">o</text><text xml:space="preserve" font-family="GillSans-Light,Gill Sans" font-size="36.0" fill="#525252" transform="matrix(0.93, -0.36, -0.36, -0.93, 819.8, 356.9)">s</text><text xml:space="preserve" font-family="GillSans-Light,Gill Sans" font-size="36.0" fill="#525252" transform="matrix(0.93, -0.36, -0.36, -0.93, 831.7, 352.4)">t</text><text xml:space="preserve" font-family="GillSans-Light,Gill Sans" font-size="36.0" fill="#525252" transform="matrix(0.93, -0.36, -0.36, -0.93, 841.8, 348.5)">,</text><text xml:space="preserve" font-family="GillSans-Light,Gill Sans" font-size="36.0" fill="#525252" transform="matrix(0.93, -0.36, -0.36, -0.93, 845.0, 347.2)"> </text><text xml:space="preserve" font-family="GillSans-Light,Gill Sans" font-size="36.0" fill="#525252" transform="matrix(0.93, -0.36, -0.36, -0.93, 854.4, 343.7)">b</text><text xml:space="preserve" font-family="GillSans-Light,Gill Sans" font-size="36.0" fill="#525252" transform="matrix(0.93, -0.36, -0.36, -0.93, 871.2, 337.2)">u</text><text xml:space="preserve" font-family="GillSans-Light,Gill Sans" font-size="36.0" fill="#525252" transform="matrix(0.93, -0.36, -0.36, -0.93, 887.7, 330.9)">t</text><text xml:space="preserve" font-family="GillSans-Light,Gill Sans" font-size="36.0" fill="#525252" transform="matrix(0.93, -0.36, -0.36, -0.93, 897.8, 327.0)"> </text><text xml:space="preserve" font-family="GillSans-Light,Gill Sans" font-size="36.0" fill="#525252" transform="matrix(0.93, -0.36, -0.36, -0.93, 735.9, 345.2)">l</text><text xml:space="preserve" font-family="GillSans-Light,Gill Sans" font-size="36.0" fill="#525252" transform="matrix(0.93, -0.36, -0.36, -0.93, 742.2, 342.8)">e</text><text xml:space="preserve" font-family="GillSans-Light,Gill Sans" font-size="36.0" fill="#525252" transform="matrix(0.93, -0.36, -0.36, -0.93, 758.3, 336.6)">t</text><text xml:space="preserve" font-family="GillSans-Light,Gill Sans" font-size="36.0" fill="#525252" transform="matrix(0.93, -0.36, -0.36, -0.93, 768.4, 332.7)">s</text><text xml:space="preserve" font-family="GillSans-Light,Gill Sans" font-size="36.0" fill="#525252" transform="matrix(0.93, -0.36, -0.36, -0.93, 780.3, 328.2)"> </text><text xml:space="preserve" font-family="GillSans-Light,Gill Sans" font-size="36.0" fill="#525252" transform="matrix(0.93, -0.36, -0.36, -0.93, 789.7, 324.6)">d</text><text xml:space="preserve" font-family="GillSans-Light,Gill Sans" font-size="36.0" fill="#525252" transform="matrix(0.93, -0.36, -0.36, -0.93, 806.8, 318.0)">i</text><text xml:space="preserve" font-family="GillSans-Light,Gill Sans" font-size="36.0" fill="#525252" transform="matrix(0.93, -0.36, -0.36, -0.93, 813.1, 315.6)">s</text><text xml:space="preserve" font-family="GillSans-Light,Gill Sans" font-size="36.0" fill="#525252" transform="matrix(0.93, -0.36, -0.36, -0.93, 825.0, 311.0)">c</text><text xml:space="preserve" font-family="GillSans-Light,Gill Sans" font-size="36.0" fill="#525252" transform="matrix(0.93, -0.36, -0.36, -0.93, 839.0, 305.6)">u</text><text xml:space="preserve" font-family="GillSans-Light,Gill Sans" font-size="36.0" fill="#525252" transform="matrix(0.93, -0.36, -0.36, -0.93, 855.5, 299.3)">s</text><text xml:space="preserve" font-family="GillSans-Light,Gill Sans" font-size="36.0" fill="#525252" transform="matrix(0.93, -0.36, -0.36, -0.93, 867.4, 294.7)">s</text><text xml:space="preserve" font-family="GillSans-Light,Gill Sans" font-size="36.0" fill="#525252" transform="matrix(0.93, -0.36, -0.36, -0.93, 879.3, 290.2)"> </text><text xml:space="preserve" font-family="GillSans-Light,Gill Sans" font-size="36.0" fill="#525252" transform="matrix(0.93, -0.36, -0.36, -0.93, 702.9, 314.0)">t</text><text xml:space="preserve" font-family="GillSans-Light,Gill Sans" font-size="36.0" fill="#525252" transform="matrix(0.93, -0.36, -0.36, -0.93, 713.1, 310.1)">h</text><text xml:space="preserve" font-family="GillSans-Light,Gill Sans" font-size="36.0" fill="#525252" transform="matrix(0.93, -0.36, -0.36, -0.93, 729.5, 303.7)">r</text><text xml:space="preserve" font-family="GillSans-Light,Gill Sans" font-size="36.0" fill="#525252" transform="matrix(0.93, -0.36, -0.36, -0.93, 740.7, 299.5)">e</text><text xml:space="preserve" font-family="GillSans-Light,Gill Sans" font-size="36.0" fill="#525252" transform="matrix(0.93, -0.36, -0.36, -0.93, 756.8, 293.3)">a</text><text xml:space="preserve" font-family="GillSans-Light,Gill Sans" font-size="36.0" fill="#525252" transform="matrix(0.93, -0.36, -0.36, -0.93, 771.2, 287.8)">d</text><text xml:space="preserve" font-family="GillSans-Light,Gill Sans" font-size="36.0" fill="#525252" transform="matrix(0.93, -0.36, -0.36, -0.93, 788.3, 281.2)">i</text><text xml:space="preserve" font-family="GillSans-Light,Gill Sans" font-size="36.0" fill="#525252" transform="matrix(0.93, -0.36, -0.36, -0.93, 794.6, 278.8)">n</text><text xml:space="preserve" font-family="GillSans-Light,Gill Sans" font-size="36.0" fill="#525252" transform="matrix(0.93, -0.36, -0.36, -0.93, 811.1, 272.4)">g</text><text xml:space="preserve" font-family="GillSans-Light,Gill Sans" font-size="36.0" fill="#525252" transform="matrix(0.93, -0.36, -0.36, -0.93, 825.4, 266.9)"> </text><text xml:space="preserve" font-family="GillSans-Light,Gill Sans" font-size="36.0" fill="#525252" transform="matrix(0.93, -0.36, -0.36, -0.93, 834.8, 263.4)">a</text><text xml:space="preserve" font-family="GillSans-Light,Gill Sans" font-size="36.0" fill="#525252" transform="matrix(0.93, -0.36, -0.36, -0.93, 849.1, 257.9)">n</text><text xml:space="preserve" font-family="GillSans-Light,Gill Sans" font-size="36.0" fill="#525252" transform="matrix(0.93, -0.36, -0.36, -0.93, 865.6, 251.5)">d</text><text xml:space="preserve" font-family="GillSans-Light,Gill Sans" font-size="36.0" fill="#525252" transform="matrix(0.93, -0.36, -0.36, -0.93, 882.7, 245.0)"> </text><text xml:space="preserve" font-family="GillSans-Light,Gill Sans" font-size="36.0" fill="#525252" transform="matrix(0.93, -0.36, -0.36, -0.93, 726.6, 261.0)">a</text><text xml:space="preserve" font-family="GillSans-Light,Gill Sans" font-size="36.0" fill="#525252" transform="matrix(0.93, -0.36, -0.36, -0.93, 740.9, 255.4)">s</text><text xml:space="preserve" font-family="GillSans-Light,Gill Sans" font-size="36.0" fill="#525252" transform="matrix(0.93, -0.36, -0.36, -0.93, 752.8, 250.9)">y</text><text xml:space="preserve" font-family="GillSans-Light,Gill Sans" font-size="36.0" fill="#525252" transform="matrix(0.93, -0.36, -0.36, -0.93, 766.9, 245.5)">n</text><text xml:space="preserve" font-family="GillSans-Light,Gill Sans" font-size="36.0" fill="#525252" transform="matrix(0.93, -0.36, -0.36, -0.93, 783.3, 239.2)">c</text><text xml:space="preserve" font-family="GillSans-Light,Gill Sans" font-size="36.0" fill="#525252" transform="matrix(0.93, -0.36, -0.36, -0.93, 797.4, 233.8)"> </text><text xml:space="preserve" font-family="GillSans-Light,Gill Sans" font-size="36.0" fill="#525252" transform="matrix(0.93, -0.36, -0.36, -0.93, 806.7, 230.2)">i</text><text xml:space="preserve" font-family="GillSans-Light,Gill Sans" font-size="36.0" fill="#525252" transform="matrix(0.93, -0.36, -0.36, -0.93, 813.0, 227.8)">n</text><text xml:space="preserve" font-family="GillSans-Light,Gill Sans" font-size="36.0" fill="#525252" transform="matrix(0.93, -0.36, -0.36, -0.93, 829.5, 221.5)"> </text><text xml:space="preserve" font-family="GillSans-Light,Gill Sans" font-size="36.0" fill="#525252" transform="matrix(0.93, -0.36, -0.36, -0.93, 684.6, 233.2)">a</text><text xml:space="preserve" font-family="GillSans-Light,Gill Sans" font-size="36.0" fill="#525252" transform="matrix(0.93, -0.36, -0.36, -0.93, 698.9, 227.7)">n</text><text xml:space="preserve" font-family="GillSans-Light,Gill Sans" font-size="36.0" fill="#525252" transform="matrix(0.93, -0.36, -0.36, -0.93, 715.4, 221.3)">o</text><text xml:space="preserve" font-family="GillSans-Light,Gill Sans" font-size="36.0" fill="#525252" transform="matrix(0.93, -0.36, -0.36, -0.93, 733.6, 214.4)">t</text><text xml:space="preserve" font-family="GillSans-Light,Gill Sans" font-size="36.0" fill="#525252" transform="matrix(0.93, -0.36, -0.36, -0.93, 743.7, 210.5)">h</text><text xml:space="preserve" font-family="GillSans-Light,Gill Sans" font-size="36.0" fill="#525252" transform="matrix(0.93, -0.36, -0.36, -0.93, 760.2, 204.1)">e</text><text xml:space="preserve" font-family="GillSans-Light,Gill Sans" font-size="36.0" fill="#525252" transform="matrix(0.93, -0.36, -0.36, -0.93, 776.3, 198.0)">r</text><text xml:space="preserve" font-family="GillSans-Light,Gill Sans" font-size="36.0" fill="#525252" transform="matrix(0.93, -0.36, -0.36, -0.93, 787.5, 193.7)"> </text><text xml:space="preserve" font-family="GillSans-Light,Gill Sans" font-size="36.0" fill="#525252" transform="matrix(0.93, -0.36, -0.36, -0.93, 796.8, 190.1)">t</text><text xml:space="preserve" font-family="GillSans-Light,Gill Sans" font-size="36.0" fill="#525252" transform="matrix(0.93, -0.36, -0.36, -0.93, 807.0, 186.2)">a</text><text xml:space="preserve" font-family="GillSans-Light,Gill Sans" font-size="36.0" fill="#525252" transform="matrix(0.93, -0.36, -0.36, -0.93, 821.3, 180.7)">l</text><text xml:space="preserve" font-family="GillSans-Light,Gill Sans" font-size="36.0" fill="#525252" transform="matrix(0.93, -0.36, -0.36, -0.93, 827.6, 178.3)">k</text></g></g></g></svg>