<?xml version="1.0" encoding="UTF-8" standalone="no"?><svg xmlns="http://www.w3.org/2000/svg" xmlns:xlink="http://www.w3.org/1999/xlink" clip-rule="evenodd" stroke-miterlimit="10" viewBox="0 0 306 297"><desc>SVG generated by Keynote</desc><defs></defs><g transform="matrix(1.00, 0.00, -0.00, -1.00, 0.0, 297.0)"><path d="M 5.4 0.0 C 2.4 0.0 0.0 2.4 0.0 5.4 L 0.0 159.4 L -21.7 170.2 L 0.0 181.0 L 0.0 216.8 C 0.0 219.7 2.4 222.2 5.4 222.2 L 208.1 222.2 C 211.1 222.2 213.5 219.7 213.5 216.8 L 213.5 5.4 C 213.5 2.4 211.1 0.0 208.1 0.0 L 5.4 0.0 Z M 5.4 0.0 " fill="none" stroke="#7F8685" stroke-width="2.00" transform="matrix(0.93, -0.36, -0.36, -0.93, 104.2, 286.5)"></path><g><clipPath id="clip0x6080018b50c0"><path d="M 100.0 289.9 L 309.0 209.7 L 228.2 -0.8 L 19.2 79.4 Z M 100.0 289.9 "></path></clipPath><g clip-path="url(#clip0x6080018b50c0)"><text xml:space="preserve" font-family="GillSans-Light,Gill Sans" font-size="36.0" fill="#525252" transform="matrix(0.93, -0.36, -0.36, -0.93, 113.9, 238.9)">A</text><text xml:space="preserve" font-family="GillSans-Light,Gill Sans" font-size="36.0" fill="#525252" transform="matrix(0.93, -0.36, -0.36, -0.93, 136.3, 230.3)">l</text><text xml:space="preserve" font-family="GillSans-Light,Gill Sans" font-size="36.0" fill="#525252" transform="matrix(0.93, -0.36, -0.36, -0.93, 142.6, 227.9)">m</text><text xml:space="preserve" font-family="GillSans-Light,Gill Sans" font-size="36.0" fill="#525252" transform="matrix(0.93, -0.36, -0.36, -0.93, 168.6, 217.9)">o</text><text xml:space="preserve" font-family="GillSans-Light,Gill Sans" font-size="36.0" fill="#525252" transform="matrix(0.93, -0.36, -0.36, -0.93, 186.8, 210.9)">s</text><text xml:space="preserve" font-family="GillSans-Light,Gill Sans" font-size="36.0" fill="#525252" transform="matrix(0.93, -0.36, -0.36, -0.93, 198.7, 206.4)">t</text><text xml:space="preserve" font-family="GillSans-Light,Gill Sans" font-size="36.0" fill="#525252" transform="matrix(0.93, -0.36, -0.36, -0.93, 208.8, 202.5)">,</text><text xml:space="preserve" font-family="GillSans-Light,Gill Sans" font-size="36.0" fill="#525252" transform="matrix(0.93, -0.36, -0.36, -0.93, 212.0, 201.2)"> </text><text xml:space="preserve" font-family="GillSans-Light,Gill Sans" font-size="36.0" fill="#525252" transform="matrix(0.93, -0.36, -0.36, -0.93, 221.4, 197.7)">b</text><text xml:space="preserve" font-family="GillSans-Light,Gill Sans" font-size="36.0" fill="#525252" transform="matrix(0.93, -0.36, -0.36, -0.93, 238.2, 191.2)">u</text><text xml:space="preserve" font-family="GillSans-Light,Gill Sans" font-size="36.0" fill="#525252" transform="matrix(0.93, -0.36, -0.36, -0.93, 254.7, 184.9)">t</text><text xml:space="preserve" font-family="GillSans-Light,Gill Sans" font-size="36.0" fill="#525252" transform="matrix(0.93, -0.36, -0.36, -0.93, 264.8, 181.0)"> </text><text xml:space="preserve" font-family="GillSans-Light,Gill Sans" font-size="36.0" fill="#525252" transform="matrix(0.93, -0.36, -0.36, -0.93, 102.9, 199.2)">l</text><text xml:space="preserve" font-family="GillSans-Light,Gill Sans" font-size="36.0" fill="#525252" transform="matrix(0.93, -0.36, -0.36, -0.93, 109.2, 196.8)">e</text><text xml:space="preserve" font-family="GillSans-Light,Gill Sans" font-size="36.0" fill="#525252" transform="matrix(0.93, -0.36, -0.36, -0.93, 125.3, 190.6)">t</text><text xml:space="preserve" font-family="GillSans-Light,Gill Sans" font-size="36.0" fill="#525252" transform="matrix(0.93, -0.36, -0.36, -0.93, 135.4, 186.7)">s</text><text xml:space="preserve" font-family="GillSans-Light,Gill Sans" font-size="36.0" fill="#525252" transform="matrix(0.93, -0.36, -0.36, -0.93, 147.3, 182.2)"> </text><text xml:space="preserve" font-family="GillSans-Light,Gill Sans" font-size="36.0" fill="#525252" transform="matrix(0.93, -0.36, -0.36, -0.93, 156.7, 178.6)">d</text><text xml:space="preserve" font-family="GillSans-Light,Gill Sans" font-size="36.0" fill="#525252" transform="matrix(0.93, -0.36, -0.36, -0.93, 173.8, 172.0)">i</text><text xml:space="preserve" font-family="GillSans-Light,Gill Sans" font-size="36.0" fill="#525252" transform="matrix(0.93, -0.36, -0.36, -0.93, 180.1, 169.6)">s</text><text xml:space="preserve" font-family="GillSans-Light,Gill Sans" font-size="36.0" fill="#525252" transform="matrix(0.93, -0.36, -0.36, -0.93, 192.0, 165.0)">c</text><text xml:space="preserve" font-family="GillSans-Light,Gill Sans" font-size="36.0" fill="#525252" transform="matrix(0.93, -0.36, -0.36, -0.93, 206.0, 159.6)">u</text><text xml:space="preserve" font-family="GillSans-Light,Gill Sans" font-size="36.0" fill="#525252" transform="matrix(0.93, -0.36, -0.36, -0.93, 222.5, 153.3)">s</text><text xml:space="preserve" font-family="GillSans-Light,Gill Sans" font-size="36.0" fill="#525252" transform="matrix(0.93, -0.36, -0.36, -0.93, 234.4, 148.7)">s</text><text xml:space="preserve" font-family="GillSans-Light,Gill Sans" font-size="36.0" fill="#525252" transform="matrix(0.93, -0.36, -0.36, -0.93, 246.3, 144.2)"> </text><text xml:space="preserve" font-family="GillSans-Light,Gill Sans" font-size="36.0" fill="#525252" transform="matrix(0.93, -0.36, -0.36, -0.93, 69.9, 168.0)">t</text><text xml:space="preserve" font-family="GillSans-Light,Gill Sans" font-size="36.0" fill="#525252" transform="matrix(0.93, -0.36, -0.36, -0.93, 80.1, 164.1)">h</text><text xml:space="preserve" font-family="GillSans-Light,Gill Sans" font-size="36.0" fill="#525252" transform="matrix(0.93, -0.36, -0.36, -0.93, 96.5, 157.7)">r</text><text xml:space="preserve" font-family="GillSans-Light,Gill Sans" font-size="36.0" fill="#525252" transform="matrix(0.93, -0.36, -0.36, -0.93, 107.7, 153.5)">e</text><text xml:space="preserve" font-family="GillSans-Light,Gill Sans" font-size="36.0" fill="#525252" transform="matrix(0.93, -0.36, -0.36, -0.93, 123.8, 147.3)">a</text><text xml:space="preserve" font-family="GillSans-Light,Gill Sans" font-size="36.0" fill="#525252" transform="matrix(0.93, -0.36, -0.36, -0.93, 138.2, 141.8)">d</text><text xml:space="preserve" font-family="GillSans-Light,Gill Sans" font-size="36.0" fill="#525252" transform="matrix(0.93, -0.36, -0.36, -0.93, 155.3, 135.2)">i</text><text xml:space="preserve" font-family="GillSans-Light,Gill Sans" font-size="36.0" fill="#525252" transform="matrix(0.93, -0.36, -0.36, -0.93, 161.6, 132.8)">n</text><text xml:space="preserve" font-family="GillSans-Light,Gill Sans" font-size="36.0" fill="#525252" transform="matrix(0.93, -0.36, -0.36, -0.93, 178.1, 126.4)">g</text><text xml:space="preserve" font-family="GillSans-Light,Gill Sans" font-size="36.0" fill="#525252" transform="matrix(0.93, -0.36, -0.36, -0.93, 192.4, 120.9)"> </text><text xml:space="preserve" font-family="GillSans-Light,Gill Sans" font-size="36.0" fill="#525252" transform="matrix(0.93, -0.36, -0.36, -0.93, 201.8, 117.4)">a</text><text xml:space="preserve" font-family="GillSans-Light,Gill Sans" font-size="36.0" fill="#525252" transform="matrix(0.93, -0.36, -0.36, -0.93, 216.1, 111.9)">n</text><text xml:space="preserve" font-family="GillSans-Light,Gill Sans" font-size="36.0" fill="#525252" transform="matrix(0.93, -0.36, -0.36, -0.93, 232.6, 105.5)">d</text><text xml:space="preserve" font-family="GillSans-Light,Gill Sans" font-size="36.0" fill="#525252" transform="matrix(0.93, -0.36, -0.36, -0.93, 249.7, 99.0)"> </text><text xml:space="preserve" font-family="GillSans-Light,Gill Sans" font-size="36.0" fill="#525252" transform="matrix(0.93, -0.36, -0.36, -0.93, 93.6, 115.0)">a</text><text xml:space="preserve" font-family="GillSans-Light,Gill Sans" font-size="36.0" fill="#525252" transform="matrix(0.93, -0.36, -0.36, -0.93, 107.9, 109.4)">s</text><text xml:space="preserve" font-family="GillSans-Light,Gill Sans" font-size="36.0" fill="#525252" transform="matrix(0.93, -0.36, -0.36, -0.93, 119.8, 104.9)">y</text><text xml:space="preserve" font-family="GillSans-Light,Gill Sans" font-size="36.0" fill="#525252" transform="matrix(0.93, -0.36, -0.36, -0.93, 133.9, 99.5)">n</text><text xml:space="preserve" font-family="GillSans-Light,Gill Sans" font-size="36.0" fill="#525252" transform="matrix(0.93, -0.36, -0.36, -0.93, 150.3, 93.2)">c</text><text xml:space="preserve" font-family="GillSans-Light,Gill Sans" font-size="36.0" fill="#525252" transform="matrix(0.93, -0.36, -0.36, -0.93, 164.4, 87.8)"> </text><text xml:space="preserve" font-family="GillSans-Light,Gill Sans" font-size="36.0" fill="#525252" transform="matrix(0.93, -0.36, -0.36, -0.93, 173.7, 84.2)">i</text><text xml:space="preserve" font-family="GillSans-Light,Gill Sans" font-size="36.0" fill="#525252" transform="matrix(0.93, -0.36, -0.36, -0.93, 180.0, 81.8)">n</text><text xml:space="preserve" font-family="GillSans-Light,Gill Sans" font-size="36.0" fill="#525252" transform="matrix(0.93, -0.36, -0.36, -0.93, 196.5, 75.5)"> </text><text xml:space="preserve" font-family="GillSans-Light,Gill Sans" font-size="36.0" fill="#525252" transform="matrix(0.93, -0.36, -0.36, -0.93, 51.6, 87.2)">a</text><text xml:space="preserve" font-family="GillSans-Light,Gill Sans" font-size="36.0" fill="#525252" transform="matrix(0.93, -0.36, -0.36, -0.93, 65.9, 81.7)">n</text><text xml:space="preserve" font-family="GillSans-Light,Gill Sans" font-size="36.0" fill="#525252" transform="matrix(0.93, -0.36, -0.36, -0.93, 82.4, 75.3)">o</text><text xml:space="preserve" font-family="GillSans-Light,Gill Sans" font-size="36.0" fill="#525252" transform="matrix(0.93, -0.36, -0.36, -0.93, 100.6, 68.4)">t</text><text xml:space="preserve" font-family="GillSans-Light,Gill Sans" font-size="36.0" fill="#525252" transform="matrix(0.93, -0.36, -0.36, -0.93, 110.7, 64.5)">h</text><text xml:space="preserve" font-family="GillSans-Light,Gill Sans" font-size="36.0" fill="#525252" transform="matrix(0.93, -0.36, -0.36, -0.93, 127.2, 58.1)">e</text><text xml:space="preserve" font-family="GillSans-Light,Gill Sans" font-size="36.0" fill="#525252" transform="matrix(0.93, -0.36, -0.36, -0.93, 143.3, 52.0)">r</text><text xml:space="preserve" font-family="GillSans-Light,Gill Sans" font-size="36.0" fill="#525252" transform="matrix(0.93, -0.36, -0.36, -0.93, 154.5, 47.7)"> </text><text xml:space="preserve" font-family="GillSans-Light,Gill Sans" font-size="36.0" fill="#525252" transform="matrix(0.93, -0.36, -0.36, -0.93, 163.8, 44.1)">t</text><text xml:space="preserve" font-family="GillSans-Light,Gill Sans" font-size="36.0" fill="#525252" transform="matrix(0.93, -0.36, -0.36, -0.93, 174.0, 40.2)">a</text><text xml:space="preserve" font-family="GillSans-Light,Gill Sans" font-size="36.0" fill="#525252" transform="matrix(0.93, -0.36, -0.36, -0.93, 188.3, 34.7)">l</text><text xml:space="preserve" font-family="GillSans-Light,Gill Sans" font-size="36.0" fill="#525252" transform="matrix(0.93, -0.36, -0.36, -0.93, 194.6, 32.3)">k</text></g></g></g></svg>