<?xml version="1.0" encoding="UTF-8" standalone="no"?><svg xmlns="http://www.w3.org/2000/svg" xmlns:xlink="http://www.w3.org/1999/xlink" clip-rule="evenodd" stroke-miterlimit="10" viewBox="0 0 177 165"><desc>SVG generated by Keynote</desc><defs></defs><g transform="matrix(1.00, 0.00, -0.00, -1.00, 0.0, 165.0)"><g><clipPath id="clip0x6000020b39e0"><path d="M 72.2 0.7 L 176.2 0.7 L 176.2 146.5 L 72.2 146.5 Z M 72.2 0.7 "></path></clipPath><g clip-path="url(#clip0x6000020b39e0)"><path d="M 74.2 59.5 L 74.0 129.5 C 74.0 137.8 81.0 144.0 89.2 144.0 L 159.2 144.0 C 167.5 144.0 174.0 137.8 174.0 129.5 L 174.0 59.5 C 174.0 51.2 167.5 44.0 159.2 44.0 L 89.2 44.0 C 81.0 44.0 74.2 51.2 74.2 59.5 Z M 74.2 59.5 " fill="#AA1802"></path><path d="M 0.0 85.0 L -0.2 15.0 C -0.2 6.7 6.7 0.5 15.0 0.5 L 85.0 0.5 C 93.3 0.5 99.8 6.7 99.8 15.0 L 99.8 85.0 C 99.8 93.3 93.3 100.5 85.0 100.5 L 15.0 100.5 C 6.7 100.5 0.0 93.3 0.0 85.0 Z M 0.0 85.0 " fill="none" stroke="#7F8685" stroke-width="2.00" transform="matrix(1.00, 0.00, 0.00, -1.00, 74.2, 144.5)"></path><image xlink:href="../../DBD881AE-4AE7-4426-B447-FD0F8957660E/assets/65736E52DB3BFF7591037037A08FCDAA.png" width="425.00" height="175.00" transform="matrix(0.24, 0.00, -0.00, -0.24, 73.2, 43.5)"></image></g></g><g><clipPath id="clip0x608001eaac20"><path d="M 74.2 44.5 L 174.2 44.5 L 174.2 149.7 L 74.2 149.7 Z M 74.2 44.5 "></path></clipPath><g clip-path="url(#clip0x608001eaac20)"><text xml:space="preserve" font-family="GillSans-Light,Gill Sans" font-size="36.0" fill="#FEFFFF" transform="matrix(1.00, 0.00, -0.00, -1.00, 141.2, 107.1)">4</text></g></g><g><clipPath id="clip0x608001eaae60"><path d="M 37.2 9.7 L 141.2 9.7 L 141.2 155.5 L 37.2 155.5 Z M 37.2 9.7 "></path></clipPath><g clip-path="url(#clip0x608001eaae60)"><path d="M 39.2 68.5 L 39.0 138.5 C 39.0 146.8 46.0 153.0 54.2 153.0 L 124.2 153.0 C 132.5 153.0 139.0 146.8 139.0 138.5 L 139.0 68.5 C 139.0 60.2 132.5 53.0 124.2 53.0 L 54.2 53.0 C 46.0 53.0 39.2 60.2 39.2 68.5 Z M 39.2 68.5 " fill="#AA1802"></path><path d="M 0.0 85.0 L -0.2 15.0 C -0.2 6.7 6.7 0.5 15.0 0.5 L 85.0 0.5 C 93.3 0.5 99.8 6.7 99.8 15.0 L 99.8 85.0 C 99.8 93.3 93.3 100.5 85.0 100.5 L 15.0 100.5 C 6.7 100.5 0.0 93.3 0.0 85.0 Z M 0.0 85.0 " fill="none" stroke="#7F8685" stroke-width="2.00" transform="matrix(1.00, 0.00, 0.00, -1.00, 39.2, 153.5)"></path><image xlink:href="../../DBD881AE-4AE7-4426-B447-FD0F8957660E/assets/65736E52DB3BFF7591037037A08FCDAA.png" width="425.00" height="175.00" transform="matrix(0.24, 0.00, -0.00, -0.24, 38.2, 52.5)"></image></g></g><g><clipPath id="clip0x6000020b3980"><path d="M 39.2 53.5 L 139.2 53.5 L 139.2 158.7 L 39.2 158.7 Z M 39.2 53.5 "></path></clipPath><g clip-path="url(#clip0x6000020b3980)"><text xml:space="preserve" font-family="GillSans-Light,Gill Sans" font-size="36.0" fill="#FEFFFF" transform="matrix(1.00, 0.00, -0.00, -1.00, 106.2, 116.1)">3</text></g></g><g><clipPath id="clip0x6000020b4940"><path d="M 0.5 18.7 L 104.5 18.7 L 104.5 164.5 L 0.5 164.5 Z M 0.5 18.7 "></path></clipPath><g clip-path="url(#clip0x6000020b4940)"><path d="M 2.5 77.5 L 2.0 147.5 C 2.0 155.8 9.2 162.0 17.5 162.0 L 87.5 162.0 C 95.8 162.0 102.0 155.8 102.0 147.5 L 102.0 77.5 C 102.0 69.2 95.8 62.0 87.5 62.0 L 17.5 62.0 C 9.2 62.0 2.5 69.2 2.5 77.5 Z M 2.5 77.5 " fill="#AA1802"></path><path d="M 0.0 85.0 L -0.5 15.0 C -0.5 6.7 6.7 0.5 15.0 0.5 L 85.0 0.5 C 93.3 0.5 99.5 6.7 99.5 15.0 L 99.5 85.0 C 99.5 93.3 93.3 100.5 85.0 100.5 L 15.0 100.5 C 6.7 100.5 0.0 93.3 0.0 85.0 Z M 0.0 85.0 " fill="none" stroke="#7F8685" stroke-width="2.00" transform="matrix(1.00, 0.00, 0.00, -1.00, 2.5, 162.5)"></path><image xlink:href="010AE668F3879F04A1010FC132E74867.png" width="425.00" height="175.00" transform="matrix(0.24, 0.00, -0.00, -0.24, 1.5, 61.5)"></image></g></g><g><clipPath id="clip0x6000020b4b80"><path d="M -2.7 62.5 L 107.7 62.5 L 107.7 162.5 L -2.7 162.5 Z M -2.7 62.5 "></path></clipPath><g clip-path="url(#clip0x6000020b4b80)"><text xml:space="preserve" font-family="GillSans-Light,Gill Sans" font-size="36.0" fill="#FEFFFF" transform="matrix(1.00, 0.00, -0.00, -1.00, 43.5, 112.3)">2</text><text xml:space="preserve" font-family="GillSans-Light,Gill Sans" font-size="20.0" fill="#FEFFFF" transform="matrix(1.00, 0.00, -0.00, -1.00, 19.6, 85.5)">(</text><text xml:space="preserve" font-family="GillSans-Light,Gill Sans" font-size="20.0" fill="#FEFFFF" transform="matrix(1.00, 0.00, -0.00, -1.00, 26.2, 85.5)">8</text><text xml:space="preserve" font-family="GillSans-Light,Gill Sans" font-size="20.0" fill="#FEFFFF" transform="matrix(1.00, 0.00, -0.00, -1.00, 36.2, 85.5)">0</text><text xml:space="preserve" font-family="GillSans-Light,Gill Sans" font-size="20.0" fill="#FEFFFF" transform="matrix(1.00, 0.00, -0.00, -1.00, 46.2, 85.5)">0</text><text xml:space="preserve" font-family="GillSans-Light,Gill Sans" font-size="20.0" fill="#FEFFFF" transform="matrix(1.00, 0.00, -0.00, -1.00, 56.2, 85.5)">m</text><text xml:space="preserve" font-family="GillSans-Light,Gill Sans" font-size="20.0" fill="#FEFFFF" transform="matrix(1.00, 0.00, -0.00, -1.00, 71.7, 85.5)">s</text><text xml:space="preserve" font-family="GillSans-Light,Gill Sans" font-size="20.0" fill="#FEFFFF" transform="matrix(1.00, 0.00, -0.00, -1.00, 78.7, 85.5)">)</text></g></g></g></svg>