<?xml version="1.0" encoding="UTF-8" standalone="no"?><svg xmlns="http://www.w3.org/2000/svg" xmlns:xlink="http://www.w3.org/1999/xlink" clip-rule="evenodd" stroke-miterlimit="10" viewBox="0 0 103 185"><desc>SVG generated by Keynote</desc><defs></defs><g transform="matrix(1.00, 0.00, -0.00, -1.00, 0.0, 185.0)"><path d="M 1.5 57.5 L 1.0 127.5 C 1.0 135.8 8.2 142.0 16.5 142.0 L 86.5 142.0 C 94.8 142.0 101.0 135.8 101.0 127.5 L 101.0 57.5 C 101.0 49.2 94.8 42.0 86.5 42.0 L 16.5 42.0 C 8.2 42.0 1.5 49.2 1.5 57.5 Z M 1.5 57.5 " fill="#AA1802"></path><g><clipPath id="clip0x608001ea9120"><path d="M -4.7 42.5 L 107.7 42.5 L 107.7 142.5 L -4.7 142.5 Z M -4.7 42.5 "></path></clipPath><g clip-path="url(#clip0x608001ea9120)"><text xml:space="preserve" font-family="GillSans-Light,Gill Sans" font-size="36.0" fill="#FEFFFF" transform="matrix(1.00, 0.00, -0.00, -1.00, 42.5, 91.7)">4</text><text xml:space="preserve" font-family="GillSans-Light,Gill Sans" font-size="20.0" fill="#FEFFFF" transform="matrix(1.00, 0.00, -0.00, -1.00, 18.6, 64.9)">(</text><text xml:space="preserve" font-family="GillSans-Light,Gill Sans" font-size="20.0" fill="#FEFFFF" transform="matrix(1.00, 0.00, -0.00, -1.00, 25.2, 64.9)">7</text><text xml:space="preserve" font-family="GillSans-Light,Gill Sans" font-size="20.0" fill="#FEFFFF" transform="matrix(1.00, 0.00, -0.00, -1.00, 35.2, 64.9)">5</text><text xml:space="preserve" font-family="GillSans-Light,Gill Sans" font-size="20.0" fill="#FEFFFF" transform="matrix(1.00, 0.00, -0.00, -1.00, 45.2, 64.9)">0</text><text xml:space="preserve" font-family="GillSans-Light,Gill Sans" font-size="20.0" fill="#FEFFFF" transform="matrix(1.00, 0.00, -0.00, -1.00, 55.2, 64.9)">m</text><text xml:space="preserve" font-family="GillSans-Light,Gill Sans" font-size="20.0" fill="#FEFFFF" transform="matrix(1.00, 0.00, -0.00, -1.00, 70.7, 64.9)">s</text><text xml:space="preserve" font-family="GillSans-Light,Gill Sans" font-size="20.0" fill="#FEFFFF" transform="matrix(1.00, 0.00, -0.00, -1.00, 77.7, 64.9)">)</text></g></g><image xlink:href="../../B1406D9B-49B8-47ED-86F5-F05CC127B91B/assets/38CF6B57159EED8FDE29F850C1136A95.png" width="417.00" height="171.00" transform="matrix(0.24, 0.00, -0.00, -0.24, 1.5, 42.5)"></image></g></svg>