<?xml version="1.0" encoding="UTF-8" standalone="no"?><svg xmlns="http://www.w3.org/2000/svg" xmlns:xlink="http://www.w3.org/1999/xlink" clip-rule="evenodd" stroke-miterlimit="10" viewBox="0 0 103 185"><desc>SVG generated by Keynote</desc><defs></defs><g transform="matrix(1.00, 0.00, -0.00, -1.00, 0.0, 185.0)"><path d="M 1.6 57.5 L 2.0 127.5 C 2.0 135.8 8.3 142.0 16.6 142.0 L 86.6 142.0 C 94.9 142.0 102.0 135.8 102.0 127.5 L 102.0 57.5 C 102.0 49.2 94.9 42.0 86.6 42.0 L 16.6 42.0 C 8.3 42.0 1.6 49.2 1.6 57.5 Z M 1.6 57.5 " fill="#AA1802"></path><g><clipPath id="clip0x608001ea83a0"><path d="M -4.6 42.5 L 107.8 42.5 L 107.8 142.5 L -4.6 142.5 Z M -4.6 42.5 "></path></clipPath><g clip-path="url(#clip0x608001ea83a0)"><text xml:space="preserve" font-family="GillSans-Light,Gill Sans" font-size="36.0" fill="#FEFFFF" transform="matrix(1.00, 0.00, -0.00, -1.00, 42.6, 91.7)">5</text><text xml:space="preserve" font-family="GillSans-Light,Gill Sans" font-size="20.0" fill="#FEFFFF" transform="matrix(1.00, 0.00, -0.00, -1.00, 18.7, 64.9)">(</text><text xml:space="preserve" font-family="GillSans-Light,Gill Sans" font-size="20.0" fill="#FEFFFF" transform="matrix(1.00, 0.00, -0.00, -1.00, 25.4, 64.9)">9</text><text xml:space="preserve" font-family="GillSans-Light,Gill Sans" font-size="20.0" fill="#FEFFFF" transform="matrix(1.00, 0.00, -0.00, -1.00, 35.4, 64.9)">0</text><text xml:space="preserve" font-family="GillSans-Light,Gill Sans" font-size="20.0" fill="#FEFFFF" transform="matrix(1.00, 0.00, -0.00, -1.00, 45.4, 64.9)">0</text><text xml:space="preserve" font-family="GillSans-Light,Gill Sans" font-size="20.0" fill="#FEFFFF" transform="matrix(1.00, 0.00, -0.00, -1.00, 55.4, 64.9)">m</text><text xml:space="preserve" font-family="GillSans-Light,Gill Sans" font-size="20.0" fill="#FEFFFF" transform="matrix(1.00, 0.00, -0.00, -1.00, 70.8, 64.9)">s</text><text xml:space="preserve" font-family="GillSans-Light,Gill Sans" font-size="20.0" fill="#FEFFFF" transform="matrix(1.00, 0.00, -0.00, -1.00, 77.9, 64.9)">)</text></g></g><image xlink:href="../../A6145DF7-A85D-40E2-9540-0C27EBE590D6/assets/85BEDF2530A60865677D61EE3857BB47.png" width="417.00" height="171.00" transform="matrix(0.24, 0.00, -0.00, -0.24, 1.6, 42.5)"></image></g></svg>