<?xml version="1.0" encoding="UTF-8" standalone="no"?><svg xmlns="http://www.w3.org/2000/svg" xmlns:xlink="http://www.w3.org/1999/xlink" clip-rule="evenodd" stroke-miterlimit="10" viewBox="0 0 208 144"><desc>SVG generated by Keynote</desc><defs></defs><g transform="matrix(1.00, 0.00, -0.00, -1.00, 0.0, 144.0)"><g><clipPath id="clip0x6000016b64a0"><path d="M 106.0 0.5 L 208.0 0.5 L 208.0 143.5 L 106.0 143.5 Z M 106.0 0.5 "></path></clipPath><g clip-path="url(#clip0x6000016b64a0)"><path d="M 107.0 57.5 L 107.0 127.5 C 107.0 135.8 113.7 142.0 122.0 142.0 L 192.0 142.0 C 200.3 142.0 207.0 135.8 207.0 127.5 L 207.0 57.5 C 207.0 49.2 200.3 42.0 192.0 42.0 L 122.0 42.0 C 113.7 42.0 107.0 49.2 107.0 57.5 Z M 107.0 57.5 " fill="#AA1802"></path><image xlink:href="../../B8C86BD9-A43C-4A60-88EF-5F0D957CD35B/assets/477B1E24C99D046D8A236E3651AAB771.png" width="417.00" height="171.00" transform="matrix(0.24, 0.00, -0.00, -0.24, 107.0, 42.5)"></image></g></g><g><clipPath id="clip0x6000018b9ec0"><path d="M 100.8 42.5 L 213.2 42.5 L 213.2 142.5 L 100.8 142.5 Z M 100.8 42.5 "></path></clipPath><g clip-path="url(#clip0x6000018b9ec0)"><text xml:space="preserve" font-family="GillSans-Light,Gill Sans" font-size="36.0" fill="#FEFFFF" transform="matrix(1.00, 0.00, -0.00, -1.00, 149.5, 80.2)">c</text></g></g><g><clipPath id="clip0x6000016ac840"><path d="M 0.0 86.7 L 108.0 86.7 L 108.0 98.3 L 0.0 98.3 Z M 0.0 86.7 "></path></clipPath><g clip-path="url(#clip0x6000016ac840)"><path d="M 0.0 0.0 C 32.1 0.0 64.3 0.5 96.4 0.5 L 97.0 0.5 " fill="none" stroke="#595E5D" stroke-width="2.00" transform="matrix(1.00, 0.00, 0.00, -1.00, 1.0, 92.5)"></path><path d="M 97.0 87.2 L 106.6 92.0 L 97.0 96.8 Z M 97.0 87.2 " fill="#595E5D"></path></g></g></g></svg>